{
.appVersion = "1226";
DisplayStrings = (

glyphs = (
{
color = 7;
glyphname = A;
lastChange = "2019-04-06 02:49:35 +0000";
layers = (
{
anchors = (
{
name = bottom;
position = "{584, 0}";
},
{
name = ogonek;
position = "{1236, 0}";
},
{
name = top;
position = "{826, 1494}";
}
);
layerId = "9808B12E-936F-4588-BC0B-2F1DE3B33DAD";
paths = (
{
closed = 1;
nodes = (
"260 0 LINE",
"376 280 LINE",
"886 280 LINE",
"916 0 LINE",
"1264 0 LINE",
"1042 1494 LINE",
"602 1494 LINE",
"-120 0 LINE"
);
},
{
closed = 1;
nodes = (
"740 1174 LINE",
"778 1290 LINE",
"784 1174 LINE",
"858 514 LINE",
"470 514 LINE"
);
}
);
userData = {
assembly = "NPUSHB[ ]\011/* 41 values pushed */
10 9 2 4 2 1 74 5 1 4 0 0 1 4 0 98 0 2 2 17 75 3 1 1 1 18 1 76 8 8 8 12 8 12 17 17 17 16 6 7 24 
CALL[ ]\011/* CallFunction */";
};
width = 1314;
},
{
anchors = (
{
name = bottom;
position = "{544, 0}";
},
{
name = ogonek;
position = "{1122, 0}";
},
{
name = top;
position = "{742, 1494}";
}
);
layerId = "A8DD961D-2AAA-4421-B000-699D061D5CAD";
paths = (
{
closed = 1;
nodes = (
"108 0 LINE",
"304 420 LINE",
"904 420 LINE",
"978 0 LINE",
"1126 0 LINE",
"842 1494 LINE",
"678 1494 LINE",
"-48 0 LINE"
);
},
{
closed = 1;
nodes = (
"690 1246 LINE",
"744 1362 LINE",
"758 1250 LINE",
"884 534 LINE",
"358 534 LINE"
);
}
);
userData = {
assembly = "NPUSHB[ ]\011/* 40 values pushed */
10 1 4 2 1 74 5 1 4 0 0 1 4 0 98 0 2 2 17 75 3 1 1 1 18 1 76 8 8 8 12 8 12 17 17 17 16 6 7 24 
CALL[ ]\011/* CallFunction */";
};
width = 1236;
},
{
anchors = (
{
name = bottom;
position = "{551, 0}";
},
{
name = ogonek;
position = "{1166, 0}";
},
{
name = top;
position = "{749, 1496}";
}
);
layerId = "FC25F90A-4039-49BA-9FA9-48428CE1BED8";
paths = (
{
closed = 1;
nodes = (
"153 0 LINE",
"320 369 LINE",
"889 369 LINE",
"948 0 LINE",
"1167 0 LINE",
"897 1494 LINE",
"646 1494 LINE",
"-82 0 LINE"
);
},
{
closed = 1;
nodes = (
"697 1203 LINE",
"746 1315 LINE",
"757 1202 LINE",
"863 531 LINE",
"393 531 LINE"
);
}
);
width = 1248;
}
);
leftKerningGroup = A;
note = A;
rightKerningGroup = A;
unicode = 0041;
},
{
color = 7;
glyphname = AE;
lastChange = "2019-04-06 02:49:35 +0000";
layers = (
{
anchors = (
{
name = bottom;
position = "{896, 0}";
},
{
name = top;
position = "{1094, 1494}";
}
);
layerId = "9808B12E-936F-4588-BC0B-2F1DE3B33DAD";
paths = (
{
closed = 1;
nodes = (
"264 0 LINE",
"418 290 LINE",
"874 290 LINE",
"832 0 LINE",
"1798 0 LINE",
"1834 274 LINE",
"1216 264 LINE",
"1270 642 LINE",
"1680 634 LINE",
"1716 904 LINE",
"1306 898 LINE",
"1354 1228 LINE",
"1902 1226 LINE",
"1938 1494 LINE",
"418 1494 LINE",
"390 1328 LINE",
"626 1296 LINE",
"-118 0 LINE"
);
},
{
closed = 1;
nodes = (
"932 1248 LINE",
"1010 1240 LINE",
"908 534 LINE",
"550 534 LINE"
);
}
);
userData = {
assembly = "NPUSHB[ ]\011/* 70 values pushed */
19 14 13 3 7 6 1 74 0 0 0 1 8 0 1 97 10 1 8 0 4 2 8 4 97 9 1 7 7 6 89 0 6 6 17 75 0 2 2 3 89 5 1 3 3 18 3 76 18 18 0 0 18 21 18 21 0 17 0 17 19 17 17 17 17 17 17 11 7 27 
CALL[ ]\011/* CallFunction */";
};
width = 1938;
},
{
anchors = (
{
name = bottom;
position = "{796, 0}";
},
{
name = top;
position = "{994, 1494}";
}
);
layerId = "A8DD961D-2AAA-4421-B000-699D061D5CAD";
paths = (
{
closed = 1;
nodes = (
"54 0 LINE",
"300 448 LINE",
"806 448 LINE",
"750 0 LINE",
"1620 0 LINE",
"1630 124 LINE",
"910 112 LINE",
"986 710 LINE",
"1454 700 LINE",
"1462 824 LINE",
"1000 818 LINE",
"1072 1384 LINE",
"1670 1376 LINE",
"1676 1494 LINE",
"402 1494 LINE",
"392 1418 LINE",
"682 1402 LINE",
"-104 0 LINE"
);
},
{
closed = 1;
nodes = (
"816 1392 LINE",
"924 1386 LINE",
"822 562 LINE",
"362 562 LINE"
);
}
);
userData = {
assembly = "NPUSHB[ ]\011/* 68 values pushed */
0 6 7 8 8 6 104 0 0 0 1 10 0 1 97 0 10 0 4 2 10 4 97 9 11 2 8 8 7 90 0 7 7 17 75 0 2 2 3 89 5 1 3 3 18 3 76 0 0 21 20 19 18 0 17 0 17 17 17 17 17 17 17 17 17 12 7 28 
CALL[ ]\011/* CallFunction */";
};
width = 1740;
},
{
anchors = (
{
name = bottom;
position = "{806, 0}";
},
{
name = top;
position = "{1004, 1496}";
}
);
layerId = "FC25F90A-4039-49BA-9FA9-48428CE1BED8";
paths = (
{
closed = 1;
nodes = (
"113 0 LINE",
"316 387 LINE",
"786 387 LINE",
"737 0 LINE",
"1631 0 LINE",
"1648 180 LINE",
"975 166 LINE",
"1044 686 LINE",
"1472 671 LINE",
"1488 850 LINE",
"1063 844 LINE",
"1126 1329 LINE",
"1690 1322 LINE",
"1702 1494 LINE",
"366 1494 LINE",
"350 1385 LINE",
"626 1363 LINE",
"-125 0 LINE"
);
},
{
closed = 1;
nodes = (
"821 1342 LINE",
"908 1335 LINE",
"808 551 LINE",
"404 551 LINE"
);
}
);
width = 1757;
}
);
leftKerningGroup = A;
note = AE;
rightKerningGroup = E;
unicode = 00C6;
},
{
color = 7;
glyphname = B;
lastChange = "2019-04-06 02:49:35 +0000";
layers = (
{
anchors = (
{
name = bottom;
position = "{586, 0}";
},
{
name = top;
position = "{784, 1494}";
}
);
layerId = "9808B12E-936F-4588-BC0B-2F1DE3B33DAD";
paths = (
{
closed = 1;
nodes = (
"982 -16 OFFCURVE",
"1242 136 OFFCURVE",
"1242 478 CURVE SMOOTH",
"1242 636 OFFCURVE",
"1144 748 OFFCURVE",
"968 786 CURVE",
"1162 826 OFFCURVE",
"1264 970 OFFCURVE",
"1264 1170 CURVE SMOOTH",
"1264 1396 OFFCURVE",
"1098 1508 OFFCURVE",
"768 1508 CURVE SMOOTH",
"752 1508 OFFCURVE",
"476 1494 OFFCURVE",
"444 1494 CURVE SMOOTH",
"284 1494 LINE",
"70 0 LINE",
"222 0 LINE SMOOTH",
"246 0 OFFCURVE",
"490 -16 OFFCURVE",
"520 -16 CURVE SMOOTH"
);
},
{
closed = 1;
nodes = (
"520 228 OFFCURVE",
"480 230 OFFCURVE",
"450 234 CURVE",
"508 650 LINE",
"538 652 OFFCURVE",
"574 654 OFFCURVE",
"614 654 CURVE SMOOTH",
"792 654 OFFCURVE",
"876 614 OFFCURVE",
"876 462 CURVE SMOOTH",
"876 326 OFFCURVE",
"704 228 OFFCURVE",
"568 228 CURVE SMOOTH"
);
},
{
closed = 1;
nodes = (
"598 1266 LINE",
"626 1268 OFFCURVE",
"662 1270 OFFCURVE",
"706 1270 CURVE SMOOTH",
"840 1270 OFFCURVE",
"908 1236 OFFCURVE",
"908 1130 CURVE SMOOTH",
"908 960 OFFCURVE",
"814 882 OFFCURVE",
"630 882 CURVE SMOOTH",
"600 882 OFFCURVE",
"572 884 OFFCURVE",
"542 886 CURVE"
);
}
);
userData = {
assembly = "NPUSHB[ ]\011/* 10 values pushed */
22 1 5 4 44 1 6 5 2 74 
MPPEM[ ]\011/* MeasurePixelPerEm */
PUSHB[ ]\011/* 1 value pushed */
42 
LT[ ]\011/* LessThan */
IF[ ]\011/* If */
NPUSHB[ ]\011/* 32 values pushed */
7 1 4 0 5 6 4 5 99 0 3 3 2 89 0 2 2 17 75 8 1 6 6 0 89 1 1 0 0 18 0 76 
ELSE[ ]\011/* Else */
NPUSHB[ ]\011/* 36 values pushed */
7 1 4 0 5 6 4 5 99 0 3 3 2 89 0 2 2 17 75 0 1 1 18 75 8 1 6 6 0 89 0 0 0 18 0 76 
EIF[ ]\011/* EndIf */
NPUSHB[ ]\011/* 21 values pushed */
34 34 23 23 34 46 34 45 42 40 23 33 23 31 57 113 33 52 9 7 24 
CALL[ ]\011/* CallFunction */";
};
width = 1320;
},
{
anchors = (
{
name = bottom;
position = "{532, 0}";
},
{
name = top;
position = "{730, 1494}";
}
);
layerId = "A8DD961D-2AAA-4421-B000-699D061D5CAD";
paths = (
{
closed = 1;
nodes = (
"822 -14 OFFCURVE",
"1112 124 OFFCURVE",
"1104 478 CURVE SMOOTH",
"1104 642 OFFCURVE",
"970 762 OFFCURVE",
"800 782 CURVE",
"994 836 OFFCURVE",
"1112 978 OFFCURVE",
"1112 1180 CURVE SMOOTH",
"1112 1374 OFFCURVE",
"992 1510 OFFCURVE",
"674 1510 CURVE SMOOTH",
"626 1510 OFFCURVE",
"410 1494 OFFCURVE",
"374 1494 CURVE SMOOTH",
"306 1494 LINE",
"118 0 LINE",
"186 0 LINE SMOOTH",
"262 0 OFFCURVE",
"380 -14 OFFCURVE",
"448 -14 CURVE SMOOTH"
);
},
{
closed = 1;
nodes = (
"432 92 OFFCURVE",
"314 102 OFFCURVE",
"280 112 CURVE",
"356 716 LINE",
"424 720 OFFCURVE",
"510 722 OFFCURVE",
"612 722 CURVE SMOOTH",
"820 722 OFFCURVE",
"948 630 OFFCURVE",
"948 456 CURVE SMOOTH",
"948 200 OFFCURVE",
"766 92 OFFCURVE",
"480 92 CURVE SMOOTH"
);
},
{
closed = 1;
nodes = (
"440 1394 LINE",
"496 1402 OFFCURVE",
"602 1408 OFFCURVE",
"640 1408 CURVE SMOOTH",
"872 1408 OFFCURVE",
"964 1326 OFFCURVE",
"964 1166 CURVE SMOOTH",
"964 956 OFFCURVE",
"812 828 OFFCURVE",
"598 828 CURVE SMOOTH",
"452 826 OFFCURVE",
"398 826 OFFCURVE",
"370 828 CURVE"
);
}
);
userData = {
assembly = "NPUSHB[ ]\011/* 10 values pushed */
25 1 6 4 48 1 7 6 2 74 
MPPEM[ ]\011/* MeasurePixelPerEm */
PUSHB[ ]\011/* 1 value pushed */
31 
LT[ ]\011/* LessThan */
IF[ ]\011/* If */
NPUSHB[ ]\011/* 32 values pushed */
0 4 0 6 7 4 6 98 0 5 5 2 91 3 1 2 2 17 75 8 1 7 7 0 91 1 1 0 0 26 0 76 
ELSE[ ]\011/* Else */
MPPEM[ ]\011/* MeasurePixelPerEm */
PUSHB[ ]\011/* 1 value pushed */
45 
LT[ ]\011/* LessThan */
IF[ ]\011/* If */
NPUSHB[ ]\011/* 36 values pushed */
0 4 0 6 7 4 6 98 0 2 2 17 75 0 5 5 3 91 0 3 3 25 75 8 1 7 7 0 91 1 1 0 0 26 0 76 
ELSE[ ]\011/* Else */
NPUSHB[ ]\011/* 40 values pushed */
0 4 0 6 7 4 6 98 0 2 2 17 75 0 5 5 3 91 0 3 3 25 75 0 1 1 18 75 8 1 7 7 0 91 0 0 0 26 0 76 
EIF[ ]\011/* EndIf */
EIF[ ]\011/* EndIf */
NPUSHB[ ]\011/* 16 values pushed */
40 40 40 51 40 50 54 53 55 34 33 34 54 9 7 27 
CALL[ ]\011/* CallFunction */";
};
width = 1210;
},
{
anchors = (
{
name = bottom;
position = "{541, 0}";
},
{
name = top;
position = "{739, 1496}";
}
);
layerId = "FC25F90A-4039-49BA-9FA9-48428CE1BED8";
paths = (
{
closed = 1;
nodes = (
"878 -14 OFFCURVE",
"1134 139 OFFCURVE",
"1129 476 CURVE SMOOTH",
"1127 643 OFFCURVE",
"1011 757 OFFCURVE",
"843 784 CURVE",
"1029 842 OFFCURVE",
"1140 979 OFFCURVE",
"1140 1178 CURVE SMOOTH",
"1140 1373 OFFCURVE",
"1017 1510 OFFCURVE",
"691 1510 CURVE SMOOTH",
"637 1510 OFFCURVE",
"434 1494 OFFCURVE",
"391 1494 CURVE SMOOTH",
"294 1494 LINE",
"102 0 LINE",
"202 0 LINE SMOOTH",
"254 0 OFFCURVE",
"411 -14 OFFCURVE",
"458 -14 CURVE SMOOTH"
);
},
{
closed = 1;
nodes = (
"454 141 OFFCURVE",
"375 148 OFFCURVE",
"339 157 CURVE",
"408 692 LINE",
"468 696 OFFCURVE",
"530 698 OFFCURVE",
"593 698 CURVE SMOOTH",
"795 698 OFFCURVE",
"897 620 OFFCURVE",
"897 451 CURVE SMOOTH",
"897 238 OFFCURVE",
"763 141 OFFCURVE",
"501 141 CURVE SMOOTH"
);
},
{
closed = 1;
nodes = (
"493 1350 LINE",
"540 1356 OFFCURVE",
"606 1359 OFFCURVE",
"642 1358 CURVE SMOOTH",
"837 1353 OFFCURVE",
"920 1294 OFFCURVE",
"920 1155 CURVE SMOOTH",
"920 960 OFFCURVE",
"781 849 OFFCURVE",
"583 849 CURVE SMOOTH",
"501 849 OFFCURVE",
"466 849 OFFCURVE",
"429 851 CURVE"
);
}
);
width = 1228;
}
);
leftKerningGroup = H;
note = B;
rightKerningGroup = B;
unicode = 0042;
},
{
color = 7;
glyphname = C;
lastChange = "2019-04-06 02:49:35 +0000";
layers = (
{
anchors = (
{
name = bottom;
position = "{604, 0}";
},
{
name = top;
position = "{870, 1494}";
}
);
layerId = "9808B12E-936F-4588-BC0B-2F1DE3B33DAD";
paths = (
{
closed = 1;
nodes = (
"756 -16 OFFCURVE",
"986 58 OFFCURVE",
"1048 110 CURVE",
"1002 352 LINE",
"944 310 OFFCURVE",
"820 264 OFFCURVE",
"702 264 CURVE SMOOTH",
"512 264 OFFCURVE",
"434 372 OFFCURVE",
"434 610 CURVE SMOOTH",
"434 824 OFFCURVE",
"488 1016 OFFCURVE",
"610 1132 CURVE SMOOTH",
"670 1190 OFFCURVE",
"746 1218 OFFCURVE",
"838 1218 CURVE SMOOTH",
"966 1218 OFFCURVE",
"1060 1168 OFFCURVE",
"1118 1114 CURVE",
"1218 1442 LINE",
"1062 1496 OFFCURVE",
"980 1510 OFFCURVE",
"874 1510 CURVE SMOOTH",
"570 1510 OFFCURVE",
"318 1336 OFFCURVE",
"184 1060 CURVE SMOOTH",
"116 922 OFFCURVE",
"82 772 OFFCURVE",
"82 610 CURVE SMOOTH",
"82 384 OFFCURVE",
"142 190 OFFCURVE",
"300 72 CURVE SMOOTH",
"378 14 OFFCURVE",
"482 -16 OFFCURVE",
"610 -16 CURVE SMOOTH"
);
}
);
userData = {
assembly = "NPUSHB[ ]\011/* 49 values pushed */
3 1 0 3 17 4 2 1 0 18 1 2 1 3 74 0 0 0 3 91 4 1 3 3 25 75 0 1 1 2 91 0 2 2 26 2 76 0 0 0 30 0 29 38 37 38 5 7 23 
CALL[ ]\011/* CallFunction */";
};
width = 1164;
},
{
anchors = (
{
name = bottom;
position = "{604, 0}";
},
{
name = top;
position = "{800, 1494}";
}
);
layerId = "A8DD961D-2AAA-4421-B000-699D061D5CAD";
paths = (
{
closed = 1;
nodes = (
"776 -14 OFFCURVE",
"912 18 OFFCURVE",
"1014 82 CURVE",
"992 206 LINE",
"920 158 OFFCURVE",
"768 102 OFFCURVE",
"634 102 CURVE SMOOTH",
"370 102 OFFCURVE",
"258 348 OFFCURVE",
"258 648 CURVE SMOOTH",
"258 888 OFFCURVE",
"336 1130 OFFCURVE",
"500 1276 CURVE SMOOTH",
"582 1350 OFFCURVE",
"680 1386 OFFCURVE",
"798 1386 CURVE SMOOTH",
"924 1386 OFFCURVE",
"1002 1360 OFFCURVE",
"1068 1326 CURVE",
"1120 1450 LINE",
"958 1500 OFFCURVE",
"904 1510 OFFCURVE",
"804 1510 CURVE SMOOTH",
"546 1510 OFFCURVE",
"322 1356 OFFCURVE",
"200 1092 CURVE SMOOTH",
"138 958 OFFCURVE",
"108 806 OFFCURVE",
"108 636 CURVE SMOOTH",
"108 410 OFFCURVE",
"166 204 OFFCURVE",
"316 80 CURVE SMOOTH",
"390 18 OFFCURVE",
"488 -14 OFFCURVE",
"608 -14 CURVE SMOOTH"
);
}
);
userData = {
assembly = "NPUSHB[ ]\011/* 49 values pushed */
3 1 0 3 20 4 2 1 0 21 1 2 1 3 74 0 0 0 3 91 4 1 3 3 25 75 0 1 1 2 91 0 2 2 26 2 76 0 0 0 31 0 30 37 38 39 5 7 23 
CALL[ ]\011/* CallFunction */";
};
width = 1114;
},
{
anchors = (
{
name = bottom;
position = "{604, 0}";
},
{
name = top;
position = "{810, 1496}";
}
);
layerId = "FC25F90A-4039-49BA-9FA9-48428CE1BED8";
paths = (
{
closed = 1;
nodes = (
"802 -16 OFFCURVE",
"955 40 OFFCURVE",
"1017 87 CURVE",
"985 262 LINE",
"929 218 OFFCURVE",
"766 159 OFFCURVE",
"642 159 CURVE SMOOTH",
"418 159 OFFCURVE",
"323 372 OFFCURVE",
"323 644 CURVE SMOOTH",
"323 855 OFFCURVE",
"382 1080 OFFCURVE",
"525 1221 CURVE SMOOTH",
"596 1293 OFFCURVE",
"688 1327 OFFCURVE",
"799 1327 CURVE SMOOTH",
"936 1327 OFFCURVE",
"988 1296 OFFCURVE",
"1058 1257 CURVE",
"1131 1440 LINE",
"1005 1490 OFFCURVE",
"912 1510 OFFCURVE",
"810 1510 CURVE SMOOTH",
"545 1510 OFFCURVE",
"318 1353 OFFCURVE",
"194 1087 CURVE SMOOTH",
"131 953 OFFCURVE",
"100 801 OFFCURVE",
"100 632 CURVE SMOOTH",
"100 406 OFFCURVE",
"160 201 OFFCURVE",
"308 77 CURVE SMOOTH",
"381 15 OFFCURVE",
"479 -16 OFFCURVE",
"599 -16 CURVE SMOOTH"
);
}
);
width = 1122;
}
);
leftKerningGroup = O;
note = C;
rightKerningGroup = C;
unicode = 0043;
},
{
color = 7;
glyphname = D;
lastChange = "2019-04-06 02:49:35 +0000";
layers = (
{
anchors = (
{
name = bottom;
position = "{622, 0}";
},
{
name = center;
position = "{722, 748}";
},
{
name = top;
position = "{820, 1494}";
}
);
layerId = "9808B12E-936F-4588-BC0B-2F1DE3B33DAD";
paths = (
{
closed = 1;
nodes = (
"1076 -16 OFFCURVE",
"1382 376 OFFCURVE",
"1382 910 CURVE SMOOTH",
"1382 1288 OFFCURVE",
"1208 1510 OFFCURVE",
"814 1510 CURVE SMOOTH",
"784 1510 OFFCURVE",
"460 1494 OFFCURVE",
"436 1494 CURVE SMOOTH",
"284 1494 LINE",
"70 0 LINE",
"210 0 LINE SMOOTH",
"250 0 OFFCURVE",
"442 -16 OFFCURVE",
"556 -16 CURVE SMOOTH"
);
},
{
closed = 1;
nodes = (
"544 238 OFFCURVE",
"494 244 OFFCURVE",
"454 258 CURVE",
"594 1242 LINE",
"632 1250 OFFCURVE",
"698 1254 OFFCURVE",
"744 1254 CURVE SMOOTH",
"878 1254 OFFCURVE",
"956 1220 OFFCURVE",
"996 1122 CURVE SMOOTH",
"1016 1072 OFFCURVE",
"1026 1004 OFFCURVE",
"1026 916 CURVE SMOOTH",
"1026 660 OFFCURVE",
"966 448 OFFCURVE",
"840 328 CURVE SMOOTH",
"776 268 OFFCURVE",
"698 238 OFFCURVE",
"604 238 CURVE SMOOTH"
);
}
);
userData = {
assembly = "PUSHB[ ]\011/* 6 values pushed */
30 1 4 3 1 74 
MPPEM[ ]\011/* MeasurePixelPerEm */
PUSHB[ ]\011/* 1 value pushed */
45 
LT[ ]\011/* LessThan */
IF[ ]\011/* If */
NPUSHB[ ]\011/* 24 values pushed */
0 3 3 2 89 5 1 2 2 17 75 6 1 4 4 0 91 1 1 0 0 26 0 76 
ELSE[ ]\011/* Else */
NPUSHB[ ]\011/* 28 values pushed */
0 3 3 2 89 5 1 2 2 17 75 0 1 1 18 75 6 1 4 4 0 91 0 0 0 26 0 76 
EIF[ ]\011/* EndIf */
NPUSHB[ ]\011/* 19 values pushed */
19 19 0 0 19 32 19 31 27 25 0 18 0 13 65 37 7 7 22 
CALL[ ]\011/* CallFunction */";
};
width = 1390;
},
{
anchors = (
{
name = bottom;
position = "{598, 0}";
},
{
name = center;
position = "{698, 748}";
},
{
name = top;
position = "{796, 1494}";
}
);
layerId = "A8DD961D-2AAA-4421-B000-699D061D5CAD";
paths = (
{
closed = 1;
nodes = (
"970 -28 OFFCURVE",
"1268 382 OFFCURVE",
"1268 884 CURVE SMOOTH",
"1268 1274 OFFCURVE",
"1092 1510 OFFCURVE",
"706 1510 CURVE SMOOTH",
"608 1510 OFFCURVE",
"498 1494 OFFCURVE",
"420 1494 CURVE",
"306 1494 LINE",
"118 0 LINE",
"194 0 LINE SMOOTH",
"324 0 OFFCURVE",
"396 -12 OFFCURVE",
"510 -16 CURVE SMOOTH"
);
},
{
closed = 1;
nodes = (
"460 96 OFFCURVE",
"378 104 OFFCURVE",
"280 122 CURVE",
"438 1382 LINE",
"528 1394 OFFCURVE",
"602 1400 OFFCURVE",
"664 1400 CURVE SMOOTH",
"880 1400 OFFCURVE",
"1008 1328 OFFCURVE",
"1070 1176 CURVE SMOOTH",
"1100 1100 OFFCURVE",
"1116 1000 OFFCURVE",
"1116 876 CURVE SMOOTH",
"1116 606 OFFCURVE",
"1024 356 OFFCURVE",
"848 208 CURVE SMOOTH",
"760 134 OFFCURVE",
"654 96 OFFCURVE",
"530 96 CURVE SMOOTH"
);
}
);
userData = {
assembly = "PUSHB[ ]\011/* 6 values pushed */
29 1 4 3 1 74 
MPPEM[ ]\011/* MeasurePixelPerEm */
PUSHB[ ]\011/* 1 value pushed */
33 
LT[ ]\011/* LessThan */
IF[ ]\011/* If */
NPUSHB[ ]\011/* 23 values pushed */
0 3 3 2 89 0 2 2 17 75 5 1 4 4 0 91 1 1 0 0 26 0 76 
ELSE[ ]\011/* Else */
NPUSHB[ ]\011/* 27 values pushed */
0 3 3 2 89 0 2 2 17 75 0 1 1 18 75 5 1 4 4 0 91 0 0 0 26 0 76 
EIF[ ]\011/* EndIf */
NPUSHB[ ]\011/* 13 values pushed */
19 19 19 31 19 30 41 97 50 34 6 7 24 
CALL[ ]\011/* CallFunction */";
};
width = 1344;
},
{
anchors = (
{
name = bottom;
position = "{602, 0}";
},
{
name = center;
position = "{702, 749}";
},
{
name = top;
position = "{800, 1496}";
}
);
layerId = "FC25F90A-4039-49BA-9FA9-48428CE1BED8";
paths = (
{
closed = 1;
nodes = (
"987 -24 OFFCURVE",
"1287 381 OFFCURVE",
"1287 881 CURVE SMOOTH",
"1287 1277 OFFCURVE",
"1113 1510 OFFCURVE",
"722 1510 CURVE SMOOTH",
"647 1510 OFFCURVE",
"455 1494 OFFCURVE",
"400 1494 CURVE SMOOTH",
"294 1494 LINE",
"102 0 LINE",
"207 0 LINE SMOOTH",
"342 0 OFFCURVE",
"401 -13 OFFCURVE",
"521 -16 CURVE SMOOTH"
);
},
{
closed = 1;
nodes = (
"484 146 OFFCURVE",
"398 156 OFFCURVE",
"343 176 CURVE",
"491 1331 LINE",
"530 1340 OFFCURVE",
"613 1350 OFFCURVE",
"662 1350 CURVE SMOOTH",
"857 1350 OFFCURVE",
"966 1294 OFFCURVE",
"1021 1158 CURVE SMOOTH",
"1048 1087 OFFCURVE",
"1061 994 OFFCURVE",
"1061 874 CURVE SMOOTH",
"1061 630 OFFCURVE",
"989 397 OFFCURVE",
"838 258 CURVE SMOOTH",
"763 188 OFFCURVE",
"669 151 OFFCURVE",
"559 148 CURVE SMOOTH"
);
}
);
width = 1352;
}
);
leftKerningGroup = H;
note = D;
rightKerningGroup = O;
unicode = 0044;
},
{
color = 7;
glyphname = Eth;
lastChange = "2019-04-06 02:49:35 +0000";
layers = (
{
components = (
{
name = D;
}
);
layerId = "9808B12E-936F-4588-BC0B-2F1DE3B33DAD";
paths = (
{
closed = 1;
nodes = (
"52 902 LINE",
"28 658 LINE",
"820 658 LINE",
"844 902 LINE"
);
}
);
userData = {
assembly = "PUSHB[ ]\011/* 6 values pushed */
38 1 8 2 1 74 
MPPEM[ ]\011/* MeasurePixelPerEm */
PUSHB[ ]\011/* 1 value pushed */
45 
LT[ ]\011/* LessThan */
IF[ ]\011/* If */
NPUSHB[ ]\011/* 34 values pushed */
6 1 3 7 1 2 8 3 2 97 0 5 5 4 89 9 1 4 4 17 75 10 1 8 8 0 91 1 1 0 0 26 0 76 
ELSE[ ]\011/* Else */
NPUSHB[ ]\011/* 38 values pushed */
6 1 3 7 1 2 8 3 2 97 0 5 5 4 89 9 1 4 4 17 75 0 1 1 18 75 10 1 8 8 0 91 0 0 0 26 0 76 
EIF[ ]\011/* EndIf */
NPUSHB[ ]\011/* 25 values pushed */
23 23 0 0 23 40 23 39 37 36 35 34 31 29 0 22 0 17 17 17 65 37 11 7 24 
CALL[ ]\011/* CallFunction */";
};
width = 1390;
},
{
components = (
{
name = D;
}
);
layerId = "A8DD961D-2AAA-4421-B000-699D061D5CAD";
paths = (
{
closed = 1;
nodes = (
"62 814 LINE",
"50 716 LINE",
"772 716 LINE",
"784 814 LINE"
);
}
);
userData = {
assembly = "PUSHB[ ]\011/* 6 values pushed */
37 1 8 2 1 74 
MPPEM[ ]\011/* MeasurePixelPerEm */
PUSHB[ ]\011/* 1 value pushed */
33 
LT[ ]\011/* LessThan */
IF[ ]\011/* If */
NPUSHB[ ]\011/* 33 values pushed */
6 1 3 7 1 2 8 3 2 97 0 5 5 4 89 0 4 4 17 75 9 1 8 8 0 91 1 1 0 0 26 0 76 
ELSE[ ]\011/* Else */
NPUSHB[ ]\011/* 37 values pushed */
6 1 3 7 1 2 8 3 2 97 0 5 5 4 89 0 4 4 17 75 0 1 1 18 75 9 1 8 8 0 91 0 0 0 26 0 76 
EIF[ ]\011/* EndIf */
NPUSHB[ ]\011/* 17 values pushed */
23 23 23 39 23 38 17 18 41 97 17 17 50 34 10 7 28 
CALL[ ]\011/* CallFunction */";
};
width = 1344;
},
{
components = (
{
alignment = -1;
name = D;
}
);
layerId = "FC25F90A-4039-49BA-9FA9-48428CE1BED8";
paths = (
{
closed = 1;
nodes = (
"55 844 LINE",
"40 698 LINE",
"772 698 LINE",
"789 844 LINE"
);
}
);
width = 1352;
}
);
leftKerningGroup = H;
note = Eth;
rightKerningGroup = O;
rightMetricsKey = D;
unicode = 00D0;
},
{
color = 7;
glyphname = E;
lastChange = "2019-04-06 02:49:35 +0000";
layers = (
{
anchors = (
{
name = bottom;
position = "{576, 0}";
},
{
name = ogonek;
position = "{988, 20}";
},
{
name = top;
position = "{748, 1494}";
},
{
name = topleft;
position = "{164, 1494}";
}
);
layerId = "9808B12E-936F-4588-BC0B-2F1DE3B33DAD";
paths = (
{
closed = 1;
nodes = (
"1036 0 LINE",
"1072 274 LINE",
"454 264 LINE",
"508 642 LINE",
"918 634 LINE",
"954 904 LINE",
"544 898 LINE",
"592 1228 LINE",
"1140 1226 LINE",
"1176 1494 LINE",
"284 1494 LINE",
"70 0 LINE"
);
}
);
userData = {
assembly = "NPUSHB[ ]\011/* 44 values pushed */
0 1 0 2 3 1 2 97 0 0 0 5 89 6 1 5 5 17 75 0 3 3 4 89 0 4 4 18 4 76 0 0 0 11 0 11 17 17 17 17 17 7 7 25 
CALL[ ]\011/* CallFunction */";
};
width = 1176;
},
{
anchors = (
{
name = bottom;
position = "{576, 0}";
},
{
name = ogonek;
position = "{930, 20}";
},
{
name = top;
position = "{696, 1494}";
},
{
name = topleft;
position = "{164, 1494}";
}
);
layerId = "A8DD961D-2AAA-4421-B000-699D061D5CAD";
paths = (
{
closed = 1;
nodes = (
"988 0 LINE",
"998 124 LINE",
"278 112 LINE",
"354 710 LINE",
"822 700 LINE",
"832 824 LINE",
"368 818 LINE",
"440 1384 LINE",
"1040 1376 LINE",
"1044 1494 LINE",
"306 1494 LINE",
"118 0 LINE"
);
}
);
userData = {
assembly = "NPUSHB[ ]\011/* 44 values pushed */
0 1 0 2 3 1 2 97 0 0 0 5 89 6 1 5 5 17 75 0 3 3 4 89 0 4 4 18 4 76 0 0 0 11 0 11 17 17 17 17 17 7 7 25 
CALL[ ]\011/* CallFunction */";
};
width = 1112;
},
{
anchors = (
{
name = bottom;
position = "{576, 0}";
},
{
name = ogonek;
position = "{940, 20}";
},
{
name = top;
position = "{703, 1494}";
},
{
name = topleft;
position = "{164, 1496}";
}
);
layerId = "FC25F90A-4039-49BA-9FA9-48428CE1BED8";
paths = (
{
closed = 1;
nodes = (
"996 0 LINE",
"1014 180 LINE",
"340 166 LINE",
"408 686 LINE",
"838 671 LINE",
"854 850 LINE",
"429 844 LINE",
"490 1329 LINE",
"1055 1322 LINE",
"1066 1494 LINE",
"294 1494 LINE",
"102 0 LINE"
);
}
);
width = 1122;
}
);
leftKerningGroup = H;
note = E;
rightKerningGroup = E;
unicode = 0045;
},
{
color = 7;
glyphname = Ezh;
lastChange = "2019-04-06 02:49:35 +0000";
layers = (
{
anchors = (
{
name = top;
position = "{634, 1494}";
}
);
layerId = "9808B12E-936F-4588-BC0B-2F1DE3B33DAD";
paths = (
{
closed = 1;
nodes = (
"652 -14 OFFCURVE",
"1028 158 OFFCURVE",
"1028 530 CURVE SMOOTH",
"1028 666 OFFCURVE",
"944 802 OFFCURVE",
"676 828 CURVE",
"1072 1158 LINE",
"1118 1496 LINE",
"230 1494 LINE",
"190 1226 LINE",
"770 1230 LINE",
"648 1146 LINE",
"370 894 LINE",
"336 636 LINE",
"438 668 LINE",
"576 668 OFFCURVE",
"676 622 OFFCURVE",
"676 492 CURVE SMOOTH",
"676 376 OFFCURVE",
"580 240 OFFCURVE",
"290 240 CURVE SMOOTH",
"248 240 OFFCURVE",
"126 250 OFFCURVE",
"70 260 CURVE",
"38 8 LINE",
"108 -2 OFFCURVE",
"222 -14 OFFCURVE",
"276 -14 CURVE SMOOTH"
);
}
);
width = 1072;
},
{
anchors = (
{
name = top;
position = "{674, 1494}";
}
);
background = {
components = (
{
name = three;
transform = "{1, 0, 0, 1, -10, 0}";
}
);
};
layerId = "A8DD961D-2AAA-4421-B000-699D061D5CAD";
paths = (
{
closed = 1;
nodes = (
"752 -8 OFFCURVE",
"960 216 OFFCURVE",
"960 498 CURVE SMOOTH",
"960 696 OFFCURVE",
"764 876 OFFCURVE",
"516 852 CURVE",
"1038 1340 LINE",
"1064 1496 LINE",
"218 1494 LINE",
"202 1376 LINE",
"930 1384 LINE",
"790 1274 LINE",
"310 812 LINE",
"294 666 LINE",
"422 756 LINE",
"668 778 OFFCURVE",
"816 654 OFFCURVE",
"816 472 CURVE SMOOTH",
"816 298 OFFCURVE",
"652 100 OFFCURVE",
"326 100 CURVE SMOOTH",
"244 100 OFFCURVE",
"156 104 OFFCURVE",
"100 116 CURVE",
"84 10 LINE",
"154 -6 OFFCURVE",
"214 -16 OFFCURVE",
"332 -14 CURVE SMOOTH"
);
}
);
width = 1016;
},
{
anchors = (
{
name = top;
position = "{664, 1494}";
}
);
layerId = "FC25F90A-4039-49BA-9FA9-48428CE1BED8";
paths = (
{
closed = 1;
nodes = (
"685 -14 OFFCURVE",
"966 198 OFFCURVE",
"966 500 CURVE SMOOTH",
"966 654 OFFCURVE",
"890 828 OFFCURVE",
"580 842 CURVE",
"1028 1268 LINE",
"1061 1496 LINE",
"195 1494 LINE",
"173 1322 LINE",
"850 1322 LINE",
"650 1144 LINE",
"344 846 LINE",
"324 670 LINE",
"434 726 LINE",
"582 732 OFFCURVE",
"760 672 OFFCURVE",
"760 492 CURVE SMOOTH",
"760 290 OFFCURVE",
"520 158 OFFCURVE",
"242 158 CURVE SMOOTH",
"188 158 OFFCURVE",
"118 164 OFFCURVE",
"62 170 CURVE",
"43 -2 LINE",
"113 -8 OFFCURVE",
"173 -14 OFFCURVE",
"239 -14 CURVE SMOOTH"
);
}
);
width = 1027;
}
);
leftKerningGroup = Ezh;
rightKerningGroup = Ezh;
unicode = 01B7;
},
{
color = 7;
glyphname = F;
lastChange = "2019-04-06 02:49:35 +0000";
layers = (
{
anchors = (
{
name = bottom;
position = "{454, 0}";
},
{
name = top;
position = "{694, 1494}";
}
);
layerId = "9808B12E-936F-4588-BC0B-2F1DE3B33DAD";
paths = (
{
closed = 1;
nodes = (
"416 0 LINE",
"500 594 LINE",
"922 588 LINE",
"958 872 LINE",
"540 866 LINE",
"592 1230 LINE",
"1080 1226 LINE",
"1122 1494 LINE",
"284 1494 LINE",
"70 0 LINE"
);
}
);
userData = {
assembly = "NPUSHB[ ]\011/* 38 values pushed */
0 1 0 2 3 1 2 97 0 0 0 4 89 5 1 4 4 17 75 0 3 3 18 3 76 0 0 0 9 0 9 17 17 17 17 6 7 24 
CALL[ ]\011/* CallFunction */";
};
width = 1054;
},
{
anchors = (
{
name = bottom;
position = "{442, 0}";
},
{
name = top;
position = "{640, 1494}";
}
);
layerId = "A8DD961D-2AAA-4421-B000-699D061D5CAD";
paths = (
{
closed = 1;
nodes = (
"264 0 LINE",
"354 708 LINE",
"854 696 LINE",
"864 824 LINE",
"368 816 LINE",
"440 1384 LINE",
"1056 1376 LINE",
"1068 1494 LINE",
"306 1494 LINE",
"118 0 LINE"
);
}
);
userData = {
assembly = "NPUSHB[ ]\011/* 38 values pushed */
0 1 0 2 3 1 2 97 0 0 0 4 89 5 1 4 4 17 75 0 3 3 18 3 76 0 0 0 9 0 9 17 17 17 17 6 7 24 
CALL[ ]\011/* CallFunction */";
};
width = 1032;
},
{
anchors = (
{
name = bottom;
position = "{444, 0}";
},
{
name = top;
position = "{658, 1496}";
}
);
layerId = "FC25F90A-4039-49BA-9FA9-48428CE1BED8";
paths = (
{
closed = 1;
nodes = (
"319 0 LINE",
"407 678 LINE",
"865 663 LINE",
"881 847 LINE",
"428 839 LINE",
"490 1329 LINE",
"1059 1322 LINE",
"1076 1494 LINE",
"294 1494 LINE",
"102 0 LINE"
);
}
);
width = 1036;
}
);
leftKerningGroup = H;
note = F;
rightKerningGroup = F;
unicode = 0046;
},
{
color = 7;
glyphname = G;
lastChange = "2019-04-06 02:49:35 +0000";
layers = (
{
anchors = (
{
name = bottom;
position = "{624, 0}";
},
{
name = top;
position = "{822, 1494}";
}
);
layerId = "9808B12E-936F-4588-BC0B-2F1DE3B33DAD";
paths = (
{
closed = 1;
nodes = (
"820 -16 OFFCURVE",
"942 14 OFFCURVE",
"1092 54 CURVE SMOOTH",
"1134 66 OFFCURVE",
"1170 74 OFFCURVE",
"1200 78 CURVE",
"1304 830 LINE",
"742 830 LINE",
"708 556 LINE",
"952 556 LINE",
"908 276 LINE",
"862 252 OFFCURVE",
"774 244 OFFCURVE",
"712 244 CURVE SMOOTH",
"520 244 OFFCURVE",
"422 370 OFFCURVE",
"422 610 CURVE SMOOTH",
"422 812 OFFCURVE",
"474 1012 OFFCURVE",
"604 1136 CURVE SMOOTH",
"670 1198 OFFCURVE",
"754 1228 OFFCURVE",
"856 1228 CURVE SMOOTH",
"982 1228 OFFCURVE",
"1182 1156 OFFCURVE",
"1244 1108 CURVE",
"1316 1422 LINE",
"1102 1496 OFFCURVE",
"1048 1510 OFFCURVE",
"864 1510 CURVE SMOOTH",
"570 1510 OFFCURVE",
"318 1348 OFFCURVE",
"178 1070 CURVE SMOOTH",
"108 930 OFFCURVE",
"72 770 OFFCURVE",
"72 592 CURVE SMOOTH",
"72 382 OFFCURVE",
"144 188 OFFCURVE",
"320 72 CURVE SMOOTH",
"408 14 OFFCURVE",
"522 -16 OFFCURVE",
"662 -16 CURVE SMOOTH"
);
}
);
userData = {
assembly = "NPUSHB[ ]\011/* 48 values pushed */
19 1 3 2 20 1 0 3 2 74 0 0 0 5 4 0 5 97 0 3 3 2 91 0 2 2 25 75 0 4 4 1 91 0 1 1 26 1 76 19 37 39 38 37 16 6 7 26 
CALL[ ]\011/* CallFunction */";
};
width = 1394;
},
{
anchors = (
{
name = bottom;
position = "{580, 0}";
},
{
name = top;
position = "{778, 1494}";
}
);
layerId = "A8DD961D-2AAA-4421-B000-699D061D5CAD";
paths = (
{
closed = 1;
nodes = (
"724 -16 OFFCURVE",
"824 10 OFFCURVE",
"958 50 CURVE SMOOTH",
"1048 76 OFFCURVE",
"1082 86 OFFCURVE",
"1124 92 CURVE",
"1204 712 LINE",
"784 712 LINE",
"768 594 LINE",
"1042 592 LINE",
"992 182 LINE",
"864 134 OFFCURVE",
"732 98 OFFCURVE",
"628 98 CURVE SMOOTH",
"370 98 OFFCURVE",
"258 350 OFFCURVE",
"258 640 CURVE SMOOTH",
"258 890 OFFCURVE",
"346 1136 OFFCURVE",
"516 1282 CURVE SMOOTH",
"602 1354 OFFCURVE",
"704 1390 OFFCURVE",
"824 1390 CURVE SMOOTH",
"982 1390 OFFCURVE",
"1098 1352 OFFCURVE",
"1170 1310 CURVE",
"1218 1444 LINE",
"1068 1492 OFFCURVE",
"974 1510 OFFCURVE",
"826 1510 CURVE SMOOTH",
"556 1510 OFFCURVE",
"324 1352 OFFCURVE",
"198 1080 CURVE SMOOTH",
"136 942 OFFCURVE",
"106 786 OFFCURVE",
"110 612 CURVE SMOOTH",
"112 396 OFFCURVE",
"180 194 OFFCURVE",
"326 74 CURVE SMOOTH",
"400 14 OFFCURVE",
"492 -16 OFFCURVE",
"602 -16 CURVE SMOOTH"
);
}
);
userData = {
assembly = "NPUSHB[ ]\011/* 48 values pushed */
21 1 3 2 22 1 0 3 2 74 0 0 0 5 4 0 5 97 0 3 3 2 91 0 2 2 25 75 0 4 4 1 91 0 1 1 26 1 76 19 38 38 38 39 16 6 7 26 
CALL[ ]\011/* CallFunction */";
};
width = 1308;
},
{
anchors = (
{
name = bottom;
position = "{587, 0}";
},
{
name = top;
position = "{785, 1496}";
}
);
layerId = "FC25F90A-4039-49BA-9FA9-48428CE1BED8";
paths = (
{
closed = 1;
nodes = (
"734 -16 OFFCURVE",
"856 14 OFFCURVE",
"986 54 CURVE SMOOTH",
"1060 75 OFFCURVE",
"1095 85 OFFCURVE",
"1133 89 CURVE",
"1217 732 LINE",
"777 732 LINE",
"755 556 LINE",
"984 556 LINE",
"940 219 LINE",
"847 176 OFFCURVE",
"730 154 OFFCURVE",
"642 154 CURVE SMOOTH",
"417 154 OFFCURVE",
"322 373 OFFCURVE",
"322 642 CURVE SMOOTH",
"322 858 OFFCURVE",
"390 1086 OFFCURVE",
"542 1228 CURVE SMOOTH",
"618 1299 OFFCURVE",
"712 1334 OFFCURVE",
"827 1334 CURVE SMOOTH",
"971 1334 OFFCURVE",
"1112 1286 OFFCURVE",
"1169 1244 CURVE",
"1231 1441 LINE",
"1069 1493 OFFCURVE",
"983 1510 OFFCURVE",
"832 1510 CURVE SMOOTH",
"557 1510 OFFCURVE",
"321 1351 OFFCURVE",
"193 1078 CURVE SMOOTH",
"129 940 OFFCURVE",
"99 784 OFFCURVE",
"101 609 CURVE SMOOTH",
"105 393 OFFCURVE",
"171 193 OFFCURVE",
"322 74 CURVE SMOOTH",
"397 14 OFFCURVE",
"491 -16 OFFCURVE",
"605 -16 CURVE SMOOTH"
);
}
);
width = 1322;
}
);
leftKerningGroup = O;
note = G;
rightKerningGroup = G;
unicode = 0047;
},
{
color = 7;
glyphname = H;
lastChange = "2019-04-06 02:49:35 +0000";
layers = (
{
anchors = (
{
name = bottom;
position = "{648, 0}";
},
{
name = top;
position = "{842, 1494}";
}
);
layerId = "9808B12E-936F-4588-BC0B-2F1DE3B33DAD";
paths = (
{
closed = 1;
nodes = (
"404 0 LINE",
"492 608 LINE",
"962 608 LINE",
"876 0 LINE",
"1224 0 LINE",
"1438 1494 LINE",
"1088 1494 LINE",
"996 846 LINE",
"526 846 LINE",
"618 1494 LINE",
"272 1494 LINE",
"58 0 LINE"
);
}
);
userData = {
assembly = "NPUSHB[ ]\011/* 36 values pushed */
0 4 0 1 0 4 1 98 6 5 2 3 3 17 75 2 1 0 0 18 0 76 0 0 0 11 0 11 17 17 17 17 17 7 7 25 
CALL[ ]\011/* CallFunction */";
};
width = 1464;
},
{
anchors = (
{
name = bottom;
position = "{616, 0}";
},
{
name = top;
position = "{816, 1494}";
}
);
layerId = "A8DD961D-2AAA-4421-B000-699D061D5CAD";
paths = (
{
closed = 1;
nodes = (
"264 0 LINE",
"352 698 LINE",
"1062 698 LINE",
"974 0 LINE",
"1122 0 LINE",
"1308 1494 LINE",
"1162 1494 LINE",
"1076 810 LINE",
"368 810 LINE",
"454 1494 LINE",
"306 1494 LINE",
"118 0 LINE"
);
}
);
userData = {
assembly = "NPUSHB[ ]\011/* 36 values pushed */
0 4 0 1 0 4 1 98 6 5 2 3 3 17 75 2 1 0 0 18 0 76 0 0 0 11 0 11 17 17 17 17 17 7 7 25 
CALL[ ]\011/* CallFunction */";
};
width = 1376;
},
{
anchors = (
{
name = bottom;
position = "{623, 0}";
},
{
name = top;
position = "{819, 1494}";
}
);
layerId = "FC25F90A-4039-49BA-9FA9-48428CE1BED8";
paths = (
{
closed = 1;
nodes = (
"317 0 LINE",
"404 666 LINE",
"1014 666 LINE",
"928 0 LINE",
"1147 0 LINE",
"1340 1494 LINE",
"1120 1494 LINE",
"1035 827 LINE",
"424 827 LINE",
"511 1494 LINE",
"292 1494 LINE",
"100 0 LINE"
);
}
);
width = 1390;
}
);
leftKerningGroup = H;
note = H;
rightKerningGroup = H;
unicode = 0048;
},
{
color = 7;
glyphname = Hbar;
lastChange = "2019-04-06 02:49:35 +0000";
layers = (
{
layerId = "9808B12E-936F-4588-BC0B-2F1DE3B33DAD";
paths = (
{
closed = 1;
nodes = (
"428 0 LINE",
"490 430 LINE",
"960 430 LINE",
"898 0 LINE",
"1248 0 LINE",
"1376 896 LINE",
"1576 896 LINE",
"1600 1140 LINE",
"1412 1140 LINE",
"1462 1494 LINE",
"1112 1494 LINE",
"1062 1140 LINE",
"590 1140 LINE",
"642 1494 LINE",
"296 1494 LINE",
"246 1140 LINE",
"24 1140 LINE",
"0 896 LINE",
"210 896 LINE",
"82 0 LINE"
);
},
{
closed = 1;
nodes = (
"556 896 LINE",
"1026 896 LINE",
"996 676 LINE",
"524 676 LINE"
);
}
);
userData = {
assembly = "MPPEM[ ]\011/* MeasurePixelPerEm */
PUSHB[ ]\011/* 1 value pushed */
37 
LT[ ]\011/* LessThan */
IF[ ]\011/* If */
NPUSHB[ ]\011/* 35 values pushed */
0 11 0 2 1 11 2 97 8 1 6 6 17 75 10 4 2 0 0 5 89 9 7 2 5 5 20 75 3 1 1 1 18 1 76 
ELSE[ ]\011/* Else */
NPUSHB[ ]\011/* 33 values pushed */
9 7 2 5 10 4 2 0 11 5 0 98 0 11 0 2 1 11 2 97 8 1 6 6 17 75 3 1 1 1 18 1 76 
EIF[ ]\011/* EndIf */
NPUSHB[ ]\011/* 18 values pushed */
23 22 21 20 19 18 17 17 17 17 17 17 17 17 16 12 7 29 
CALL[ ]\011/* CallFunction */";
};
width = 1476;
},
{
layerId = "A8DD961D-2AAA-4421-B000-699D061D5CAD";
paths = (
{
closed = 1;
nodes = (
"264 0 LINE",
"340 596 LINE",
"1048 596 LINE",
"974 0 LINE",
"1122 0 LINE",
"1248 1012 LINE",
"1470 1012 LINE",
"1480 1124 LINE",
"1262 1124 LINE",
"1308 1494 LINE",
"1162 1494 LINE",
"1116 1124 LINE",
"406 1124 LINE",
"454 1494 LINE",
"306 1494 LINE",
"260 1124 LINE",
"66 1124 LINE",
"54 1012 LINE",
"246 1012 LINE",
"118 0 LINE"
);
},
{
closed = 1;
nodes = (
"392 1012 LINE",
"1102 1012 LINE",
"1062 708 LINE",
"354 708 LINE"
);
}
);
userData = {
assembly = "NPUSHB[ ]\011/* 53 values pushed */
0 11 0 2 1 11 2 97 8 1 6 6 17 75 10 4 2 0 0 5 89 9 7 2 5 5 20 75 3 1 1 1 18 1 76 23 22 21 20 19 18 17 17 17 17 17 17 17 17 16 12 7 29 
CALL[ ]\011/* CallFunction */";
};
width = 1376;
},
{
layerId = "FC25F90A-4039-49BA-9FA9-48428CE1BED8";
paths = (
{
closed = 1;
nodes = (
"321 0 LINE",
"393 554 LINE",
"1004 554 LINE",
"932 0 LINE",
"1151 0 LINE",
"1274 962 LINE",
"1484 962 LINE",
"1500 1125 LINE",
"1296 1125 LINE",
"1343 1494 LINE",
"1124 1494 LINE",
"1077 1125 LINE",
"466 1125 LINE",
"515 1494 LINE",
"296 1494 LINE",
"249 1125 LINE",
"58 1125 LINE",
"42 962 LINE",
"227 962 LINE",
"103 0 LINE"
);
},
{
closed = 1;
nodes = (
"445 962 LINE",
"1056 962 LINE",
"1025 716 LINE",
"413 716 LINE"
);
}
);
width = 1392;
}
);
leftKerningGroup = H;
note = Hbar;
rightKerningGroup = H;
unicode = 0126;
},
{
color = 7;
glyphname = I;
lastChange = "2019-04-06 02:49:35 +0000";
layers = (
{
anchors = (
{
name = bottom;
position = "{272, 0}";
},
{
name = ogonek;
position = "{552, 20}";
},
{
name = top;
position = "{478, 1494}";
},
{
name = topleft;
position = "{164, 1494}";
}
);
layerId = "9808B12E-936F-4588-BC0B-2F1DE3B33DAD";
paths = (
{
closed = 1;
nodes = (
"442 0 LINE",
"656 1494 LINE",
"310 1494 LINE",
"96 0 LINE"
);
}
);
userData = {
assembly = "NPUSHB[ ]\011/* 22 values pushed */
2 1 1 1 17 75 0 0 0 18 0 76 0 0 0 3 0 3 17 3 7 21 
CALL[ ]\011/* CallFunction */";
};
width = 690;
},
{
anchors = (
{
name = bottom;
position = "{206, 0}";
},
{
name = ogonek;
position = "{432, 20}";
},
{
name = top;
position = "{408, 1494}";
},
{
name = topleft;
position = "{164, 1494}";
}
);
layerId = "A8DD961D-2AAA-4421-B000-699D061D5CAD";
paths = (
{
closed = 1;
nodes = (
"290 0 LINE",
"478 1494 LINE",
"330 1494 LINE",
"142 0 LINE"
);
}
);
userData = {
assembly = "NPUSHB[ ]\011/* 22 values pushed */
2 1 1 1 17 75 0 0 0 18 0 76 0 0 0 3 0 3 17 3 7 21 
CALL[ ]\011/* CallFunction */";
};
width = 558;
},
{
anchors = (
{
name = bottom;
position = "{220, 0}";
},
{
name = ogonek;
position = "{458, 20}";
},
{
name = top;
position = "{424, 1494}";
},
{
name = topleft;
position = "{164, 1496}";
}
);
layerId = "FC25F90A-4039-49BA-9FA9-48428CE1BED8";
paths = (
{
closed = 1;
nodes = (
"338 0 LINE",
"531 1494 LINE",
"312 1494 LINE",
"119 0 LINE"
);
}
);
width = 586;
}
);
leftKerningGroup = H;
note = I;
rightKerningGroup = H;
unicode = 0049;
},
{
color = 7;
glyphname = J;
lastChange = "2019-04-06 02:49:35 +0000";
layers = (
{
anchors = (
{
name = bottom;
position = "{266, 0}";
},
{
name = top;
position = "{504, 1494}";
}
);
layerId = "9808B12E-936F-4588-BC0B-2F1DE3B33DAD";
paths = (
{
closed = 1;
nodes = (
"138 -348 OFFCURVE",
"362 -232 OFFCURVE",
"440 74 CURVE SMOOTH",
"446 100 OFFCURVE",
"458 160 OFFCURVE",
"472 254 CURVE SMOOTH",
"652 1494 LINE",
"304 1494 LINE",
"264 1222 OFFCURVE",
"176 446 OFFCURVE",
"100 84 CURVE SMOOTH",
"80 -30 OFFCURVE",
"-58 -204 OFFCURVE",
"-176 -234 CURVE",
"-132 -348 LINE"
);
}
);
userData = {
assembly = "NPUSHB[ ]\011/* 22 values pushed */
0 0 1 0 115 2 1 1 1 17 1 76 0 0 0 19 0 19 24 3 7 21 
CALL[ ]\011/* CallFunction */";
};
width = 680;
},
{
anchors = (
{
name = bottom;
position = "{212, 0}";
},
{
name = top;
position = "{430, 1494}";
}
);
layerId = "A8DD961D-2AAA-4421-B000-699D061D5CAD";
paths = (
{
closed = 1;
nodes = (
"100 -272 OFFCURVE",
"234 -156 OFFCURVE",
"302 74 CURVE SMOOTH",
"316 120 OFFCURVE",
"342 286 OFFCURVE",
"380 572 CURVE SMOOTH",
"490 1494 LINE",
"342 1494 LINE",
"236 524 OFFCURVE",
"210 314 OFFCURVE",
"160 84 CURVE SMOOTH",
"128 -72 OFFCURVE",
"4 -202 OFFCURVE",
"-166 -250 CURVE",
"-138 -316 LINE"
);
}
);
userData = {
assembly = "NPUSHB[ ]\011/* 20 values pushed */
8 1 0 71 1 1 0 0 17 0 76 0 0 0 16 0 16 2 7 20 
CALL[ ]\011/* CallFunction */";
};
width = 570;
},
{
anchors = (
{
name = bottom;
position = "{220, 0}";
},
{
name = top;
position = "{448, 1496}";
}
);
layerId = "FC25F90A-4039-49BA-9FA9-48428CE1BED8";
paths = (
{
closed = 1;
nodes = (
"105 -283 OFFCURVE",
"261 -174 OFFCURVE",
"336 74 CURVE SMOOTH",
"350 119 OFFCURVE",
"379 276 OFFCURVE",
"413 548 CURVE SMOOTH",
"528 1494 LINE",
"311 1494 LINE",
"223 818 OFFCURVE",
"210 475 OFFCURVE",
"123 84 CURVE SMOOTH",
"101 -27 OFFCURVE",
"-57 -191 OFFCURVE",
"-167 -224 CURVE",
"-132 -315 LINE"
);
}
);
width = 587;
}
);
leftKerningGroup = J;
note = J;
rightKerningGroup = J;
unicode = 004A;
},
{
color = 7;
glyphname = K;
lastChange = "2019-04-06 02:49:35 +0000";
layers = (
{
anchors = (
{
name = bottom;
position = "{648, 0}";
},
{
name = top;
position = "{766, 1494}";
}
);
background = {
components = (
{
name = H;
}
);
};
layerId = "9808B12E-936F-4588-BC0B-2F1DE3B33DAD";
paths = (
{
closed = 1;
nodes = (
"394 0 LINE",
"454 416 LINE",
"614 584 LINE",
"738 298 LINE SMOOTH",
"816 118 OFFCURVE",
"862 18 OFFCURVE",
"874 0 CURVE",
"1280 0 LINE",
"1228 82 OFFCURVE",
"1166 192 OFFCURVE",
"1096 334 CURVE SMOOTH",
"944 638 OFFCURVE",
"880 766 OFFCURVE",
"842 836 CURVE",
"1434 1494 LINE",
"1038 1494 LINE",
"512 840 LINE",
"608 1494 LINE",
"272 1494 LINE",
"58 0 LINE"
);
}
);
userData = {
assembly = "NPUSHB[ ]\011/* 28 values pushed */
17 14 8 3 0 2 1 74 3 1 2 2 17 75 1 1 0 0 18 0 76 18 17 21 20 4 7 24 
CALL[ ]\011/* CallFunction */";
};
width = 1294;
},
{
anchors = (
{
name = bottom;
position = "{594, 0}";
},
{
name = top;
position = "{732, 1494}";
}
);
background = {
components = (
{
name = H;
}
);
};
layerId = "A8DD961D-2AAA-4421-B000-699D061D5CAD";
paths = (
{
closed = 1;
nodes = (
"258 0 LINE",
"322 492 LINE",
"550 738 LINE",
"728 414 LINE SMOOTH",
"812 262 OFFCURVE",
"946 16 OFFCURVE",
"958 0 CURVE",
"1136 0 LINE",
"1088 66 OFFCURVE",
"1048 134 OFFCURVE",
"882 428 CURVE SMOOTH",
"766 632 OFFCURVE",
"694 754 OFFCURVE",
"646 834 CURVE",
"1252 1494 LINE",
"1080 1494 LINE",
"348 692 LINE",
"448 1494 LINE",
"306 1494 LINE",
"118 0 LINE"
);
}
);
userData = {
assembly = "NPUSHB[ ]\011/* 29 values pushed */
24 21 15 1 4 0 2 1 74 3 1 2 2 17 75 1 1 0 0 18 0 76 18 17 25 23 4 7 24 
CALL[ ]\011/* CallFunction */";
};
width = 1216;
},
{
anchors = (
{
name = bottom;
position = "{616, 0}";
},
{
name = top;
position = "{738, 1496}";
}
);
background = {
components = (
{
name = H;
}
);
};
layerId = "FC25F90A-4039-49BA-9FA9-48428CE1BED8";
paths = (
{
closed = 1;
nodes = (
"308 0 LINE",
"370 468 LINE",
"564 676 LINE",
"746 326 LINE",
"790 236 OFFCURVE",
"902 22 OFFCURVE",
"918 0 CURVE",
"1180 0 LINE",
"1122 88 OFFCURVE",
"1026 254 OFFCURVE",
"950 392 CURVE SMOOTH",
"788 684 OFFCURVE",
"782 708 OFFCURVE",
"710 830 CURVE",
"1302 1494 LINE",
"1048 1494 LINE",
"406 756 LINE",
"502 1494 LINE",
"292 1494 LINE",
"100 0 LINE"
);
}
);
width = 1228;
}
);
leftKerningGroup = H;
leftMetricsKey = H;
note = K;
rightKerningGroup = K;
unicode = 004B;
},
{
color = 7;
glyphname = L;
lastChange = "2019-04-06 02:49:35 +0000";
layers = (
{
anchors = (
{
name = bottom;
position = "{508, 0}";
},
{
name = center;
position = "{548, 748}";
},
{
name = top;
position = "{470, 1494}";
},
{
name = topright;
position = "{1126, 1494}";
}
);
layerId = "9808B12E-936F-4588-BC0B-2F1DE3B33DAD";
paths = (
{
closed = 1;
nodes = (
"898 0 LINE",
"940 282 LINE",
"454 270 LINE",
"630 1494 LINE",
"284 1494 LINE",
"70 0 LINE"
);
}
);
userData = {
assembly = "NPUSHB[ ]\011/* 28 values pushed */
3 1 2 2 17 75 0 0 0 1 90 0 1 1 18 1 76 0 0 0 5 0 5 17 17 4 7 22 
CALL[ ]\011/* CallFunction */";
};
width = 1036;
},
{
anchors = (
{
name = bottom;
position = "{484, 0}";
},
{
name = center;
position = "{504, 748}";
},
{
name = top;
position = "{386, 1494}";
},
{
name = topright;
position = "{1040, 1494}";
}
);
layerId = "A8DD961D-2AAA-4421-B000-699D061D5CAD";
paths = (
{
closed = 1;
nodes = (
"844 0 LINE",
"860 126 LINE",
"280 124 LINE",
"454 1494 LINE",
"306 1494 LINE",
"118 0 LINE"
);
}
);
userData = {
assembly = "NPUSHB[ ]\011/* 28 values pushed */
3 1 2 2 17 75 0 0 0 1 89 0 1 1 18 1 76 0 0 0 5 0 5 17 17 4 7 22 
CALL[ ]\011/* CallFunction */";
};
width = 956;
},
{
anchors = (
{
name = bottom;
position = "{512, 0}";
},
{
name = center;
position = "{511, 749}";
},
{
name = top;
position = "{408, 1496}";
},
{
name = topright;
position = "{1054, 1496}";
}
);
layerId = "FC25F90A-4039-49BA-9FA9-48428CE1BED8";
paths = (
{
closed = 1;
nodes = (
"863 0 LINE",
"888 185 LINE",
"343 180 LINE",
"513 1494 LINE",
"294 1494 LINE",
"102 0 LINE"
);
}
);
width = 970;
}
);
leftKerningGroup = H;
note = L;
rightKerningGroup = L;
unicode = 004C;
},
{
glyphname = Lcaron;
lastChange = "2019-04-06 02:49:35 +0000";
layers = (
{
components = (
{
alignment = -1;
name = L;
}
);
layerId = "9808B12E-936F-4588-BC0B-2F1DE3B33DAD";
paths = (
{
closed = 1;
nodes = (
"1064 958 OFFCURVE",
"1118 1146 OFFCURVE",
"1118 1308 CURVE SMOOTH",
"1118 1390 OFFCURVE",
"1104 1468 OFFCURVE",
"1080 1492 CURVE",
"856 1446 LINE",
"838 1404 LINE",
"854 1382 OFFCURVE",
"862 1316 OFFCURVE",
"862 1208 CURVE SMOOTH",
"862 1098 OFFCURVE",
"846 978 OFFCURVE",
"822 914 CURVE",
"828 890 LINE",
"974 862 LINE"
);
}
);
width = 1054;
},
{
components = (
{
alignment = -1;
name = L;
}
);
layerId = "A8DD961D-2AAA-4421-B000-699D061D5CAD";
paths = (
{
closed = 1;
nodes = (
"924 1050 OFFCURVE",
"974 1216 OFFCURVE",
"980 1354 CURVE SMOOTH",
"980 1434 OFFCURVE",
"980 1518 OFFCURVE",
"952 1578 CURVE",
"822 1544 LINE",
"816 1520 LINE",
"832 1494 OFFCURVE",
"844 1430 OFFCURVE",
"844 1352 CURVE SMOOTH",
"844 1246 OFFCURVE",
"820 1130 OFFCURVE",
"774 1000 CURVE",
"778 980 LINE",
"854 952 LINE"
);
}
);
width = 956;
},
{
components = (
{
alignment = -1;
name = L;
}
);
layerId = "FC25F90A-4039-49BA-9FA9-48428CE1BED8";
paths = (
{
closed = 1;
nodes = (
"957 1083 OFFCURVE",
"1005 1258 OFFCURVE",
"1005 1393 CURVE SMOOTH",
"1005 1497 OFFCURVE",
"997 1565 OFFCURVE",
"975 1611 CURVE",
"793 1566 LINE",
"783 1533 LINE",
"801 1504 OFFCURVE",
"812 1424 OFFCURVE",
"812 1345 CURVE SMOOTH",
"812 1251 OFFCURVE",
"797 1146 OFFCURVE",
"772 1043 CURVE",
"778 1018 LINE",
"884 981 LINE"
);
}
);
width = 972;
}
);
leftKerningGroup = H;
leftMetricsKey = L;
note = Lcaron;
rightKerningGroup = L;
unicode = 013D;
},
{
color = 7;
glyphname = Lslash;
lastChange = "2019-04-06 02:49:35 +0000";
layers = (
{
components = (
{
name = L;
}
);
layerId = "9808B12E-936F-4588-BC0B-2F1DE3B33DAD";
paths = (
{
closed = 1;
nodes = (
"510 764 LINE",
"986 926 LINE",
"932 1116 LINE",
"540 978 LINE",
"208 864 LINE",
"-22 786 LINE",
"34 606 LINE",
"178 652 LINE"
);
}
);
userData = {
assembly = "NPUSHB[ ]\011/* 33 values pushed */
12 11 10 6 5 4 6 0 2 1 74 0 2 2 17 75 0 0 0 1 90 0 1 1 18 1 76 21 17 16 3 7 23 
CALL[ ]\011/* CallFunction */";
};
width = 1054;
},
{
components = (
{
name = L;
}
);
layerId = "A8DD961D-2AAA-4421-B000-699D061D5CAD";
paths = (
{
closed = 1;
nodes = (
"352 812 LINE",
"828 1018 LINE",
"802 1114 LINE",
"366 922 LINE",
"238 868 LINE",
"4 766 LINE",
"32 678 LINE",
"224 760 LINE"
);
}
);
userData = {
assembly = "NPUSHB[ ]\011/* 37 values pushed */
10 9 4 3 4 2 1 1 74 0 1 1 17 75 3 1 2 2 0 89 0 0 0 18 0 76 0 0 0 13 0 13 21 17 4 7 22 
CALL[ ]\011/* CallFunction */";
};
width = 956;
},
{
components = (
{
name = L;
}
);
layerId = "FC25F90A-4039-49BA-9FA9-48428CE1BED8";
paths = (
{
closed = 1;
nodes = (
"406 804 LINE",
"840 984 LINE",
"802 1120 LINE",
"426 958 LINE",
"226 868 LINE",
"-24 762 LINE",
"14 636 LINE",
"206 716 LINE"
);
}
);
width = 972;
}
);
leftKerningGroup = H;
note = Lslash;
rightKerningGroup = L;
unicode = 0141;
},
{
color = 7;
glyphname = M;
lastChange = "2019-04-06 02:49:35 +0000";
layers = (
{
anchors = (
{
name = bottom;
position = "{898, 0}";
},
{
name = top;
position = "{1096, 1494}";
}
);
layerId = "9808B12E-936F-4588-BC0B-2F1DE3B33DAD";
paths = (
{
closed = 1;
nodes = (
"1098 -2 LINE",
"1526 1112 LINE",
"1598 1340 LINE",
"1572 1112 LINE",
"1484 0 LINE",
"1830 0 LINE",
"1852 1494 LINE",
"1348 1494 LINE",
"1000 466 LINE",
"954 246 LINE",
"948 466 LINE",
"882 1494 LINE",
"378 1494 LINE",
"-30 0 LINE",
"310 0 LINE",
"552 1112 LINE",
"600 1340 LINE",
"602 1112 LINE",
"718 -18 LINE"
);
}
);
userData = {
assembly = "NPUSHB[ ]\011/* 9 values pushed */
14 13 9 2 4 1 0 1 74 
MPPEM[ ]\011/* MeasurePixelPerEm */
PUSHB[ ]\011/* 1 value pushed */
45 
LT[ ]\011/* LessThan */
IF[ ]\011/* If */
NPUSHB[ ]\011/* 15 values pushed */
5 4 2 0 0 17 75 3 2 2 1 1 18 1 76 
ELSE[ ]\011/* Else */
NPUSHB[ ]\011/* 19 values pushed */
5 4 2 0 0 17 75 3 1 1 1 18 75 0 2 2 18 2 76 
EIF[ ]\011/* EndIf */
NPUSHB[ ]\011/* 13 values pushed */
0 0 0 18 0 18 20 20 17 20 6 7 24 
CALL[ ]\011/* CallFunction */";
};
width = 1942;
},
{
anchors = (
{
name = bottom;
position = "{802, 0}";
},
{
name = top;
position = "{1000, 1494}";
}
);
layerId = "A8DD961D-2AAA-4421-B000-699D061D5CAD";
paths = (
{
closed = 1;
nodes = (
"852 -4 LINE",
"1306 1044 LINE",
"1460 1398 LINE",
"1438 998 LINE",
"1390 0 LINE",
"1540 0 LINE",
"1582 1494 LINE",
"1370 1494 LINE",
"920 450 LINE",
"830 220 LINE",
"800 452 LINE",
"630 1494 LINE",
"442 1494 LINE",
"70 0 LINE",
"220 0 LINE",
"458 1012 LINE",
"532 1398 LINE",
"582 1020 LINE",
"748 -18 LINE"
);
}
);
userData = {
assembly = "NPUSHB[ ]\011/* 38 values pushed */
14 9 2 3 1 0 1 74 12 1 1 71 4 3 2 0 0 17 75 2 1 1 1 18 1 76 0 0 0 18 0 18 25 17 20 5 7 23 
CALL[ ]\011/* CallFunction */";
};
width = 1750;
},
{
anchors = (
{
name = bottom;
position = "{818, 0}";
},
{
name = top;
position = "{1016, 1496}";
}
);
layerId = "FC25F90A-4039-49BA-9FA9-48428CE1BED8";
paths = (
{
closed = 1;
nodes = (
"904 -2 LINE",
"1330 1054 LINE",
"1453 1365 LINE",
"1429 1015 LINE",
"1373 0 LINE",
"1594 0 LINE",
"1628 1494 LINE",
"1311 1494 LINE",
"905 459 LINE",
"857 286 LINE",
"844 459 LINE",
"701 1494 LINE",
"412 1494 LINE",
"34 0 LINE",
"253 0 LINE",
"487 1025 LINE",
"546 1365 LINE",
"577 1034 LINE",
"727 -18 LINE"
);
}
);
width = 1781;
}
);
leftKerningGroup = M;
note = M;
rightKerningGroup = M;
unicode = 004D;
},
{
color = 7;
glyphname = N;
lastChange = "2019-04-06 02:49:35 +0000";
layers = (
{
anchors = (
{
name = bottom;
position = "{658, 0}";
},
{
name = top;
position = "{856, 1494}";
}
);
layerId = "9808B12E-936F-4588-BC0B-2F1DE3B33DAD";
paths = (
{
closed = 1;
nodes = (
"400 0 LINE",
"512 814 LINE",
"510 1082 LINE",
"606 814 LINE",
"946 0 LINE",
"1236 0 LINE",
"1450 1494 LINE",
"1116 1494 LINE",
"1022 720 LINE",
"1008 466 LINE",
"932 720 LINE",
"584 1494 LINE",
"284 1494 LINE",
"70 0 LINE"
);
}
);
userData = {
assembly = "NPUSHB[ ]\011/* 35 values pushed */
10 9 3 2 4 1 0 1 74 4 3 2 0 0 17 75 2 1 1 1 18 1 76 0 0 0 13 0 13 20 17 20 5 7 23 
CALL[ ]\011/* CallFunction */";
};
width = 1464;
},
{
anchors = (
{
name = bottom;
position = "{612, 0}";
},
{
name = top;
position = "{810, 1494}";
}
);
layerId = "A8DD961D-2AAA-4421-B000-699D061D5CAD";
paths = (
{
closed = 1;
nodes = (
"256 0 LINE",
"386 1048 LINE",
"416 1330 LINE",
"486 1096 LINE",
"968 0 LINE",
"1114 0 LINE",
"1302 1494 LINE",
"1162 1494 LINE",
"1032 424 LINE",
"1010 192 LINE",
"940 394 LINE",
"460 1494 LINE",
"306 1494 LINE",
"118 0 LINE"
);
}
);
userData = {
assembly = "NPUSHB[ ]\011/* 33 values pushed */
9 2 2 1 0 1 74 4 3 2 0 0 17 75 2 1 1 1 18 1 76 0 0 0 13 0 13 20 17 20 5 7 23 
CALL[ ]\011/* CallFunction */";
};
width = 1370;
},
{
anchors = (
{
name = bottom;
position = "{618, 0}";
},
{
name = top;
position = "{816, 1496}";
}
);
layerId = "FC25F90A-4039-49BA-9FA9-48428CE1BED8";
paths = (
{
closed = 1;
nodes = (
"306 0 LINE",
"428 958 LINE",
"450 1245 LINE",
"509 1012 LINE",
"936 0 LINE",
"1141 0 LINE",
"1333 1494 LINE",
"1125 1494 LINE",
"1009 534 LINE",
"992 289 LINE",
"927 500 LINE",
"512 1494 LINE",
"294 1494 LINE",
"102 0 LINE"
);
}
);
width = 1384;
}
);
leftKerningGroup = H;
note = N;
rightKerningGroup = H;
unicode = 004E;
},
{
color = 7;
glyphname = Eng;
lastChange = "2019-04-06 02:56:54 +0000";
layers = (
{
layerId = "9808B12E-936F-4588-BC0B-2F1DE3B33DAD";
paths = (
{
closed = 1;
nodes = (
"954 -386 OFFCURVE",
"1206 -236 OFFCURVE",
"1248 0 CURVE",
"1462 1494 LINE",
"1128 1494 LINE",
"1034 720 LINE",
"1020 466 LINE",
"944 720 LINE",
"596 1494 LINE",
"296 1494 LINE",
"82 0 LINE",
"412 0 LINE",
"524 814 LINE",
"522 1082 LINE",
"618 814 LINE",
"938 46 LINE",
"926 -118 OFFCURVE",
"758 -234 OFFCURVE",
"624 -280 CURVE",
"678 -404 LINE"
);
}
);
userData = {
assembly = "NPUSHB[ ]\011/* 39 values pushed */
20 19 13 12 10 5 0 1 1 74 6 5 2 0 71 3 2 2 1 1 17 75 0 0 0 18 0 76 0 0 0 21 0 21 17 30 4 7 22 
CALL[ ]\011/* CallFunction */";
};
width = 1488;
},
{
layerId = "A8DD961D-2AAA-4421-B000-699D061D5CAD";
paths = (
{
closed = 1;
nodes = (
"910 -268 OFFCURVE",
"1076 -160 OFFCURVE",
"1110 0 CURVE SMOOTH",
"1302 1494 LINE",
"1162 1494 LINE",
"1032 424 LINE",
"1010 192 LINE",
"940 394 LINE",
"460 1494 LINE",
"306 1494 LINE",
"118 0 LINE",
"256 0 LINE",
"386 1048 LINE",
"416 1330 LINE",
"486 1096 LINE",
"962 12 LINE",
"920 -102 OFFCURVE",
"804 -200 OFFCURVE",
"658 -242 CURVE",
"684 -308 LINE"
);
}
);
userData = {
assembly = "NPUSHB[ ]\011/* 36 values pushed */
17 10 8 3 0 1 1 74 5 1 0 71 3 2 2 1 1 17 75 0 0 0 18 0 76 0 0 0 19 0 19 17 28 4 7 22 
CALL[ ]\011/* CallFunction */";
};
width = 1364;
},
{
layerId = "FC25F90A-4039-49BA-9FA9-48428CE1BED8";
paths = (
{
closed = 1;
nodes = (
"909 -291 OFFCURVE",
"1068 -185 OFFCURVE",
"1139 0 CURVE",
"1335 1494 LINE",
"1127 1494 LINE",
"1011 534 LINE",
"993 289 LINE",
"929 500 LINE",
"514 1494 LINE",
"296 1494 LINE",
"103 0 LINE",
"308 0 LINE",
"430 958 LINE",
"452 1245 LINE",
"511 1012 LINE",
"927 27 LINE",
"884 -89 OFFCURVE",
"786 -184 OFFCURVE",
"645 -231 CURVE",
"683 -324 LINE"
);
}
);
width = 1382;
}
);
leftKerningGroup = Eng;
note = Eng;
rightKerningGroup = Eng;
rightMetricsKey = H;
unicode = 014A;
},
{
color = 7;
glyphname = O;
lastChange = "2019-04-06 02:49:35 +0000";
layers = (
{
anchors = (
{
name = bottom;
position = "{596, 0}";
},
{
name = center;
position = "{696, 748}";
},
{
name = ogonek;
position = "{886, 20}";
},
{
name = top;
position = "{812, 1494}";
},
{
name = topleft;
position = "{152, 1494}";
},
{
name = topright;
position = "{1434, 1494}";
}
);
layerId = "9808B12E-936F-4588-BC0B-2F1DE3B33DAD";
paths = (
{
closed = 1;
nodes = (
"1066 -16 OFFCURVE",
"1338 416 OFFCURVE",
"1338 924 CURVE SMOOTH",
"1338 1258 OFFCURVE",
"1150 1510 OFFCURVE",
"808 1510 CURVE SMOOTH",
"348 1510 OFFCURVE",
"70 1074 OFFCURVE",
"70 564 CURVE SMOOTH",
"70 228 OFFCURVE",
"266 -16 OFFCURVE",
"610 -16 CURVE SMOOTH"
);
},
{
closed = 1;
nodes = (
"526 244 OFFCURVE",
"426 348 OFFCURVE",
"426 582 CURVE SMOOTH",
"426 858 OFFCURVE",
"546 1250 OFFCURVE",
"770 1250 CURVE SMOOTH",
"882 1250 OFFCURVE",
"982 1174 OFFCURVE",
"982 914 CURVE SMOOTH",
"982 628 OFFCURVE",
"866 244 OFFCURVE",
"636 244 CURVE SMOOTH"
);
}
);
userData = {
assembly = "NPUSHB[ ]\011/* 28 values pushed */
0 2 2 0 91 0 0 0 25 75 0 3 3 1 91 0 1 1 26 1 76 38 38 38 34 4 7 24 
CALL[ ]\011/* CallFunction */";
};
width = 1360;
},
{
anchors = (
{
name = bottom;
position = "{600, 0}";
},
{
name = center;
position = "{700, 748}";
},
{
name = ogonek;
position = "{770, 20}";
},
{
name = top;
position = "{810, 1494}";
},
{
name = topleft;
position = "{164, 1494}";
},
{
name = topright;
position = "{1430, 1494}";
}
);
layerId = "A8DD961D-2AAA-4421-B000-699D061D5CAD";
paths = (
{
closed = 1;
nodes = (
"1016 -16 OFFCURVE",
"1276 398 OFFCURVE",
"1276 872 CURVE SMOOTH",
"1276 1212 OFFCURVE",
"1126 1510 OFFCURVE",
"800 1510 CURVE SMOOTH",
"384 1510 OFFCURVE",
"116 1092 OFFCURVE",
"116 624 CURVE SMOOTH",
"116 272 OFFCURVE",
"276 -16 OFFCURVE",
"596 -16 CURVE SMOOTH"
);
},
{
closed = 1;
nodes = (
"394 96 OFFCURVE",
"268 282 OFFCURVE",
"268 644 CURVE SMOOTH",
"268 1008 OFFCURVE",
"460 1394 OFFCURVE",
"776 1394 CURVE SMOOTH",
"1008 1394 OFFCURVE",
"1122 1206 OFFCURVE",
"1122 844 CURVE SMOOTH",
"1122 476 OFFCURVE",
"940 96 OFFCURVE",
"620 96 CURVE SMOOTH"
);
}
);
userData = {
assembly = "NPUSHB[ ]\011/* 28 values pushed */
0 2 2 0 91 0 0 0 25 75 0 3 3 1 91 0 1 1 26 1 76 37 37 38 34 4 7 24 
CALL[ ]\011/* CallFunction */";
};
width = 1336;
},
{
anchors = (
{
name = bottom;
position = "{610, 0}";
},
{
name = center;
position = "{710, 748}";
},
{
name = ogonek;
position = "{822, 20}";
},
{
name = top;
position = "{814, 1496}";
},
{
name = topleft;
position = "{172, 1496}";
},
{
name = topright;
position = "{1440, 1496}";
}
);
layerId = "FC25F90A-4039-49BA-9FA9-48428CE1BED8";
paths = (
{
closed = 1;
nodes = (
"1028 -16 OFFCURVE",
"1292 400 OFFCURVE",
"1292 884 CURVE SMOOTH",
"1292 1222 OFFCURVE",
"1134 1510 OFFCURVE",
"804 1510 CURVE SMOOTH",
"376 1510 OFFCURVE",
"106 1090 OFFCURVE",
"106 610 CURVE SMOOTH",
"106 266 OFFCURVE",
"270 -16 OFFCURVE",
"596 -16 CURVE SMOOTH"
);
},
{
closed = 1;
nodes = (
"430 150 OFFCURVE",
"338 296 OFFCURVE",
"332 626 CURVE SMOOTH",
"328 958 OFFCURVE",
"490 1340 OFFCURVE",
"772 1340 CURVE SMOOTH",
"978 1340 OFFCURVE",
"1062 1182 OFFCURVE",
"1066 868 CURVE SMOOTH",
"1070 530 OFFCURVE",
"912 150 OFFCURVE",
"626 150 CURVE SMOOTH"
);
}
);
width = 1348;
}
);
leftKerningGroup = O;
note = O;
rightKerningGroup = O;
unicode = 004F;
},
{
color = 7;
glyphname = Ohorn;
lastChange = "2019-04-06 02:49:35 +0000";
layers = (
{
anchors = (
{
name = top;
position = "{738, 1494}";
}
);
components = (
{
name = O;
}
);
layerId = "9808B12E-936F-4588-BC0B-2F1DE3B33DAD";
paths = (
{
closed = 1;
nodes = (
"1224 1262 OFFCURVE",
"1478 1366 OFFCURVE",
"1528 1686 CURVE SMOOTH",
"1530 1700 OFFCURVE",
"1532 1714 OFFCURVE",
"1534 1730 CURVE",
"1302 1730 LINE",
"1302 1722 OFFCURVE",
"1298 1690 OFFCURVE",
"1292 1670 CURVE SMOOTH",
"1266 1584 OFFCURVE",
"1264 1452 OFFCURVE",
"980 1452 CURVE",
"930 1262 LINE"
);
}
);
width = 1362;
},
{
anchors = (
{
name = top;
position = "{758, 1494}";
}
);
components = (
{
name = O;
}
);
layerId = "A8DD961D-2AAA-4421-B000-699D061D5CAD";
paths = (
{
closed = 1;
nodes = (
"1282 1342 OFFCURVE",
"1420 1496 OFFCURVE",
"1420 1708 CURVE SMOOTH",
"1420 1722 OFFCURVE",
"1418 1736 OFFCURVE",
"1416 1752 CURVE",
"1276 1752 LINE",
"1278 1744 OFFCURVE",
"1284 1720 OFFCURVE",
"1284 1698 CURVE SMOOTH",
"1284 1638 OFFCURVE",
"1278 1456 OFFCURVE",
"994 1456 CURVE",
"978 1342 LINE"
);
}
);
width = 1346;
},
{
anchors = (
{
name = top;
position = "{758, 1494}";
}
);
components = (
{
alignment = -1;
name = O;
}
);
layerId = "FC25F90A-4039-49BA-9FA9-48428CE1BED8";
paths = (
{
closed = 1;
nodes = (
"1225 1320 OFFCURVE",
"1417 1456 OFFCURVE",
"1417 1703 CURVE SMOOTH",
"1417 1717 OFFCURVE",
"1415 1731 OFFCURVE",
"1413 1747 CURVE",
"1242 1747 LINE",
"1244 1739 OFFCURVE",
"1240 1727 OFFCURVE",
"1240 1713 CURVE SMOOTH",
"1240 1584 OFFCURVE",
"1197 1466 OFFCURVE",
"958 1466 CURVE",
"938 1320 LINE"
);
}
);
width = 1349;
}
);
leftKerningGroup = O;
rightKerningGroup = O;
unicode = 01A0;
},
{
glyphname = Oslash;
lastChange = "2019-04-06 02:49:35 +0000";
layers = (
{
anchors = (
{
name = top;
position = "{798, 1494}";
}
);
layerId = "9808B12E-936F-4588-BC0B-2F1DE3B33DAD";
paths = (
{
closed = 1;
nodes = (
"334 48 LINE",
"412 6 OFFCURVE",
"502 -14 OFFCURVE",
"604 -14 CURVE SMOOTH",
"898 -14 OFFCURVE",
"1126 168 OFFCURVE",
"1244 454 CURVE SMOOTH",
"1302 596 OFFCURVE",
"1332 754 OFFCURVE",
"1332 926 CURVE SMOOTH",
"1332 1112 OFFCURVE",
"1270 1278 OFFCURVE",
"1156 1384 CURVE",
"1270 1584 LINE",
"1182 1630 LINE",
"1076 1444 LINE",
"998 1490 OFFCURVE",
"908 1512 OFFCURVE",
"802 1512 CURVE SMOOTH",
"504 1512 OFFCURVE",
"274 1328 OFFCURVE",
"154 1040 CURVE SMOOTH",
"94 896 OFFCURVE",
"64 738 OFFCURVE",
"64 566 CURVE SMOOTH",
"64 374 OFFCURVE",
"128 206 OFFCURVE",
"254 102 CURVE",
"138 -82 LINE",
"224 -128 LINE"
);
},
{
closed = 1;
nodes = (
"574 246 OFFCURVE",
"530 260 OFFCURVE",
"500 290 CURVE",
"958 1096 LINE",
"970 1050 OFFCURVE",
"976 990 OFFCURVE",
"976 916 CURVE SMOOTH",
"976 702 OFFCURVE",
"918 480 OFFCURVE",
"814 346 CURVE SMOOTH",
"760 280 OFFCURVE",
"700 246 OFFCURVE",
"630 246 CURVE SMOOTH"
);
},
{
closed = 1;
nodes = (
"428 436 OFFCURVE",
"420 502 OFFCURVE",
"420 584 CURVE SMOOTH",
"420 790 OFFCURVE",
"478 1014 OFFCURVE",
"584 1150 CURVE SMOOTH",
"636 1218 OFFCURVE",
"696 1252 OFFCURVE",
"764 1252 CURVE SMOOTH",
"826 1252 OFFCURVE",
"874 1236 OFFCURVE",
"906 1202 CURVE",
"444 386 LINE"
);
}
);
userData = {
assembly = "NPUSHB[ ]\011/* 69 values pushed */
23 20 2 2 1 39 38 30 29 4 3 2 11 8 2 0 3 3 74 22 21 2 1 72 10 9 2 0 71 4 1 2 2 1 91 0 1 1 25 75 5 1 3 3 0 91 0 0 0 26 0 76 33 33 24 24 33 41 33 40 24 32 24 31 42 37 6 7 22 
CALL[ ]\011/* CallFunction */";
};
width = 1360;
},
{
anchors = (
{
name = top;
position = "{798, 1494}";
}
);
layerId = "A8DD961D-2AAA-4421-B000-699D061D5CAD";
paths = (
{
closed = 1;
nodes = (
"278 112 LINE",
"358 30 OFFCURVE",
"464 -16 OFFCURVE",
"590 -16 CURVE SMOOTH",
"852 -16 OFFCURVE",
"1068 152 OFFCURVE",
"1184 424 CURVE SMOOTH",
"1242 558 OFFCURVE",
"1270 708 OFFCURVE",
"1270 872 CURVE SMOOTH",
"1270 1070 OFFCURVE",
"1222 1242 OFFCURVE",
"1126 1356 CURVE",
"1282 1584 LINE",
"1212 1620 LINE",
"1072 1414 LINE",
"996 1480 OFFCURVE",
"904 1512 OFFCURVE",
"794 1512 CURVE SMOOTH",
"538 1512 OFFCURVE",
"320 1348 OFFCURVE",
"200 1078 CURVE SMOOTH",
"140 942 OFFCURVE",
"110 790 OFFCURVE",
"110 624 CURVE SMOOTH",
"110 446 OFFCURVE",
"148 286 OFFCURVE",
"228 174 CURVE",
"54 -82 LINE",
"122 -120 LINE"
);
},
{
closed = 1;
nodes = (
"508 98 OFFCURVE",
"424 138 OFFCURVE",
"364 220 CURVE",
"1040 1238 LINE",
"1090 1146 OFFCURVE",
"1116 1016 OFFCURVE",
"1116 846 CURVE SMOOTH",
"1116 574 OFFCURVE",
"1026 332 OFFCURVE",
"874 198 CURVE SMOOTH",
"796 132 OFFCURVE",
"710 98 OFFCURVE",
"614 98 CURVE SMOOTH"
);
},
{
closed = 1;
nodes = (
"282 386 OFFCURVE",
"262 504 OFFCURVE",
"262 646 CURVE SMOOTH",
"262 912 OFFCURVE",
"356 1156 OFFCURVE",
"510 1292 CURVE SMOOTH",
"588 1360 OFFCURVE",
"674 1394 OFFCURVE",
"770 1394 CURVE SMOOTH",
"862 1394 OFFCURVE",
"936 1364 OFFCURVE",
"992 1306 CURVE",
"320 296 LINE"
);
}
);
userData = {
assembly = "NPUSHB[ ]\011/* 66 values pushed */
21 1 2 1 40 39 31 30 24 12 9 7 3 2 2 74 23 22 2 1 72 11 10 2 0 71 4 1 2 2 1 91 0 1 1 25 75 5 1 3 3 0 91 0 0 0 26 0 76 34 34 25 25 34 42 34 41 25 33 25 32 43 37 6 7 22 
CALL[ ]\011/* CallFunction */";
};
width = 1346;
},
{
anchors = (
{
name = top;
position = "{798, 1494}";
}
);
layerId = "FC25F90A-4039-49BA-9FA9-48428CE1BED8";
paths = (
{
closed = 1;
nodes = (
"297 86 LINE",
"377 18 OFFCURVE",
"473 -15 OFFCURVE",
"587 -15 CURVE SMOOTH",
"861 -15 OFFCURVE",
"1080 155 OFFCURVE",
"1197 429 CURVE SMOOTH",
"1255 567 OFFCURVE",
"1284 718 OFFCURVE",
"1284 884 CURVE SMOOTH",
"1284 1078 OFFCURVE",
"1235 1248 OFFCURVE",
"1136 1361 CURVE",
"1280 1584 LINE",
"1194 1630 LINE",
"1063 1429 LINE",
"988 1483 OFFCURVE",
"899 1510 OFFCURVE",
"795 1510 CURVE SMOOTH",
"531 1510 OFFCURVE",
"309 1341 OFFCURVE",
"189 1068 CURVE SMOOTH",
"129 931 OFFCURVE",
"99 778 OFFCURVE",
"99 612 CURVE SMOOTH",
"99 432 OFFCURVE",
"143 271 OFFCURVE",
"229 158 CURVE",
"69 -82 LINE",
"156 -128 LINE"
);
},
{
closed = 1;
nodes = (
"529 151 OFFCURVE",
"462 182 OFFCURVE",
"416 244 CURVE",
"1007 1182 LINE",
"1041 1103 OFFCURVE",
"1058 993 OFFCURVE",
"1058 854 CURVE SMOOTH",
"1058 607 OFFCURVE",
"980 378 OFFCURVE",
"848 249 CURVE SMOOTH",
"780 183 OFFCURVE",
"705 151 OFFCURVE",
"619 151 CURVE SMOOTH"
);
},
{
closed = 1;
nodes = (
"338 422 OFFCURVE",
"325 521 OFFCURVE",
"325 641 CURVE SMOOTH",
"325 878 OFFCURVE",
"404 1109 OFFCURVE",
"537 1240 CURVE SMOOTH",
"605 1306 OFFCURVE",
"679 1339 OFFCURVE",
"764 1339 CURVE SMOOTH",
"841 1339 OFFCURVE",
"902 1316 OFFCURVE",
"948 1272 CURVE",
"364 345 LINE"
);
}
);
width = 1349;
}
);
leftKerningGroup = O;
note = Oslash;
rightKerningGroup = O;
unicode = 00D8;
},
{
color = 7;
glyphname = OE;
lastChange = "2019-04-06 02:56:54 +0000";
layers = (
{
background = {
components = (
{
name = O;
transform = "{1, 0, 0, 1, 3, 0}";
}
);
};
layerId = "9808B12E-936F-4588-BC0B-2F1DE3B33DAD";
paths = (
{
closed = 1;
nodes = (
"802 -16 OFFCURVE",
"942 60 OFFCURVE",
"1068 194 CURVE",
"1030 0 LINE",
"1956 0 LINE",
"1992 274 LINE",
"1354 264 LINE",
"1408 642 LINE",
"1826 634 LINE",
"1862 904 LINE",
"1444 898 LINE",
"1492 1228 LINE",
"2060 1226 LINE",
"2096 1494 LINE",
"1244 1494 LINE",
"1224 1284 LINE",
"1134 1426 OFFCURVE",
"1006 1510 OFFCURVE",
"808 1510 CURVE SMOOTH",
"348 1510 OFFCURVE",
"70 1074 OFFCURVE",
"70 564 CURVE SMOOTH",
"70 228 OFFCURVE",
"266 -16 OFFCURVE",
"610 -16 CURVE SMOOTH"
);
},
{
closed = 1;
nodes = (
"530 244 OFFCURVE",
"426 348 OFFCURVE",
"426 582 CURVE SMOOTH",
"426 858 OFFCURVE",
"546 1250 OFFCURVE",
"770 1250 CURVE SMOOTH",
"920 1250 OFFCURVE",
"982 1096 OFFCURVE",
"982 914 CURVE SMOOTH",
"982 628 OFFCURVE",
"866 244 OFFCURVE",
"636 244 CURVE SMOOTH"
);
}
);
userData = {
assembly = "MPPEM[ ]\011/* MeasurePixelPerEm */
PUSHB[ ]\011/* 1 value pushed */
21 
LT[ ]\011/* LessThan */
IF[ ]\011/* If */
NPUSHB[ ]\011/* 10 values pushed */
23 1 7 5 9 1 3 2 2 74 
ELSE[ ]\011/* Else */
MPPEM[ ]\011/* MeasurePixelPerEm */
PUSHB[ ]\011/* 1 value pushed */
31 
LT[ ]\011/* LessThan */
IF[ ]\011/* If */
NPUSHB[ ]\011/* 10 values pushed */
23 1 8 5 9 1 3 9 2 74 
ELSE[ ]\011/* Else */
NPUSHB[ ]\011/* 10 values pushed */
23 1 8 6 9 1 3 9 2 74 
EIF[ ]\011/* EndIf */
EIF[ ]\011/* EndIf */
MPPEM[ ]\011/* MeasurePixelPerEm */
PUSHB[ ]\011/* 1 value pushed */
21 
LT[ ]\011/* LessThan */
IF[ ]\011/* If */
NPUSHB[ ]\011/* 35 values pushed */
0 0 0 1 2 0 1 97 8 10 2 7 7 5 91 6 1 5 5 25 75 11 9 2 2 2 3 91 4 1 3 3 18 3 76 
ELSE[ ]\011/* Else */
MPPEM[ ]\011/* MeasurePixelPerEm */
PUSHB[ ]\011/* 1 value pushed */
31 
LT[ ]\011/* LessThan */
IF[ ]\011/* If */
NPUSHB[ ]\011/* 55 values pushed */
0 0 0 1 2 0 1 97 0 8 8 5 91 6 1 5 5 25 75 10 1 7 7 5 91 6 1 5 5 25 75 0 2 2 3 91 4 1 3 3 18 75 11 1 9 9 3 91 4 1 3 3 18 3 76 
ELSE[ ]\011/* Else */
NPUSHB[ ]\011/* 51 values pushed */
0 0 0 1 2 0 1 97 0 8 8 5 91 0 5 5 25 75 10 1 7 7 6 89 0 6 6 17 75 0 2 2 3 89 0 3 3 18 75 11 1 9 9 4 91 0 4 4 26 4 76 
EIF[ ]\011/* EndIf */
EIF[ ]\011/* EndIf */
NPUSHB[ ]\011/* 24 values pushed */
27 27 0 0 27 42 27 41 35 33 0 26 0 26 19 38 35 17 17 17 17 12 7 27 
CALL[ ]\011/* CallFunction */";
};
width = 2096;
},
{
background = {
anchors = (
{
name = bottom;
position = "{606, 0}";
},
{
name = center;
position = "{706, 748}";
},
{
name = ogonek;
position = "{776, 20}";
},
{
name = top;
position = "{816, 1494}";
},
{
name = topleft;
position = "{170, 1494}";
},
{
name = topright;
position = "{1436, 1494}";
}
);
paths = (
{
closed = 1;
nodes = (
"1016 -16 OFFCURVE",
"1276 398 OFFCURVE",
"1276 872 CURVE SMOOTH",
"1276 1212 OFFCURVE",
"1126 1510 OFFCURVE",
"800 1510 CURVE SMOOTH",
"384 1510 OFFCURVE",
"116 1092 OFFCURVE",
"116 624 CURVE SMOOTH",
"116 272 OFFCURVE",
"276 -16 OFFCURVE",
"596 -16 CURVE SMOOTH"
);
},
{
closed = 1;
nodes = (
"394 96 OFFCURVE",
"268 282 OFFCURVE",
"268 644 CURVE SMOOTH",
"268 1008 OFFCURVE",
"460 1394 OFFCURVE",
"776 1394 CURVE SMOOTH",
"1008 1394 OFFCURVE",
"1122 1206 OFFCURVE",
"1122 844 CURVE SMOOTH",
"1122 476 OFFCURVE",
"940 96 OFFCURVE",
"620 96 CURVE SMOOTH"
);
}
);
};
layerId = "A8DD961D-2AAA-4421-B000-699D061D5CAD";
paths = (
{
closed = 1;
nodes = (
"820 -16 OFFCURVE",
"986 94 OFFCURVE",
"1106 300 CURVE",
"1066 0 LINE",
"1916 0 LINE",
"1926 124 LINE",
"1200 112 LINE",
"1272 710 LINE",
"1746 700 LINE",
"1754 824 LINE",
"1286 818 LINE",
"1354 1384 LINE",
"1968 1376 LINE",
"1974 1494 LINE",
"1248 1494 LINE",
"1212 1154 LINE",
"1166 1376 OFFCURVE",
"1026 1510 OFFCURVE",
"804 1510 CURVE SMOOTH",
"384 1510 OFFCURVE",
"116 1094 OFFCURVE",
"116 624 CURVE SMOOTH",
"116 272 OFFCURVE",
"276 -16 OFFCURVE",
"602 -16 CURVE SMOOTH"
);
},
{
closed = 1;
nodes = (
"392 96 OFFCURVE",
"268 278 OFFCURVE",
"268 644 CURVE SMOOTH",
"268 1010 OFFCURVE",
"462 1394 OFFCURVE",
"782 1394 CURVE SMOOTH",
"1008 1394 OFFCURVE",
"1122 1212 OFFCURVE",
"1122 848 CURVE SMOOTH",
"1122 476 OFFCURVE",
"950 96 OFFCURVE",
"626 96 CURVE SMOOTH"
);
}
);
userData = {
assembly = "NPUSHB[ ]\011/* 10 values pushed */
23 1 0 7 9 1 2 1 2 74 
MPPEM[ ]\011/* MeasurePixelPerEm */
PUSHB[ ]\011/* 1 value pushed */
10 
LT[ ]\011/* LessThan */
IF[ ]\011/* If */
NPUSHB[ ]\011/* 35 values pushed */
0 0 0 1 2 0 1 97 8 10 2 7 7 5 91 6 1 5 5 25 75 11 9 2 2 2 3 91 4 1 3 3 18 3 76 
ELSE[ ]\011/* Else */
MPPEM[ ]\011/* MeasurePixelPerEm */
PUSHB[ ]\011/* 1 value pushed */
11 
LT[ ]\011/* LessThan */
IF[ ]\011/* If */
NPUSHB[ ]\011/* 45 values pushed */
0 0 0 1 2 0 1 97 8 10 2 7 7 5 91 6 1 5 5 25 75 0 2 2 3 91 4 1 3 3 18 75 11 1 9 9 3 91 4 1 3 3 18 3 76 
ELSE[ ]\011/* Else */
MPPEM[ ]\011/* MeasurePixelPerEm */
PUSHB[ ]\011/* 1 value pushed */
19 
LT[ ]\011/* LessThan */
IF[ ]\011/* If */
NPUSHB[ ]\011/* 35 values pushed */
0 0 0 1 2 0 1 97 8 10 2 7 7 5 91 6 1 5 5 25 75 11 9 2 2 2 3 91 4 1 3 3 18 3 76 
ELSE[ ]\011/* Else */
MPPEM[ ]\011/* MeasurePixelPerEm */
PUSHB[ ]\011/* 1 value pushed */
21 
LT[ ]\011/* LessThan */
IF[ ]\011/* If */
NPUSHB[ ]\011/* 45 values pushed */
0 0 0 1 2 0 1 97 8 10 2 7 7 5 91 6 1 5 5 25 75 0 2 2 3 91 4 1 3 3 18 75 11 1 9 9 3 91 4 1 3 3 18 3 76 
ELSE[ ]\011/* Else */
MPPEM[ ]\011/* MeasurePixelPerEm */
PUSHB[ ]\011/* 1 value pushed */
24 
LT[ ]\011/* LessThan */
IF[ ]\011/* If */
NPUSHB[ ]\011/* 35 values pushed */
0 0 0 1 2 0 1 97 8 10 2 7 7 5 91 6 1 5 5 25 75 11 9 2 2 2 3 91 4 1 3 3 18 3 76 
ELSE[ ]\011/* Else */
MPPEM[ ]\011/* MeasurePixelPerEm */
PUSHB[ ]\011/* 1 value pushed */
29 
LT[ ]\011/* LessThan */
IF[ ]\011/* If */
NPUSHB[ ]\011/* 45 values pushed */
0 0 0 1 2 0 1 97 8 10 2 7 7 5 91 6 1 5 5 25 75 0 2 2 3 91 4 1 3 3 18 75 11 1 9 9 3 91 4 1 3 3 18 3 76 
ELSE[ ]\011/* Else */
MPPEM[ ]\011/* MeasurePixelPerEm */
PUSHB[ ]\011/* 1 value pushed */
35 
LT[ ]\011/* LessThan */
IF[ ]\011/* If */
NPUSHB[ ]\011/* 54 values pushed */
0 0 0 1 2 0 1 97 8 10 2 7 7 5 91 0 5 5 25 75 8 10 2 7 7 6 89 0 6 6 17 75 0 2 2 3 89 0 3 3 18 75 11 1 9 9 4 91 0 4 4 26 4 76 
ELSE[ ]\011/* Else */
NPUSHB[ ]\011/* 51 values pushed */
0 0 0 1 2 0 1 97 0 8 8 5 91 0 5 5 25 75 10 1 7 7 6 89 0 6 6 17 75 0 2 2 3 89 0 3 3 18 75 11 1 9 9 4 91 0 4 4 26 4 76 
EIF[ ]\011/* EndIf */
EIF[ ]\011/* EndIf */
EIF[ ]\011/* EndIf */
EIF[ ]\011/* EndIf */
EIF[ ]\011/* EndIf */
EIF[ ]\011/* EndIf */
EIF[ ]\011/* EndIf */
NPUSHB[ ]\011/* 24 values pushed */
27 27 0 0 27 39 27 38 33 31 0 26 0 26 19 38 35 17 17 17 17 12 7 27 
CALL[ ]\011/* CallFunction */";
};
width = 2040;
},
{
background = {
anchors = (
{
name = bottom;
position = "{610, 0}";
},
{
name = center;
position = "{710, 748}";
},
{
name = ogonek;
position = "{822, 20}";
},
{
name = top;
position = "{814, 1496}";
},
{
name = topleft;
position = "{172, 1496}";
},
{
name = topright;
position = "{1440, 1496}";
}
);
paths = (
{
closed = 1;
nodes = (
"1028 -16 OFFCURVE",
"1292 400 OFFCURVE",
"1292 884 CURVE SMOOTH",
"1292 1222 OFFCURVE",
"1134 1510 OFFCURVE",
"804 1510 CURVE SMOOTH",
"376 1510 OFFCURVE",
"106 1090 OFFCURVE",
"106 610 CURVE SMOOTH",
"106 266 OFFCURVE",
"270 -16 OFFCURVE",
"596 -16 CURVE SMOOTH"
);
},
{
closed = 1;
nodes = (
"430 150 OFFCURVE",
"338 296 OFFCURVE",
"332 626 CURVE SMOOTH",
"328 958 OFFCURVE",
"490 1340 OFFCURVE",
"772 1340 CURVE SMOOTH",
"978 1340 OFFCURVE",
"1062 1182 OFFCURVE",
"1066 868 CURVE SMOOTH",
"1070 530 OFFCURVE",
"912 150 OFFCURVE",
"626 150 CURVE SMOOTH"
);
}
);
};
layerId = "FC25F90A-4039-49BA-9FA9-48428CE1BED8";
paths = (
{
closed = 1;
nodes = (
"798 -16 OFFCURVE",
"970 78 OFFCURVE",
"1090 244 CURVE",
"1042 0 LINE",
"1916 0 LINE",
"1934 180 LINE",
"1250 166 LINE",
"1318 686 LINE",
"1758 670 LINE",
"1774 850 LINE",
"1338 844 LINE",
"1400 1328 LINE",
"1976 1322 LINE",
"1988 1494 LINE",
"1234 1494 LINE",
"1216 1224 LINE",
"1142 1402 OFFCURVE",
"1004 1510 OFFCURVE",
"804 1510 CURVE SMOOTH",
"378 1510 OFFCURVE",
"106 1088 OFFCURVE",
"106 610 CURVE SMOOTH",
"106 264 OFFCURVE",
"272 -16 OFFCURVE",
"596 -16 CURVE SMOOTH"
);
},
{
closed = 1;
nodes = (
"430 150 OFFCURVE",
"338 296 OFFCURVE",
"332 626 CURVE SMOOTH",
"328 958 OFFCURVE",
"490 1340 OFFCURVE",
"772 1340 CURVE SMOOTH",
"978 1340 OFFCURVE",
"1062 1182 OFFCURVE",
"1066 868 CURVE SMOOTH",
"1070 530 OFFCURVE",
"912 150 OFFCURVE",
"626 150 CURVE SMOOTH"
);
}
);
width = 2042;
}
);
leftKerningGroup = O;
leftMetricsKey = O;
note = OE;
rightKerningGroup = E;
rightMetricsKey = E;
unicode = 0152;
},
{
color = 7;
glyphname = P;
lastChange = "2019-04-06 02:49:35 +0000";
layers = (
{
anchors = (
{
name = bottom;
position = "{560, 0}";
},
{
name = top;
position = "{758, 1494}";
}
);
layerId = "9808B12E-936F-4588-BC0B-2F1DE3B33DAD";
paths = (
{
closed = 1;
nodes = (
"416 0 LINE",
"484 478 LINE",
"520 478 OFFCURVE",
"600 476 OFFCURVE",
"642 476 CURVE SMOOTH",
"908 476 OFFCURVE",
"1108 590 OFFCURVE",
"1208 774 CURVE SMOOTH",
"1258 864 OFFCURVE",
"1282 966 OFFCURVE",
"1282 1080 CURVE SMOOTH",
"1282 1362 OFFCURVE",
"1098 1510 OFFCURVE",
"756 1510 CURVE SMOOTH",
"690 1510 OFFCURVE",
"460 1494 OFFCURVE",
"436 1494 CURVE SMOOTH",
"284 1494 LINE",
"70 0 LINE"
);
},
{
closed = 1;
nodes = (
"600 734 OFFCURVE",
"546 740 OFFCURVE",
"522 746 CURVE",
"596 1260 LINE",
"634 1266 OFFCURVE",
"668 1270 OFFCURVE",
"694 1270 CURVE SMOOTH",
"872 1270 OFFCURVE",
"942 1204 OFFCURVE",
"942 1074 CURVE SMOOTH",
"928 852 OFFCURVE",
"844 734 OFFCURVE",
"648 734 CURVE SMOOTH"
);
}
);
userData = {
assembly = "PUSHB[ ]\011/* 6 values pushed */
27 1 5 4 1 74 
MPPEM[ ]\011/* MeasurePixelPerEm */
PUSHB[ ]\011/* 1 value pushed */
38 
LT[ ]\011/* LessThan */
IF[ ]\011/* If */
NPUSHB[ ]\011/* 27 values pushed */
7 1 5 0 2 3 5 2 98 0 4 4 0 91 1 6 2 0 0 17 75 0 3 3 18 3 76 
ELSE[ ]\011/* Else */
NPUSHB[ ]\011/* 31 values pushed */
7 1 5 0 2 3 5 2 98 6 1 0 0 17 75 0 4 4 1 91 0 1 1 25 75 0 3 3 18 3 76 
EIF[ ]\011/* EndIf */
NPUSHB[ ]\011/* 23 values pushed */
18 18 2 0 18 30 18 29 25 23 16 15 14 10 5 3 0 17 2 17 8 7 20 
CALL[ ]\011/* CallFunction */";
};
width = 1268;
},
{
anchors = (
{
name = bottom;
position = "{502, 0}";
},
{
name = top;
position = "{700, 1494}";
}
);
layerId = "A8DD961D-2AAA-4421-B000-699D061D5CAD";
paths = (
{
closed = 1;
nodes = (
"264 0 LINE",
"332 528 LINE",
"400 518 OFFCURVE",
"470 514 OFFCURVE",
"540 514 CURVE SMOOTH",
"772 514 OFFCURVE",
"960 616 OFFCURVE",
"1062 796 CURVE SMOOTH",
"1112 886 OFFCURVE",
"1138 992 OFFCURVE",
"1138 1114 CURVE SMOOTH",
"1138 1380 OFFCURVE",
"986 1510 OFFCURVE",
"692 1510 CURVE SMOOTH",
"648 1510 OFFCURVE",
"436 1494 OFFCURVE",
"392 1494 CURVE SMOOTH",
"306 1494 LINE",
"118 0 LINE"
);
},
{
closed = 1;
nodes = (
"478 630 OFFCURVE",
"386 638 OFFCURVE",
"346 646 CURVE",
"438 1380 LINE",
"540 1394 OFFCURVE",
"616 1400 OFFCURVE",
"670 1400 CURVE SMOOTH",
"884 1400 OFFCURVE",
"990 1304 OFFCURVE",
"990 1122 CURVE SMOOTH",
"990 802 OFFCURVE",
"832 630 OFFCURVE",
"536 630 CURVE SMOOTH"
);
}
);
userData = {
assembly = "PUSHB[ ]\011/* 6 values pushed */
25 1 5 4 1 74 
MPPEM[ ]\011/* MeasurePixelPerEm */
PUSHB[ ]\011/* 1 value pushed */
31 
LT[ ]\011/* LessThan */
IF[ ]\011/* If */
NPUSHB[ ]\011/* 27 values pushed */
7 1 5 0 2 3 5 2 100 0 4 4 0 91 1 6 2 0 0 17 75 0 3 3 18 3 76 
ELSE[ ]\011/* Else */
NPUSHB[ ]\011/* 31 values pushed */
7 1 5 0 2 3 5 2 100 6 1 0 0 17 75 0 4 4 1 91 0 1 1 25 75 0 3 3 18 3 76 
EIF[ ]\011/* EndIf */
NPUSHB[ ]\011/* 23 values pushed */
17 17 1 0 17 28 17 27 23 21 15 14 12 10 5 3 0 16 1 16 8 7 20 
CALL[ ]\011/* CallFunction */";
};
width = 1152;
},
{
anchors = (
{
name = bottom;
position = "{512, 0}";
},
{
name = top;
position = "{710, 1496}";
}
);
layerId = "FC25F90A-4039-49BA-9FA9-48428CE1BED8";
paths = (
{
closed = 1;
nodes = (
"319 0 LINE",
"386 512 LINE",
"421 506 OFFCURVE",
"478 503 OFFCURVE",
"560 503 CURVE SMOOTH",
"799 503 OFFCURVE",
"990 607 OFFCURVE",
"1091 792 CURVE SMOOTH",
"1141 883 OFFCURVE",
"1167 990 OFFCURVE",
"1166 1111 CURVE SMOOTH",
"1166 1379 OFFCURVE",
"1005 1510 OFFCURVE",
"708 1510 CURVE SMOOTH",
"637 1510 OFFCURVE",
"468 1494 OFFCURVE",
"414 1494 CURVE SMOOTH",
"294 1494 LINE",
"102 0 LINE"
);
},
{
closed = 1;
nodes = (
"510 672 OFFCURVE",
"441 678 OFFCURVE",
"408 686 CURVE",
"491 1330 LINE",
"542 1342 OFFCURVE",
"622 1350 OFFCURVE",
"671 1350 CURVE SMOOTH",
"861 1350 OFFCURVE",
"951 1268 OFFCURVE",
"947 1102 CURVE SMOOTH",
"940 819 OFFCURVE",
"819 673 OFFCURVE",
"559 672 CURVE SMOOTH"
);
}
);
width = 1171;
}
);
leftKerningGroup = H;
note = P;
rightKerningGroup = P;
unicode = 0050;
},
{
color = 7;
glyphname = Thorn;
lastChange = "2019-04-06 02:49:35 +0000";
layers = (
{
layerId = "9808B12E-936F-4588-BC0B-2F1DE3B33DAD";
paths = (
{
closed = 1;
nodes = (
"426 0 LINE",
"464 264 LINE",
"494 264 OFFCURVE",
"574 252 OFFCURVE",
"616 252 CURVE SMOOTH",
"882 252 OFFCURVE",
"1082 366 OFFCURVE",
"1182 544 CURVE SMOOTH",
"1232 634 OFFCURVE",
"1256 732 OFFCURVE",
"1256 840 CURVE SMOOTH",
"1256 1112 OFFCURVE",
"1070 1258 OFFCURVE",
"732 1258 CURVE SMOOTH",
"690 1258 OFFCURVE",
"648 1256 OFFCURVE",
"602 1252 CURVE",
"636 1494 LINE",
"284 1494 LINE",
"74 0 LINE"
);
},
{
closed = 1;
nodes = (
"574 510 OFFCURVE",
"524 514 OFFCURVE",
"500 522 CURVE",
"570 1016 LINE",
"738 1016 OFFCURVE",
"540 1018 OFFCURVE",
"668 1018 CURVE SMOOTH",
"846 1018 OFFCURVE",
"918 954 OFFCURVE",
"918 834 CURVE SMOOTH",
"908 626 OFFCURVE",
"820 510 OFFCURVE",
"622 510 CURVE SMOOTH"
);
}
);
userData = {
assembly = "NPUSHB[ ]\011/* 46 values pushed */
13 1 4 3 26 1 5 4 2 74 0 3 0 4 5 3 4 100 0 5 0 0 1 5 0 99 0 2 2 17 75 0 1 1 18 1 76 37 37 34 17 21 34 6 7 26 
CALL[ ]\011/* CallFunction */";
};
width = 1276;
},
{
layerId = "A8DD961D-2AAA-4421-B000-699D061D5CAD";
paths = (
{
closed = 1;
nodes = (
"264 0 LINE",
"300 290 LINE",
"356 284 OFFCURVE",
"422 280 OFFCURVE",
"498 280 CURVE SMOOTH",
"732 280 OFFCURVE",
"922 376 OFFCURVE",
"1024 550 CURVE SMOOTH",
"1074 636 OFFCURVE",
"1100 738 OFFCURVE",
"1100 856 CURVE SMOOTH",
"1100 1118 OFFCURVE",
"948 1250 OFFCURVE",
"660 1250 CURVE SMOOTH",
"620 1250 OFFCURVE",
"480 1242 OFFCURVE",
"420 1236 CURVE",
"454 1494 LINE",
"306 1494 LINE",
"118 0 LINE"
);
},
{
closed = 1;
nodes = (
"438 394 OFFCURVE",
"358 402 OFFCURVE",
"316 410 CURVE",
"406 1122 LINE",
"462 1128 OFFCURVE",
"588 1140 OFFCURVE",
"636 1140 CURVE SMOOTH",
"852 1140 OFFCURVE",
"952 1038 OFFCURVE",
"952 860 CURVE SMOOTH",
"952 564 OFFCURVE",
"796 396 OFFCURVE",
"502 394 CURVE SMOOTH"
);
}
);
userData = {
assembly = "PUSHB[ ]\011/* 6 values pushed */
24 1 6 5 1 74 
MPPEM[ ]\011/* MeasurePixelPerEm */
PUSHB[ ]\011/* 1 value pushed */
33 
LT[ ]\011/* LessThan */
IF[ ]\011/* If */
NPUSHB[ ]\011/* 28 values pushed */
4 1 3 0 5 6 3 5 99 0 6 0 0 1 6 0 100 0 2 2 17 75 0 1 1 18 1 76 
ELSE[ ]\011/* Else */
NPUSHB[ ]\011/* 35 values pushed */
0 3 4 5 4 3 5 112 0 4 0 5 6 4 5 99 0 6 0 0 1 6 0 100 0 2 2 17 75 0 1 1 18 1 76 
EIF[ ]\011/* EndIf */
NPUSHB[ ]\011/* 10 values pushed */
37 36 34 17 17 18 34 7 7 27 
CALL[ ]\011/* CallFunction */";
};
width = 1166;
},
{
layerId = "FC25F90A-4039-49BA-9FA9-48428CE1BED8";
paths = (
{
closed = 1;
nodes = (
"321 0 LINE",
"355 272 LINE",
"401 266 OFFCURVE",
"459 262 OFFCURVE",
"529 262 CURVE SMOOTH",
"768 262 OFFCURVE",
"959 367 OFFCURVE",
"1061 551 CURVE SMOOTH",
"1111 641 OFFCURVE",
"1136 747 OFFCURVE",
"1135 868 CURVE SMOOTH",
"1135 1133 OFFCURVE",
"974 1265 OFFCURVE",
"677 1265 CURVE SMOOTH",
"638 1265 OFFCURVE",
"523 1257 OFFCURVE",
"481 1253 CURVE",
"513 1494 LINE",
"294 1494 LINE",
"102 0 LINE"
);
},
{
closed = 1;
nodes = (
"479 431 OFFCURVE",
"411 437 OFFCURVE",
"378 445 CURVE",
"461 1086 LINE",
"512 1098 OFFCURVE",
"592 1105 OFFCURVE",
"640 1105 CURVE SMOOTH",
"830 1105 OFFCURVE",
"920 1023 OFFCURVE",
"916 859 CURVE SMOOTH",
"910 579 OFFCURVE",
"789 432 OFFCURVE",
"528 432 CURVE SMOOTH"
);
}
);
width = 1197;
}
);
leftKerningGroup = H;
note = Thorn;
rightKerningGroup = Thorn;
unicode = 00DE;
},
{
color = 7;
glyphname = Q;
lastChange = "2019-04-06 02:49:35 +0000";
layers = (
{
components = (
{
name = O;
}
);
layerId = "9808B12E-936F-4588-BC0B-2F1DE3B33DAD";
paths = (
{
closed = 1;
nodes = (
"966 -410 OFFCURVE",
"1168 -366 OFFCURVE",
"1228 -310 CURVE",
"1228 -112 LINE",
"1168 -130 OFFCURVE",
"1066 -138 OFFCURVE",
"924 -138 CURVE SMOOTH",
"788 -138 OFFCURVE",
"698 -126 OFFCURVE",
"698 -28 CURVE SMOOTH",
"698 -20 OFFCURVE",
"698 6 OFFCURVE",
"698 12 CURVE",
"486 14 LINE",
"468 -36 OFFCURVE",
"460 -104 OFFCURVE",
"460 -146 CURVE SMOOTH",
"460 -336 OFFCURVE",
"628 -410 OFFCURVE",
"852 -410 CURVE SMOOTH"
);
}
);
userData = {
assembly = "NPUSHB[ ]\011/* 51 values pushed */
33 7 2 0 3 8 1 1 0 2 74 0 3 4 0 4 3 0 112 0 0 0 1 0 1 96 5 1 4 4 2 91 0 2 2 25 4 76 34 34 34 49 34 48 46 43 37 36 6 7 24 
CALL[ ]\011/* CallFunction */";
};
width = 1362;
},
{
components = (
{
name = O;
}
);
layerId = "A8DD961D-2AAA-4421-B000-699D061D5CAD";
paths = (
{
closed = 1;
nodes = (
"1008 -350 OFFCURVE",
"1138 -328 OFFCURVE",
"1188 -294 CURVE",
"1188 -180 LINE",
"1132 -204 OFFCURVE",
"1042 -214 OFFCURVE",
"976 -214 CURVE SMOOTH",
"800 -214 OFFCURVE",
"670 -162 OFFCURVE",
"670 -22 CURVE SMOOTH",
"670 -10 OFFCURVE",
"670 18 OFFCURVE",
"670 22 CURVE",
"564 22 LINE",
"562 4 OFFCURVE",
"562 -48 OFFCURVE",
"562 -62 CURVE SMOOTH",
"562 -244 OFFCURVE",
"702 -350 OFFCURVE",
"890 -350 CURVE SMOOTH"
);
}
);
userData = {
assembly = "NPUSHB[ ]\011/* 51 values pushed */
31 1 2 4 5 1 0 2 6 1 1 0 3 74 0 0 0 1 0 1 95 0 5 5 3 91 0 3 3 25 75 0 4 4 2 91 0 2 2 26 2 76 37 41 38 21 37 33 6 7 26 
CALL[ ]\011/* CallFunction */";
};
width = 1346;
},
{
components = (
{
alignment = -1;
name = O;
}
);
layerId = "FC25F90A-4039-49BA-9FA9-48428CE1BED8";
paths = (
{
closed = 1;
nodes = (
"997 -361 OFFCURVE",
"1147 -333 OFFCURVE",
"1195 -297 CURVE",
"1195 -139 LINE",
"1142 -157 OFFCURVE",
"1052 -167 OFFCURVE",
"988 -167 CURVE SMOOTH",
"836 -167 OFFCURVE",
"701 -145 OFFCURVE",
"701 -18 CURVE SMOOTH",
"701 -7 OFFCURVE",
"701 21 OFFCURVE",
"701 27 CURVE",
"557 25 LINE",
"550 -5 OFFCURVE",
"546 -60 OFFCURVE",
"546 -80 CURVE SMOOTH",
"546 -262 OFFCURVE",
"689 -361 OFFCURVE",
"881 -361 CURVE SMOOTH"
);
}
);
width = 1349;
}
);
leftKerningGroup = O;
note = Q;
rightKerningGroup = O;
unicode = 0051;
},
{
color = 7;
glyphname = R;
lastChange = "2019-04-06 02:49:35 +0000";
layers = (
{
anchors = (
{
name = bottom;
position = "{582, 0}";
},
{
name = top;
position = "{734, 1494}";
}
);
layerId = "9808B12E-936F-4588-BC0B-2F1DE3B33DAD";
paths = (
{
closed = 1;
nodes = (
"416 0 LINE",
"500 560 LINE",
"652 560 LINE SMOOTH",
"696 560 OFFCURVE",
"758 408 OFFCURVE",
"784 298 CURVE SMOOTH",
"800 248 OFFCURVE",
"842 38 OFFCURVE",
"870 0 CURVE",
"1252 0 LINE",
"1210 60 OFFCURVE",
"1176 172 OFFCURVE",
"1116 358 CURVE SMOOTH",
"1076 484 OFFCURVE",
"1034 578 OFFCURVE",
"980 626 CURVE",
"1198 692 OFFCURVE",
"1298 884 OFFCURVE",
"1298 1126 CURVE SMOOTH",
"1298 1380 OFFCURVE",
"1140 1510 OFFCURVE",
"762 1510 CURVE SMOOTH",
"682 1510 OFFCURVE",
"548 1494 OFFCURVE",
"480 1494 CURVE SMOOTH",
"284 1494 LINE",
"70 0 LINE"
);
},
{
closed = 1;
nodes = (
"634 826 OFFCURVE",
"570 826 OFFCURVE",
"536 828 CURVE",
"596 1260 LINE",
"626 1266 OFFCURVE",
"684 1270 OFFCURVE",
"730 1270 CURVE SMOOTH",
"880 1270 OFFCURVE",
"960 1234 OFFCURVE",
"960 1098 CURVE SMOOTH",
"960 956 OFFCURVE",
"890 826 OFFCURVE",
"726 826 CURVE SMOOTH"
);
}
);
userData = {
assembly = "PUSHB[ ]\011/* 6 values pushed */
33 1 1 6 1 74 
MPPEM[ ]\011/* MeasurePixelPerEm */
PUSHB[ ]\011/* 1 value pushed */
31 
LT[ ]\011/* LessThan */
IF[ ]\011/* If */
NPUSHB[ ]\011/* 27 values pushed */
7 1 6 0 1 0 6 1 98 0 5 5 3 91 4 1 3 3 17 75 2 1 0 0 18 0 76 
ELSE[ ]\011/* Else */
NPUSHB[ ]\011/* 31 values pushed */
7 1 6 0 1 0 6 1 98 0 3 3 17 75 0 5 5 4 91 0 4 4 25 75 2 1 0 0 18 0 76 
EIF[ ]\011/* EndIf */
NPUSHB[ ]\011/* 15 values pushed */
34 34 34 47 34 45 44 34 33 17 40 24 8 7 26 
CALL[ ]\011/* CallFunction */";
};
width = 1312;
},
{
anchors = (
{
name = bottom;
position = "{540, 0}";
},
{
name = top;
position = "{684, 1494}";
}
);
layerId = "A8DD961D-2AAA-4421-B000-699D061D5CAD";
paths = (
{
closed = 1;
nodes = (
"264 0 LINE",
"344 642 LINE",
"590 640 LINE SMOOTH",
"684 640 OFFCURVE",
"776 434 OFFCURVE",
"808 330 CURVE SMOOTH",
"888 122 OFFCURVE",
"926 38 OFFCURVE",
"950 0 CURVE",
"1118 0 LINE",
"1080 48 OFFCURVE",
"1034 164 OFFCURVE",
"962 330 CURVE SMOOTH",
"920 442 OFFCURVE",
"838 612 OFFCURVE",
"780 662 CURVE",
"1006 724 OFFCURVE",
"1142 916 OFFCURVE",
"1142 1154 CURVE SMOOTH",
"1142 1386 OFFCURVE",
"980 1510 OFFCURVE",
"682 1510 CURVE SMOOTH",
"628 1510 OFFCURVE",
"488 1494 OFFCURVE",
"378 1494 CURVE SMOOTH",
"304 1494 LINE",
"118 0 LINE"
);
},
{
closed = 1;
nodes = (
"460 758 OFFCURVE",
"390 758 OFFCURVE",
"360 760 CURVE",
"438 1380 LINE",
"492 1388 OFFCURVE",
"614 1396 OFFCURVE",
"662 1396 CURVE SMOOTH",
"876 1396 OFFCURVE",
"982 1314 OFFCURVE",
"982 1148 CURVE SMOOTH",
"982 928 OFFCURVE",
"850 758 OFFCURVE",
"622 758 CURVE SMOOTH"
);
}
);
userData = {
assembly = "PUSHB[ ]\011/* 6 values pushed */
28 1 1 6 1 74 
MPPEM[ ]\011/* MeasurePixelPerEm */
PUSHB[ ]\011/* 1 value pushed */
31 
LT[ ]\011/* LessThan */
IF[ ]\011/* If */
NPUSHB[ ]\011/* 27 values pushed */
7 1 6 0 1 0 6 1 98 0 5 5 3 91 4 1 3 3 17 75 2 1 0 0 18 0 76 
ELSE[ ]\011/* Else */
NPUSHB[ ]\011/* 31 values pushed */
7 1 6 0 1 0 6 1 98 0 3 3 17 75 0 5 5 4 91 0 4 4 25 75 2 1 0 0 18 0 76 
EIF[ ]\011/* EndIf */
NPUSHB[ ]\011/* 15 values pushed */
29 29 29 41 29 38 43 34 33 17 36 22 8 7 26 
CALL[ ]\011/* CallFunction */";
};
width = 1226;
},
{
anchors = (
{
name = bottom;
position = "{552, 0}";
},
{
name = top;
position = "{711, 1494}";
}
);
layerId = "FC25F90A-4039-49BA-9FA9-48428CE1BED8";
paths = (
{
closed = 1;
nodes = (
"318 0 LINE",
"398 625 LINE",
"590 624 LINE",
"677 616 OFFCURVE",
"740 450 OFFCURVE",
"786 298 CURVE SMOOTH",
"835 156 OFFCURVE",
"875 49 OFFCURVE",
"905 0 CURVE",
"1152 0 LINE",
"1108 63 OFFCURVE",
"1036 240 OFFCURVE",
"972 400 CURVE SMOOTH",
"942 492 OFFCURVE",
"884 609 OFFCURVE",
"835 656 CURVE",
"1056 725 OFFCURVE",
"1177 910 OFFCURVE",
"1177 1146 CURVE SMOOTH",
"1177 1383 OFFCURVE",
"1015 1510 OFFCURVE",
"707 1510 CURVE SMOOTH",
"645 1510 OFFCURVE",
"462 1494 OFFCURVE",
"408 1494 CURVE SMOOTH",
"293 1494 LINE",
"100 0 LINE"
);
},
{
closed = 1;
nodes = (
"525 796 OFFCURVE",
"454 796 OFFCURVE",
"420 798 CURVE",
"491 1332 LINE",
"528 1338 OFFCURVE",
"630 1347 OFFCURVE",
"683 1347 CURVE SMOOTH",
"856 1347 OFFCURVE",
"946 1278 OFFCURVE",
"947 1146 CURVE SMOOTH",
"953 941 OFFCURVE",
"847 796 OFFCURVE",
"634 796 CURVE SMOOTH"
);
}
);
width = 1252;
}
);
leftKerningGroup = H;
note = R;
rightKerningGroup = R;
unicode = 0052;
},
{
color = 7;
glyphname = S;
lastChange = "2019-04-06 02:49:35 +0000";
layers = (
{
anchors = (
{
name = bottom;
position = "{444, 0}";
},
{
name = top;
position = "{682, 1494}";
}
);
layerId = "9808B12E-936F-4588-BC0B-2F1DE3B33DAD";
paths = (
{
closed = 1;
nodes = (
"706 -16 OFFCURVE",
"952 130 OFFCURVE",
"952 448 CURVE SMOOTH",
"952 610 OFFCURVE",
"842 730 OFFCURVE",
"680 858 CURVE SMOOTH",
"578 940 OFFCURVE",
"494 1010 OFFCURVE",
"494 1100 CURVE SMOOTH",
"494 1178 OFFCURVE",
"556 1238 OFFCURVE",
"676 1238 CURVE SMOOTH",
"772 1238 OFFCURVE",
"882 1198 OFFCURVE",
"928 1152 CURVE",
"1038 1426 LINE",
"980 1468 OFFCURVE",
"840 1510 OFFCURVE",
"686 1510 CURVE SMOOTH",
"388 1510 OFFCURVE",
"164 1350 OFFCURVE",
"164 1064 CURVE SMOOTH",
"164 898 OFFCURVE",
"270 762 OFFCURVE",
"414 652 CURVE SMOOTH",
"536 560 OFFCURVE",
"598 506 OFFCURVE",
"598 416 CURVE SMOOTH",
"598 320 OFFCURVE",
"540 260 OFFCURVE",
"398 260 CURVE SMOOTH",
"304 260 OFFCURVE",
"178 310 OFFCURVE",
"112 360 CURVE",
"-4 78 LINE",
"52 32 OFFCURVE",
"272 -16 OFFCURVE",
"382 -16 CURVE SMOOTH"
);
}
);
userData = {
assembly = "NPUSHB[ ]\011/* 43 values pushed */
19 1 2 1 43 20 2 0 2 42 1 3 0 3 74 0 2 2 1 91 0 1 1 25 75 0 0 0 3 91 0 3 3 26 3 76 45 37 44 33 4 7 24 
CALL[ ]\011/* CallFunction */";
};
width = 1034;
},
{
anchors = (
{
name = bottom;
position = "{436, 0}";
},
{
name = top;
position = "{628, 1494}";
}
);
layerId = "A8DD961D-2AAA-4421-B000-699D061D5CAD";
paths = (
{
closed = 1;
nodes = (
"672 -16 OFFCURVE",
"900 116 OFFCURVE",
"900 392 CURVE SMOOTH",
"900 580 OFFCURVE",
"788 678 OFFCURVE",
"596 804 CURVE SMOOTH",
"426 916 OFFCURVE",
"330 988 OFFCURVE",
"330 1152 CURVE SMOOTH",
"330 1336 OFFCURVE",
"478 1398 OFFCURVE",
"640 1398 CURVE SMOOTH",
"752 1398 OFFCURVE",
"866 1368 OFFCURVE",
"920 1314 CURVE",
"968 1428 LINE",
"890 1482 OFFCURVE",
"776 1510 OFFCURVE",
"630 1510 CURVE SMOOTH",
"384 1510 OFFCURVE",
"182 1380 OFFCURVE",
"182 1132 CURVE SMOOTH",
"182 932 OFFCURVE",
"308 818 OFFCURVE",
"510 686 CURVE SMOOTH",
"672 582 OFFCURVE",
"748 494 OFFCURVE",
"748 366 CURVE SMOOTH",
"748 188 OFFCURVE",
"592 100 OFFCURVE",
"398 100 CURVE SMOOTH",
"284 100 OFFCURVE",
"110 142 OFFCURVE",
"70 192 CURVE",
"28 72 LINE",
"82 28 OFFCURVE",
"276 -16 OFFCURVE",
"394 -16 CURVE SMOOTH"
);
}
);
userData = {
assembly = "NPUSHB[ ]\011/* 43 values pushed */
20 1 2 1 44 21 2 0 2 43 1 3 0 3 74 0 2 2 1 91 0 1 1 25 75 0 0 0 3 91 0 3 3 26 3 76 45 36 45 34 4 7 24 
CALL[ ]\011/* CallFunction */";
};
width = 1020;
},
{
anchors = (
{
name = bottom;
position = "{437, 0}";
},
{
name = top;
position = "{642, 1494}";
}
);
layerId = "FC25F90A-4039-49BA-9FA9-48428CE1BED8";
paths = (
{
closed = 1;
nodes = (
"680 -16 OFFCURVE",
"908 122 OFFCURVE",
"908 410 CURVE SMOOTH",
"908 592 OFFCURVE",
"796 703 OFFCURVE",
"613 830 CURVE SMOOTH",
"498 909 OFFCURVE",
"390 1044 OFFCURVE",
"392 1152 CURVE SMOOTH",
"397 1290 OFFCURVE",
"510 1342 OFFCURVE",
"651 1342 CURVE SMOOTH",
"741 1342 OFFCURVE",
"856 1313 OFFCURVE",
"910 1259 CURVE",
"979 1426 LINE",
"917 1472 OFFCURVE",
"802 1510 OFFCURVE",
"641 1510 CURVE SMOOTH",
"378 1510 OFFCURVE",
"176 1369 OFFCURVE",
"176 1111 CURVE SMOOTH",
"176 918 OFFCURVE",
"291 792 OFFCURVE",
"474 667 CURVE SMOOTH",
"616 573 OFFCURVE",
"682 475 OFFCURVE",
"682 372 CURVE SMOOTH",
"682 225 OFFCURVE",
"560 156 OFFCURVE",
"390 156 CURVE SMOOTH",
"292 156 OFFCURVE",
"129 205 OFFCURVE",
"87 251 CURVE",
"23 75 LINE",
"76 30 OFFCURVE",
"262 -16 OFFCURVE",
"384 -16 CURVE SMOOTH"
);
}
);
width = 1018;
}
);
leftKerningGroup = S;
note = S;
rightKerningGroup = S;
unicode = 0053;
},
{
color = 7;
glyphname = Germandbls;
lastChange = "2019-04-06 02:49:35 +0000";
layers = (
{
layerId = "9808B12E-936F-4588-BC0B-2F1DE3B33DAD";
paths = (
{
closed = 1;
nodes = (
"1176 -22 OFFCURVE",
"1378 176 OFFCURVE",
"1378 468 CURVE SMOOTH",
"1378 688 OFFCURVE",
"1244 826 OFFCURVE",
"1064 826 CURVE",
"1380 1206 LINE",
"1410 1414 LINE",
"1378 1414 OFFCURVE",
"1348 1420 OFFCURVE",
"1278 1444 CURVE",
"1148 1482 OFFCURVE",
"1058 1506 OFFCURVE",
"916 1506 CURVE SMOOTH",
"440 1506 OFFCURVE",
"224 1196 OFFCURVE",
"166 736 CURVE SMOOTH",
"64 0 LINE",
"380 0 LINE",
"490 796 LINE SMOOTH",
"526 1052 OFFCURVE",
"676 1240 OFFCURVE",
"856 1240 CURVE SMOOTH",
"928 1240 OFFCURVE",
"996 1220 OFFCURVE",
"1038 1194 CURVE",
"752 852 LINE",
"724 658 LINE",
"986 658 OFFCURVE",
"1070 580 OFFCURVE",
"1070 434 CURVE SMOOTH",
"1070 252 OFFCURVE",
"918 218 OFFCURVE",
"838 218 CURVE SMOOTH",
"744 218 OFFCURVE",
"662 250 OFFCURVE",
"616 288 CURVE",
"500 56 LINE",
"588 8 OFFCURVE",
"646 -22 OFFCURVE",
"836 -22 CURVE SMOOTH"
);
}
);
userData = {
assembly = "NPUSHB[ ]\011/* 14 values pushed */
24 1 0 4 36 1 6 5 37 1 3 6 3 74 
MPPEM[ ]\011/* MeasurePixelPerEm */
PUSHB[ ]\011/* 1 value pushed */
22 
LT[ ]\011/* LessThan */
IF[ ]\011/* If */
NPUSHB[ ]\011/* 45 values pushed */
0 1 2 4 2 1 4 112 0 0 4 5 4 0 5 112 0 5 6 4 5 6 110 0 4 4 2 91 0 2 2 17 75 0 6 6 3 91 7 1 3 3 18 3 76 
ELSE[ ]\011/* Else */
NPUSHB[ ]\011/* 49 values pushed */
0 1 2 4 2 1 4 112 0 0 4 5 4 0 5 112 0 5 6 4 5 6 110 0 4 4 2 91 0 2 2 17 75 0 3 3 18 75 0 6 6 7 91 0 7 7 26 7 76 
EIF[ ]\011/* EndIf */
NPUSHB[ ]\011/* 11 values pushed */
37 37 20 35 20 36 18 18 8 7 28 
CALL[ ]\011/* CallFunction */";
};
width = 1476;
},
{
layerId = "A8DD961D-2AAA-4421-B000-699D061D5CAD";
paths = (
{
closed = 1;
nodes = (
"1066 -22 OFFCURVE",
"1294 186 OFFCURVE",
"1310 478 CURVE SMOOTH",
"1322 696 OFFCURVE",
"1118 856 OFFCURVE",
"920 856 CURVE",
"1284 1336 LINE",
"1296 1412 LINE",
"1266 1412 OFFCURVE",
"1242 1422 OFFCURVE",
"1192 1440 CURVE SMOOTH",
"1094 1476 OFFCURVE",
"1016 1502 OFFCURVE",
"880 1502 CURVE SMOOTH",
"462 1502 OFFCURVE",
"252 1186 OFFCURVE",
"202 736 CURVE SMOOTH",
"102 0 LINE",
"252 0 LINE",
"364 818 LINE SMOOTH",
"398 1140 OFFCURVE",
"582 1384 OFFCURVE",
"876 1384 CURVE SMOOTH",
"972 1384 OFFCURVE",
"1054 1358 OFFCURVE",
"1112 1320 CURVE",
"746 832 LINE",
"738 766 LINE",
"1034 766 OFFCURVE",
"1164 662 OFFCURVE",
"1152 460 CURVE SMOOTH",
"1140 248 OFFCURVE",
"972 98 OFFCURVE",
"794 98 CURVE SMOOTH",
"668 98 OFFCURVE",
"574 134 OFFCURVE",
"520 182 CURVE",
"440 62 LINE",
"522 8 OFFCURVE",
"606 -22 OFFCURVE",
"798 -22 CURVE SMOOTH"
);
}
);
userData = {
assembly = "NPUSHB[ ]\011/* 71 values pushed */
35 1 2 6 34 1 5 2 23 1 4 5 22 1 7 4 4 74 0 1 0 6 0 1 6 112 0 2 0 5 4 2 5 99 0 6 6 0 91 0 0 0 17 75 0 7 7 18 75 0 4 4 3 91 0 3 3 26 3 76 20 36 21 37 38 18 20 34 8 7 28 
CALL[ ]\011/* CallFunction */";
};
width = 1402;
},
{
layerId = "FC25F90A-4039-49BA-9FA9-48428CE1BED8";
paths = (
{
closed = 1;
nodes = (
"1146 -22 OFFCURVE",
"1336 196 OFFCURVE",
"1352 494 CURVE SMOOTH",
"1364 700 OFFCURVE",
"1168 870 OFFCURVE",
"990 870 CURVE",
"1328 1296 LINE",
"1344 1418 LINE",
"1312 1418 OFFCURVE",
"1286 1426 OFFCURVE",
"1226 1446 CURVE SMOOTH",
"1124 1480 OFFCURVE",
"1038 1504 OFFCURVE",
"902 1504 CURVE SMOOTH",
"474 1504 OFFCURVE",
"250 1193 OFFCURVE",
"191 736 CURVE SMOOTH",
"89 0 LINE",
"306 0 LINE",
"422 830 LINE SMOOTH",
"460 1106 OFFCURVE",
"614 1314 OFFCURVE",
"868 1314 CURVE SMOOTH",
"936 1314 OFFCURVE",
"1018 1304 OFFCURVE",
"1068 1274 CURVE",
"728 822 LINE",
"720 744 LINE",
"1014 742 OFFCURVE",
"1134 648 OFFCURVE",
"1124 470 CURVE SMOOTH",
"1114 292 OFFCURVE",
"990 158 OFFCURVE",
"840 158 CURVE SMOOTH",
"740 158 OFFCURVE",
"636 198 OFFCURVE",
"594 242 CURVE",
"489 61 LINE",
"567 11 OFFCURVE",
"672 -22 OFFCURVE",
"846 -22 CURVE SMOOTH"
);
}
);
width = 1464;
}
);
leftKerningGroup = Germandbls;
note = uni1E9E;
rightKerningGroup = Germandbls;
unicode = 1E9E;
},
{
color = 7;
glyphname = Schwa;
lastChange = "2019-04-06 02:57:01 +0000";
layers = (
{
anchors = (
{
name = bottom;
position = "{562, 0}";
},
{
name = top;
position = "{758, 1494}";
}
);
background = {
anchors = (
{
name = bottom;
position = "{600, 0}";
},
{
name = center;
position = "{700, 748}";
},
{
name = ogonek;
position = "{890, 20}";
},
{
name = top;
position = "{810, 1494}";
},
{
name = topleft;
position = "{156, 1494}";
},
{
name = topright;
position = "{1438, 1494}";
}
);
paths = (
{
closed = 1;
nodes = (
"1052 -16 OFFCURVE",
"1324 416 OFFCURVE",
"1324 924 CURVE SMOOTH",
"1324 1258 OFFCURVE",
"1136 1510 OFFCURVE",
"794 1510 CURVE SMOOTH",
"334 1510 OFFCURVE",
"56 1074 OFFCURVE",
"56 564 CURVE SMOOTH",
"56 228 OFFCURVE",
"252 -16 OFFCURVE",
"596 -16 CURVE SMOOTH"
);
},
{
closed = 1;
nodes = (
"512 244 OFFCURVE",
"412 348 OFFCURVE",
"412 582 CURVE SMOOTH",
"412 858 OFFCURVE",
"532 1250 OFFCURVE",
"756 1250 CURVE SMOOTH",
"868 1250 OFFCURVE",
"968 1174 OFFCURVE",
"968 914 CURVE SMOOTH",
"968 628 OFFCURVE",
"852 244 OFFCURVE",
"622 244 CURVE SMOOTH"
);
}
);
};
layerId = "9808B12E-936F-4588-BC0B-2F1DE3B33DAD";
paths = (
{
closed = 1;
nodes = (
"1056 -16 OFFCURVE",
"1318 418 OFFCURVE",
"1318 924 CURVE SMOOTH",
"1318 1258 OFFCURVE",
"1114 1510 OFFCURVE",
"708 1510 CURVE SMOOTH",
"570 1510 OFFCURVE",
"390 1476 OFFCURVE",
"300 1422 CURVE",
"290 1124 LINE",
"384 1184 OFFCURVE",
"520 1250 OFFCURVE",
"676 1250 CURVE SMOOTH",
"840 1250 OFFCURVE",
"962 1174 OFFCURVE",
"964 908 CURVE SMOOTH",
"968 432 OFFCURVE",
"798 244 OFFCURVE",
"622 244 CURVE SMOOTH",
"392 244 OFFCURVE",
"348 492 OFFCURVE",
"384 588 CURVE",
"1018 588 LINE",
"1056 830 LINE",
"98 830 LINE",
"76 734 OFFCURVE",
"68 644 OFFCURVE",
"70 562 CURVE SMOOTH",
"78 196 OFFCURVE",
"282 -16 OFFCURVE",
"596 -16 CURVE SMOOTH"
);
}
);
width = 1340;
},
{
anchors = (
{
name = bottom;
position = "{520, 0}";
},
{
name = top;
position = "{716, 1494}";
}
);
background = {
anchors = (
{
name = bottom;
position = "{590, 0}";
},
{
name = center;
position = "{690, 748}";
},
{
name = ogonek;
position = "{760, 20}";
},
{
name = top;
position = "{800, 1494}";
},
{
name = topleft;
position = "{154, 1494}";
},
{
name = topright;
position = "{1420, 1494}";
}
);
paths = (
{
closed = 1;
nodes = (
"1000 -16 OFFCURVE",
"1260 398 OFFCURVE",
"1260 872 CURVE SMOOTH",
"1260 1212 OFFCURVE",
"1110 1510 OFFCURVE",
"784 1510 CURVE SMOOTH",
"368 1510 OFFCURVE",
"100 1092 OFFCURVE",
"100 624 CURVE SMOOTH",
"100 272 OFFCURVE",
"260 -16 OFFCURVE",
"580 -16 CURVE SMOOTH"
);
},
{
closed = 1;
nodes = (
"378 96 OFFCURVE",
"252 282 OFFCURVE",
"252 644 CURVE SMOOTH",
"252 1008 OFFCURVE",
"444 1394 OFFCURVE",
"760 1394 CURVE SMOOTH",
"992 1394 OFFCURVE",
"1106 1206 OFFCURVE",
"1106 844 CURVE SMOOTH",
"1106 476 OFFCURVE",
"924 96 OFFCURVE",
"604 96 CURVE SMOOTH"
);
}
);
};
layerId = "A8DD961D-2AAA-4421-B000-699D061D5CAD";
paths = (
{
closed = 1;
nodes = (
"1000 -16 OFFCURVE",
"1252 398 OFFCURVE",
"1252 872 CURVE SMOOTH",
"1252 1212 OFFCURVE",
"1110 1510 OFFCURVE",
"672 1510 CURVE SMOOTH",
"524 1510 OFFCURVE",
"376 1478 OFFCURVE",
"300 1444 CURVE",
"314 1310 LINE",
"396 1352 OFFCURVE",
"522 1388 OFFCURVE",
"642 1390 CURVE SMOOTH",
"992 1394 OFFCURVE",
"1098 1206 OFFCURVE",
"1098 844 CURVE SMOOTH",
"1098 476 OFFCURVE",
"926 96 OFFCURVE",
"604 96 CURVE SMOOTH",
"370 96 OFFCURVE",
"214 312 OFFCURVE",
"258 676 CURVE",
"1124 676 LINE",
"1138 794 LINE",
"138 794 LINE",
"132 770 OFFCURVE",
"108 706 OFFCURVE",
"108 592 CURVE SMOOTH",
"108 272 OFFCURVE",
"258 -16 OFFCURVE",
"580 -16 CURVE SMOOTH"
);
}
);
width = 1312;
},
{
anchors = (
{
name = bottom;
position = "{517, 0}";
},
{
name = top;
position = "{713, 1496}";
}
);
background = {
anchors = (
{
name = bottom;
position = "{597, 0}";
},
{
name = center;
position = "{697, 748}";
},
{
name = ogonek;
position = "{809, 20}";
},
{
name = top;
position = "{801, 1496}";
},
{
name = topleft;
position = "{159, 1496}";
},
{
name = topright;
position = "{1427, 1496}";
}
);
paths = (
{
closed = 1;
nodes = (
"1015 -16 OFFCURVE",
"1279 400 OFFCURVE",
"1279 884 CURVE SMOOTH",
"1279 1222 OFFCURVE",
"1121 1510 OFFCURVE",
"791 1510 CURVE SMOOTH",
"363 1510 OFFCURVE",
"93 1090 OFFCURVE",
"93 610 CURVE SMOOTH",
"93 266 OFFCURVE",
"257 -16 OFFCURVE",
"583 -16 CURVE SMOOTH"
);
},
{
closed = 1;
nodes = (
"417 150 OFFCURVE",
"325 296 OFFCURVE",
"319 626 CURVE SMOOTH",
"315 958 OFFCURVE",
"477 1340 OFFCURVE",
"759 1340 CURVE SMOOTH",
"965 1340 OFFCURVE",
"1049 1182 OFFCURVE",
"1053 868 CURVE SMOOTH",
"1057 530 OFFCURVE",
"899 150 OFFCURVE",
"613 150 CURVE SMOOTH"
);
}
);
};
layerId = "FC25F90A-4039-49BA-9FA9-48428CE1BED8";
paths = (
{
closed = 1;
nodes = (
"1027 -16 OFFCURVE",
"1273 400 OFFCURVE",
"1273 884 CURVE SMOOTH",
"1273 1222 OFFCURVE",
"1121 1510 OFFCURVE",
"713 1510 CURVE SMOOTH",
"575 1510 OFFCURVE",
"469 1492 OFFCURVE",
"293 1440 CURVE",
"303 1234 LINE",
"371 1276 OFFCURVE",
"523 1324 OFFCURVE",
"687 1324 CURVE SMOOTH",
"955 1324 OFFCURVE",
"1043 1182 OFFCURVE",
"1047 868 CURVE SMOOTH",
"1051 530 OFFCURVE",
"905 150 OFFCURVE",
"619 150 CURVE SMOOTH",
"435 150 OFFCURVE",
"327 296 OFFCURVE",
"321 606 CURVE",
"1053 606 LINE",
"1079 774 LINE",
"123 774 LINE",
"117 746 OFFCURVE",
"99 676 OFFCURVE",
"99 610 CURVE SMOOTH",
"99 266 OFFCURVE",
"269 -16 OFFCURVE",
"583 -16 CURVE SMOOTH"
);
}
);
width = 1330;
}
);
leftKerningGroup = O;
leftMetricsKey = O;
rightKerningGroup = O;
rightMetricsKey = O;
unicode = 018F;
},
{
color = 7;
glyphname = T;
lastChange = "2019-04-06 02:49:35 +0000";
layers = (
{
anchors = (
{
name = bottom;
position = "{490, 0}";
},
{
name = center;
position = "{590, 748}";
},
{
name = top;
position = "{688, 1494}";
}
);
layerId = "9808B12E-936F-4588-BC0B-2F1DE3B33DAD";
paths = (
{
closed = 1;
nodes = (
"658 0 LINE",
"834 1236 LINE",
"1178 1226 LINE",
"1218 1494 LINE",
"176 1494 LINE",
"132 1226 LINE",
"484 1236 LINE",
"306 0 LINE"
);
}
);
userData = {
assembly = "NPUSHB[ ]\011/* 30 values pushed */
4 3 2 1 1 0 89 0 0 0 17 75 0 2 2 18 2 76 0 0 0 7 0 7 17 17 17 5 7 23 
CALL[ ]\011/* CallFunction */";
};
width = 1126;
},
{
anchors = (
{
name = bottom;
position = "{474, 0}";
},
{
name = center;
position = "{574, 748}";
},
{
name = top;
position = "{672, 1494}";
}
);
layerId = "A8DD961D-2AAA-4421-B000-699D061D5CAD";
paths = (
{
closed = 1;
nodes = (
"546 0 LINE",
"722 1386 LINE",
"1154 1376 LINE",
"1170 1494 LINE",
"152 1494 LINE",
"134 1376 LINE",
"576 1386 LINE",
"400 0 LINE"
);
}
);
userData = {
assembly = "NPUSHB[ ]\011/* 30 values pushed */
4 3 2 1 1 0 89 0 0 0 17 75 0 2 2 18 2 76 0 0 0 7 0 7 17 17 17 5 7 23 
CALL[ ]\011/* CallFunction */";
};
width = 1096;
},
{
anchors = (
{
name = bottom;
position = "{477, 0}";
},
{
name = center;
position = "{577, 749}";
},
{
name = top;
position = "{675, 1496}";
}
);
layerId = "FC25F90A-4039-49BA-9FA9-48428CE1BED8";
paths = (
{
closed = 1;
nodes = (
"581 0 LINE",
"752 1333 LINE",
"1152 1322 LINE",
"1174 1494 LINE",
"153 1494 LINE",
"127 1322 LINE",
"533 1333 LINE",
"362 0 LINE"
);
}
);
width = 1101;
}
);
leftKerningGroup = T;
note = T;
rightKerningGroup = T;
unicode = 0054;
},
{
glyphname = Tbar;
lastChange = "2019-04-06 02:49:35 +0000";
layers = (
{
layerId = "9808B12E-936F-4588-BC0B-2F1DE3B33DAD";
paths = (
{
closed = 1;
nodes = (
"670 0 LINE",
"758 620 LINE",
"1002 620 LINE",
"1034 866 LINE",
"794 866 LINE",
"846 1236 LINE",
"1190 1226 LINE",
"1230 1494 LINE",
"188 1494 LINE",
"144 1226 LINE",
"496 1236 LINE",
"442 866 LINE",
"212 866 LINE",
"184 620 LINE",
"408 620 LINE",
"318 0 LINE"
);
}
);
userData = {
assembly = "NPUSHB[ ]\011/* 44 values pushed */
4 1 0 3 1 1 2 0 1 97 8 7 2 5 5 6 89 0 6 6 17 75 0 2 2 18 2 76 0 0 0 15 0 15 17 17 17 17 17 17 17 9 7 27 
CALL[ ]\011/* CallFunction */";
};
width = 1138;
},
{
layerId = "A8DD961D-2AAA-4421-B000-699D061D5CAD";
paths = (
{
closed = 1;
nodes = (
"546 0 LINE",
"636 716 LINE",
"938 716 LINE",
"952 814 LINE",
"650 814 LINE",
"722 1386 LINE",
"1154 1376 LINE",
"1170 1494 LINE",
"152 1494 LINE",
"134 1376 LINE",
"576 1386 LINE",
"502 814 LINE",
"226 814 LINE",
"214 716 LINE",
"490 716 LINE",
"400 0 LINE"
);
}
);
userData = {
assembly = "NPUSHB[ ]\011/* 44 values pushed */
4 1 0 3 1 1 2 0 1 97 8 7 2 5 5 6 89 0 6 6 17 75 0 2 2 18 2 76 0 0 0 15 0 15 17 17 17 17 17 17 17 9 7 27 
CALL[ ]\011/* CallFunction */";
};
width = 1096;
},
{
layerId = "FC25F90A-4039-49BA-9FA9-48428CE1BED8";
paths = (
{
closed = 1;
nodes = (
"583 0 LINE",
"672 692 LINE",
"934 692 LINE",
"952 837 LINE",
"690 837 LINE",
"754 1333 LINE",
"1153 1322 LINE",
"1176 1494 LINE",
"155 1494 LINE",
"129 1322 LINE",
"535 1333 LINE",
"472 837 LINE",
"214 837 LINE",
"196 692 LINE",
"452 692 LINE",
"364 0 LINE"
);
}
);
width = 1103;
}
);
leftKerningGroup = T;
note = Tbar;
rightKerningGroup = T;
unicode = 0166;
},
{
color = 7;
glyphname = U;
lastChange = "2019-04-06 02:49:35 +0000";
layers = (
{
anchors = (
{
name = bottom;
position = "{630, 0}";
},
{
name = ogonek;
position = "{868, 0}";
},
{
name = top;
position = "{828, 1494}";
},
{
name = topright;
position = "{1490, 1494}";
}
);
layerId = "9808B12E-936F-4588-BC0B-2F1DE3B33DAD";
paths = (
{
closed = 1;
nodes = (
"886 -16 OFFCURVE",
"1064 60 OFFCURVE",
"1170 236 CURVE SMOOTH",
"1222 322 OFFCURVE",
"1258 438 OFFCURVE",
"1278 584 CURVE SMOOTH",
"1406 1494 LINE",
"1062 1494 LINE",
"938 620 LINE SMOOTH",
"906 416 OFFCURVE",
"830 250 OFFCURVE",
"660 250 CURVE SMOOTH",
"516 250 OFFCURVE",
"460 300 OFFCURVE",
"460 444 CURVE SMOOTH",
"460 516 OFFCURVE",
"470 574 OFFCURVE",
"476 626 CURVE SMOOTH",
"600 1494 LINE",
"254 1494 LINE",
"126 584 LINE SMOOTH",
"116 522 OFFCURVE",
"112 468 OFFCURVE",
"112 422 CURVE SMOOTH",
"114 144 OFFCURVE",
"276 -16 OFFCURVE",
"606 -16 CURVE SMOOTH"
);
}
);
userData = {
assembly = "NPUSHB[ ]\011/* 24 values pushed */
2 1 0 0 17 75 0 1 1 3 92 0 3 3 26 3 76 36 20 38 16 4 7 24 
CALL[ ]\011/* CallFunction */";
};
width = 1406;
},
{
anchors = (
{
name = bottom;
position = "{590, 0}";
},
{
name = ogonek;
position = "{736, 0}";
},
{
name = top;
position = "{768, 1494}";
},
{
name = topright;
position = "{1412, 1494}";
}
);
layerId = "A8DD961D-2AAA-4421-B000-699D061D5CAD";
paths = (
{
closed = 1;
nodes = (
"818 -16 OFFCURVE",
"974 62 OFFCURVE",
"1072 246 CURVE SMOOTH",
"1120 338 OFFCURVE",
"1154 460 OFFCURVE",
"1174 612 CURVE SMOOTH",
"1286 1494 LINE",
"1142 1494 LINE",
"1032 626 LINE SMOOTH",
"992 306 OFFCURVE",
"888 104 OFFCURVE",
"608 104 CURVE SMOOTH",
"402 104 OFFCURVE",
"300 224 OFFCURVE",
"300 434 CURVE SMOOTH",
"300 484 OFFCURVE",
"304 542 OFFCURVE",
"312 604 CURVE SMOOTH",
"424 1494 LINE",
"278 1494 LINE",
"162 580 LINE SMOOTH",
"154 508 OFFCURVE",
"150 456 OFFCURVE",
"150 424 CURVE SMOOTH",
"150 142 OFFCURVE",
"302 -16 OFFCURVE",
"588 -16 CURVE SMOOTH"
);
}
);
userData = {
assembly = "NPUSHB[ ]\011/* 24 values pushed */
2 1 0 0 17 75 0 1 1 3 91 0 3 3 26 3 76 36 20 37 16 4 7 24 
CALL[ ]\011/* CallFunction */";
};
width = 1328;
},
{
anchors = (
{
name = bottom;
position = "{599, 0}";
},
{
name = ogonek;
position = "{775, 0}";
},
{
name = top;
position = "{786, 1496}";
},
{
name = topright;
position = "{1428, 1496}";
}
);
layerId = "FC25F90A-4039-49BA-9FA9-48428CE1BED8";
paths = (
{
closed = 1;
nodes = (
"826 -16 OFFCURVE",
"990 62 OFFCURVE",
"1091 245 CURVE SMOOTH",
"1142 336 OFFCURVE",
"1176 457 OFFCURVE",
"1196 607 CURVE SMOOTH",
"1310 1494 LINE",
"1096 1494 LINE",
"985 627 LINE SMOOTH",
"942 313 OFFCURVE",
"838 160 OFFCURVE",
"623 160 CURVE SMOOTH",
"452 160 OFFCURVE",
"361 250 OFFCURVE",
"361 437 CURVE SMOOTH",
"361 485 OFFCURVE",
"365 545 OFFCURVE",
"373 616 CURVE SMOOTH",
"486 1494 LINE",
"267 1494 LINE",
"151 581 LINE SMOOTH",
"141 497 OFFCURVE",
"137 457 OFFCURVE",
"137 427 CURVE SMOOTH",
"137 148 OFFCURVE",
"293 -16 OFFCURVE",
"591 -16 CURVE SMOOTH"
);
}
);
width = 1344;
}
);
leftKerningGroup = U;
note = U;
rightKerningGroup = U;
unicode = 0055;
},
{
color = 7;
glyphname = V;
lastChange = "2019-04-06 02:49:35 +0000";
layers = (
{
anchors = (
{
name = bottom;
position = "{528, 0}";
},
{
name = top;
position = "{726, 1494}";
}
);
layerId = "9808B12E-936F-4588-BC0B-2F1DE3B33DAD";
paths = (
{
closed = 1;
nodes = (
"722 0 LINE",
"1368 1494 LINE",
"1000 1494 LINE",
"654 538 LINE",
"578 282 LINE",
"562 538 LINE",
"446 1494 LINE",
"100 1494 LINE",
"320 0 LINE"
);
}
);
userData = {
assembly = "NPUSHB[ ]\011/* 31 values pushed */
2 1 2 1 0 1 74 3 2 2 0 0 17 75 0 1 1 18 1 76 0 0 0 8 0 8 17 20 4 7 22 
CALL[ ]\011/* CallFunction */";
};
width = 1204;
},
{
anchors = (
{
name = bottom;
position = "{498, 0}";
},
{
name = top;
position = "{696, 1494}";
}
);
layerId = "A8DD961D-2AAA-4421-B000-699D061D5CAD";
paths = (
{
closed = 1;
nodes = (
"556 -4 LINE",
"1234 1494 LINE",
"1078 1494 LINE",
"612 424 LINE",
"500 148 LINE",
"460 424 LINE",
"296 1494 LINE",
"150 1494 LINE",
"398 -4 LINE"
);
}
);
userData = {
assembly = "NPUSHB[ ]\011/* 30 values pushed */
2 1 1 0 1 74 3 2 2 0 0 17 75 0 1 1 18 1 76 0 0 0 8 0 8 17 20 4 7 22 
CALL[ ]\011/* CallFunction */";
};
width = 1142;
},
{
anchors = (
{
name = bottom;
position = "{503, 0}";
},
{
name = top;
position = "{701, 1496}";
}
);
layerId = "FC25F90A-4039-49BA-9FA9-48428CE1BED8";
paths = (
{
closed = 1;
nodes = (
"600 0 LINE",
"1274 1494 LINE",
"1042 1494 LINE",
"597 438 LINE",
"514 215 LINE",
"492 438 LINE",
"339 1494 LINE",
"122 1494 LINE",
"364 0 LINE"
);
}
);
width = 1152;
}
);
leftKerningGroup = V;
note = V;
rightKerningGroup = V;
unicode = 0056;
},
{
color = 7;
glyphname = W;
lastChange = "2019-04-06 02:49:35 +0000";
layers = (
{
anchors = (
{
name = bottom;
position = "{806, 0}";
},
{
name = top;
position = "{1004, 1494}";
}
);
layerId = "9808B12E-936F-4588-BC0B-2F1DE3B33DAD";
paths = (
{
closed = 1;
nodes = (
"642 0 LINE",
"836 534 LINE",
"896 698 LINE",
"914 534 LINE",
"970 0 LINE",
"1374 0 LINE",
"1954 1494 LINE",
"1598 1494 LINE",
"1272 538 LINE",
"1220 320 LINE",
"1198 538 LINE",
"1140 1494 LINE",
"802 1494 LINE",
"838 1164 LINE",
"586 538 LINE",
"520 320 LINE",
"500 538 LINE",
"444 1494 LINE",
"94 1494 LINE",
"276 0 LINE"
);
}
);
userData = {
assembly = "NPUSHB[ ]\011/* 38 values pushed */
17 16 11 10 4 5 0 2 1 74 5 4 3 3 2 2 17 75 1 1 0 0 18 0 76 0 0 0 19 0 19 21 17 20 17 6 7 24 
CALL[ ]\011/* CallFunction */";
};
width = 1760;
},
{
anchors = (
{
name = bottom;
position = "{790, 0}";
},
{
name = top;
position = "{988, 1494}";
}
);
layerId = "A8DD961D-2AAA-4421-B000-699D061D5CAD";
paths = (
{
closed = 1;
nodes = (
"522 -10 LINE",
"854 830 LINE",
"936 1060 LINE",
"954 830 LINE",
"1042 -10 LINE",
"1192 -10 LINE",
"1824 1494 LINE",
"1674 1494 LINE",
"1242 416 LINE",
"1146 162 LINE",
"1126 424 LINE",
"1020 1494 LINE",
"878 1494 LINE",
"902 1274 LINE",
"558 416 LINE",
"474 162 LINE",
"434 424 LINE",
"292 1494 LINE",
"146 1494 LINE",
"372 -10 LINE"
);
}
);
userData = {
assembly = "NPUSHB[ ]\011/* 36 values pushed */
17 11 4 3 0 2 1 74 5 4 3 3 2 2 17 75 1 1 0 0 18 0 76 0 0 0 19 0 19 21 17 20 17 6 7 24 
CALL[ ]\011/* CallFunction */";
};
width = 1728;
},
{
anchors = (
{
name = bottom;
position = "{795, 0}";
},
{
name = top;
position = "{993, 1496}";
}
);
layerId = "FC25F90A-4039-49BA-9FA9-48428CE1BED8";
paths = (
{
closed = 1;
nodes = (
"564 -8 LINE",
"866 782 LINE",
"921 950 LINE",
"934 782 LINE",
"1022 -8 LINE",
"1253 -8 LINE",
"1862 1494 LINE",
"1640 1494 LINE",
"1247 443 LINE",
"1177 232 LINE",
"1161 444 LINE",
"1058 1494 LINE",
"848 1494 LINE",
"872 1263 LINE",
"551 443 LINE",
"490 232 LINE",
"462 444 LINE",
"337 1494 LINE",
"119 1494 LINE",
"338 -8 LINE"
);
}
);
width = 1737;
}
);
leftKerningGroup = W;
note = W;
rightKerningGroup = W;
unicode = 0057;
},
{
color = 7;
glyphname = X;
lastChange = "2019-04-06 02:49:35 +0000";
layers = (
{
anchors = (
{
name = bottom;
position = "{534, 0}";
},
{
name = top;
position = "{732, 1494}";
}
);
layerId = "9808B12E-936F-4588-BC0B-2F1DE3B33DAD";
paths = (
{
closed = 1;
nodes = (
"290 0 LINE",
"604 518 LINE",
"800 0 LINE",
"1178 0 LINE",
"838 718 LINE",
"1370 1494 LINE",
"994 1494 LINE",
"684 1012 LINE",
"510 1494 LINE",
"140 1494 LINE",
"454 790 LINE",
"-96 0 LINE"
);
}
);
userData = {
assembly = "NPUSHB[ ]\011/* 29 values pushed */
11 8 5 2 4 2 0 1 74 1 1 0 0 17 75 3 1 2 2 18 2 76 18 18 18 16 4 7 24 
CALL[ ]\011/* CallFunction */";
};
width = 1214;
},
{
anchors = (
{
name = bottom;
position = "{486, 0}";
},
{
name = top;
position = "{684, 1494}";
}
);
layerId = "A8DD961D-2AAA-4421-B000-699D061D5CAD";
paths = (
{
closed = 1;
nodes = (
"144 0 LINE",
"564 640 LINE",
"832 0 LINE",
"1000 0 LINE",
"660 740 LINE",
"1184 1494 LINE",
"1018 1494 LINE",
"604 874 LINE",
"354 1494 LINE",
"192 1494 LINE",
"508 770 LINE",
"-34 0 LINE"
);
}
);
userData = {
assembly = "NPUSHB[ ]\011/* 29 values pushed */
11 8 5 2 4 2 0 1 74 1 1 0 0 17 75 3 1 2 2 18 2 76 18 18 18 16 4 7 24 
CALL[ ]\011/* CallFunction */";
};
width = 1120;
},
{
anchors = (
{
name = bottom;
position = "{499, 0}";
},
{
name = top;
position = "{697, 1496}";
}
);
layerId = "FC25F90A-4039-49BA-9FA9-48428CE1BED8";
paths = (
{
closed = 1;
nodes = (
"195 0 LINE",
"569 592 LINE",
"803 0 LINE",
"1051 0 LINE",
"713 733 LINE",
"1238 1494 LINE",
"994 1494 LINE",
"625 927 LINE",
"410 1494 LINE",
"170 1494 LINE",
"482 777 LINE",
"-65 0 LINE"
);
}
);
width = 1144;
}
);
leftKerningGroup = X;
note = X;
rightKerningGroup = X;
unicode = 0058;
},
{
color = 7;
glyphname = Y;
lastChange = "2019-04-06 02:49:35 +0000";
layers = (
{
anchors = (
{
name = bottom;
position = "{494, 0}";
},
{
name = top;
position = "{692, 1494}";
},
{
name = topleft;
position = "{164, 1494}";
}
);
layerId = "9808B12E-936F-4588-BC0B-2F1DE3B33DAD";
paths = (
{
closed = 1;
nodes = (
"656 0 LINE",
"738 576 LINE",
"1324 1494 LINE",
"940 1494 LINE",
"664 982 LINE",
"606 850 LINE",
"582 982 LINE",
"444 1494 LINE",
"82 1494 LINE",
"392 576 LINE",
"310 0 LINE"
);
}
);
userData = {
assembly = "NPUSHB[ ]\011/* 25 values pushed */
10 3 2 2 0 1 74 1 1 0 0 17 75 0 2 2 18 2 76 18 20 16 3 7 23 
CALL[ ]\011/* CallFunction */";
};
width = 1136;
},
{
anchors = (
{
name = bottom;
position = "{456, 0}";
},
{
name = top;
position = "{654, 1494}";
},
{
name = topleft;
position = "{164, 1494}";
}
);
layerId = "A8DD961D-2AAA-4421-B000-699D061D5CAD";
paths = (
{
closed = 1;
nodes = (
"534 0 LINE",
"606 572 LINE",
"1184 1494 LINE",
"1026 1494 LINE",
"608 800 LINE",
"554 700 LINE",
"514 800 LINE",
"260 1494 LINE",
"102 1494 LINE",
"466 572 LINE",
"392 0 LINE"
);
}
);
userData = {
assembly = "NPUSHB[ ]\011/* 25 values pushed */
10 3 2 2 0 1 74 1 1 0 0 17 75 0 2 2 18 2 76 18 20 16 3 7 23 
CALL[ ]\011/* CallFunction */";
};
width = 1058;
},
{
anchors = (
{
name = bottom;
position = "{463, 0}";
},
{
name = top;
position = "{661, 1496}";
},
{
name = topleft;
position = "{164, 1496}";
}
);
layerId = "FC25F90A-4039-49BA-9FA9-48428CE1BED8";
paths = (
{
closed = 1;
nodes = (
"571 0 LINE",
"646 576 LINE",
"1227 1494 LINE",
"990 1494 LINE",
"608 845 LINE",
"569 762 LINE",
"538 845 LINE",
"313 1494 LINE",
"82 1494 LINE",
"437 576 LINE",
"362 0 LINE"
);
}
);
width = 1071;
}
);
leftKerningGroup = Y;
note = Y;
rightKerningGroup = Y;
unicode = 0059;
},
{
color = 7;
glyphname = Z;
lastChange = "2019-04-06 02:49:35 +0000";
layers = (
{
anchors = (
{
name = bottom;
position = "{492, 0}";
},
{
name = center;
position = "{592, 748}";
},
{
name = top;
position = "{746, 1494}";
}
);
layerId = "9808B12E-936F-4588-BC0B-2F1DE3B33DAD";
paths = (
{
closed = 1;
nodes = (
"978 0 LINE",
"1024 286 LINE",
"420 276 LINE",
"502 348 LINE",
"1228 1410 LINE",
"1206 1494 LINE",
"252 1494 LINE",
"208 1216 LINE",
"780 1226 LINE",
"690 1160 LINE",
"-66 86 LINE",
"-40 0 LINE"
);
}
);
userData = {
assembly = "NPUSHB[ ]\011/* 28 values pushed */
0 0 0 1 89 0 1 1 17 75 0 2 2 3 89 0 3 3 18 3 76 17 19 17 17 4 7 24 
CALL[ ]\011/* CallFunction */";
};
width = 1130;
},
{
anchors = (
{
name = bottom;
position = "{492, 0}";
},
{
name = center;
position = "{592, 748}";
},
{
name = top;
position = "{730, 1494}";
}
);
layerId = "A8DD961D-2AAA-4421-B000-699D061D5CAD";
paths = (
{
closed = 1;
nodes = (
"982 0 LINE",
"1002 126 LINE",
"210 118 LINE",
"332 262 LINE",
"1154 1430 LINE",
"1136 1494 LINE",
"254 1494 LINE",
"238 1370 LINE",
"964 1380 LINE",
"818 1198 LINE",
"14 68 LINE",
"36 0 LINE"
);
}
);
userData = {
assembly = "NPUSHB[ ]\011/* 28 values pushed */
0 0 0 1 89 0 1 1 17 75 0 2 2 3 89 0 3 3 18 3 76 17 19 17 17 4 7 24 
CALL[ ]\011/* CallFunction */";
};
width = 1130;
},
{
anchors = (
{
name = bottom;
position = "{492, 0}";
},
{
name = center;
position = "{592, 749}";
},
{
name = top;
position = "{713, 1496}";
}
);
layerId = "FC25F90A-4039-49BA-9FA9-48428CE1BED8";
paths = (
{
closed = 1;
nodes = (
"980 0 LINE",
"1009 186 LINE",
"296 174 LINE",
"412 304 LINE",
"1168 1410 LINE",
"1142 1494 LINE",
"253 1494 LINE",
"228 1312 LINE",
"886 1325 LINE",
"762 1183 LINE",
"1 86 LINE",
"28 0 LINE"
);
}
);
width = 1130;
}
);
leftKerningGroup = Z;
note = Z;
rightKerningGroup = Z;
unicode = 005A;
},
{
glyphname = a;
lastChange = "2019-04-06 02:49:35 +0000";
layers = (
{
anchors = (
{
name = bottom;
position = "{546, 0}";
},
{
name = ogonek;
position = "{1034, 20}";
},
{
name = top;
position = "{754, 1114}";
}
);
layerId = "9808B12E-936F-4588-BC0B-2F1DE3B33DAD";
paths = (
{
closed = 1;
nodes = (
"542 -16 OFFCURVE",
"654 98 OFFCURVE",
"718 242 CURVE",
"708 0 LINE",
"1020 0 LINE",
"1176 1128 LINE",
"998 1084 LINE",
"928 1108 OFFCURVE",
"832 1128 OFFCURVE",
"754 1128 CURVE SMOOTH",
"344 1128 OFFCURVE",
"68 812 OFFCURVE",
"68 402 CURVE SMOOTH",
"68 154 OFFCURVE",
"166 -16 OFFCURVE",
"396 -16 CURVE SMOOTH"
);
},
{
closed = 1;
nodes = (
"460 218 OFFCURVE",
"432 286 OFFCURVE",
"432 422 CURVE SMOOTH",
"432 588 OFFCURVE",
"478 754 OFFCURVE",
"568 852 CURVE SMOOTH",
"612 900 OFFCURVE",
"666 924 OFFCURVE",
"730 924 CURVE SMOOTH",
"760 924 OFFCURVE",
"786 922 OFFCURVE",
"804 918 CURVE",
"758 592 LINE",
"724 470 OFFCURVE",
"616 218 OFFCURVE",
"518 218 CURVE SMOOTH"
);
}
);
userData = {
assembly = "NPUSHB[ ]\011/* 11 values pushed */
16 1 3 2 21 3 2 4 3 2 74 
MPPEM[ ]\011/* MeasurePixelPerEm */
PUSHB[ ]\011/* 1 value pushed */
31 
LT[ ]\011/* LessThan */
IF[ ]\011/* If */
NPUSHB[ ]\011/* 23 values pushed */
0 3 3 2 91 0 2 2 28 75 5 1 4 4 0 91 1 1 0 0 18 0 76 
ELSE[ ]\011/* Else */
NPUSHB[ ]\011/* 27 values pushed */
0 3 3 2 91 0 2 2 28 75 0 0 0 18 75 5 1 4 4 1 91 0 1 1 26 1 76 
EIF[ ]\011/* EndIf */
NPUSHB[ ]\011/* 13 values pushed */
17 17 17 29 17 28 40 37 35 17 6 7 24 
CALL[ ]\011/* CallFunction */";
};
width = 1224;
},
{
anchors = (
{
name = bottom;
position = "{418, 0}";
},
{
name = ogonek;
position = "{924, 20}";
},
{
name = top;
position = "{684, 1114}";
}
);
layerId = "A8DD961D-2AAA-4421-B000-699D061D5CAD";
paths = (
{
closed = 1;
nodes = (
"536 -16 OFFCURVE",
"672 82 OFFCURVE",
"754 198 CURVE",
"736 0 LINE",
"864 0 LINE",
"1016 1128 LINE",
"906 1094 LINE",
"840 1116 OFFCURVE",
"760 1128 OFFCURVE",
"698 1128 CURVE SMOOTH",
"324 1128 OFFCURVE",
"80 792 OFFCURVE",
"80 406 CURVE SMOOTH",
"80 144 OFFCURVE",
"184 -16 OFFCURVE",
"390 -16 CURVE SMOOTH"
);
},
{
closed = 1;
nodes = (
"294 98 OFFCURVE",
"230 206 OFFCURVE",
"230 422 CURVE SMOOTH",
"230 608 OFFCURVE",
"300 810 OFFCURVE",
"434 932 CURVE SMOOTH",
"500 992 OFFCURVE",
"580 1022 OFFCURVE",
"674 1022 CURVE SMOOTH",
"736 1022 OFFCURVE",
"804 1008 OFFCURVE",
"854 984 CURVE",
"772 364 LINE",
"698 236 OFFCURVE",
"564 98 OFFCURVE",
"414 98 CURVE SMOOTH"
);
}
);
userData = {
assembly = "NPUSHB[ ]\011/* 11 values pushed */
17 1 3 2 23 3 2 4 3 2 74 
MPPEM[ ]\011/* MeasurePixelPerEm */
PUSHB[ ]\011/* 1 value pushed */
31 
LT[ ]\011/* LessThan */
IF[ ]\011/* If */
NPUSHB[ ]\011/* 23 values pushed */
0 3 3 2 91 0 2 2 28 75 5 1 4 4 0 91 1 1 0 0 18 0 76 
ELSE[ ]\011/* Else */
NPUSHB[ ]\011/* 27 values pushed */
0 3 3 2 91 0 2 2 28 75 0 0 0 18 75 5 1 4 4 1 91 0 1 1 26 1 76 
EIF[ ]\011/* EndIf */
NPUSHB[ ]\011/* 13 values pushed */
18 18 18 33 18 32 42 37 36 17 6 7 24 
CALL[ ]\011/* CallFunction */";
};
width = 1104;
},
{
anchors = (
{
name = bottom;
position = "{496, 0}";
},
{
name = ogonek;
position = "{940, 20}";
},
{
name = top;
position = "{698, 1114}";
}
);
layerId = "FC25F90A-4039-49BA-9FA9-48428CE1BED8";
paths = (
{
closed = 1;
nodes = (
"527 -16 OFFCURVE",
"647 77 OFFCURVE",
"727 194 CURVE",
"711 0 LINE",
"903 0 LINE",
"1057 1128 LINE",
"934 1094 LINE",
"867 1113 OFFCURVE",
"777 1128 OFFCURVE",
"710 1128 CURVE SMOOTH",
"327 1128 OFFCURVE",
"78 799 OFFCURVE",
"78 405 CURVE SMOOTH",
"78 144 OFFCURVE",
"179 -16 OFFCURVE",
"385 -16 CURVE SMOOTH"
);
},
{
closed = 1;
nodes = (
"327 146 OFFCURVE",
"301 289 OFFCURVE",
"301 429 CURVE SMOOTH",
"301 597 OFFCURVE",
"356 779 OFFCURVE",
"471 894 CURVE SMOOTH",
"528 951 OFFCURVE",
"599 980 OFFCURVE",
"682 980 CURVE SMOOTH",
"731 980 OFFCURVE",
"777 973 OFFCURVE",
"821 958 CURVE",
"743 408 LINE",
"667 271 OFFCURVE",
"559 146 OFFCURVE",
"433 146 CURVE SMOOTH"
);
}
);
width = 1138;
}
);
leftKerningGroup = a;
note = a;
rightKerningGroup = n;
unicode = 0061;
},
{
glyphname = ae;
lastChange = "2019-04-06 02:49:35 +0000";
layers = (
{
anchors = (
{
name = bottom;
position = "{732, 0}";
},
{
name = top;
position = "{1042, 1114}";
}
);
layerId = "9808B12E-936F-4588-BC0B-2F1DE3B33DAD";
paths = (
{
closed = 1;
nodes = (
"532 -16 OFFCURVE",
"638 118 OFFCURVE",
"712 288 CURVE",
"758 106 OFFCURVE",
"892 -16 OFFCURVE",
"1116 -16 CURVE SMOOTH",
"1300 -16 OFFCURVE",
"1508 76 OFFCURVE",
"1608 212 CURVE",
"1518 380 LINE",
"1464 308 OFFCURVE",
"1314 220 OFFCURVE",
"1202 220 CURVE SMOOTH",
"1096 220 OFFCURVE",
"1062 270 OFFCURVE",
"1062 374 CURVE",
"1396 460 OFFCURVE",
"1654 586 OFFCURVE",
"1654 872 CURVE SMOOTH",
"1654 1034 OFFCURVE",
"1546 1128 OFFCURVE",
"1322 1128 CURVE SMOOTH",
"1220 1128 OFFCURVE",
"1126 1106 OFFCURVE",
"1040 1064 CURVE",
"976 1102 OFFCURVE",
"880 1128 OFFCURVE",
"782 1128 CURVE SMOOTH",
"392 1128 OFFCURVE",
"60 826 OFFCURVE",
"60 402 CURVE SMOOTH",
"60 152 OFFCURVE",
"148 -16 OFFCURVE",
"378 -16 CURVE SMOOTH"
);
},
{
closed = 1;
nodes = (
"434 240 OFFCURVE",
"406 316 OFFCURVE",
"406 402 CURVE SMOOTH",
"406 644 OFFCURVE",
"522 924 OFFCURVE",
"758 924 CURVE SMOOTH",
"790 924 OFFCURVE",
"820 920 OFFCURVE",
"850 912 CURVE",
"772 818 OFFCURVE",
"722 702 OFFCURVE",
"702 564 CURVE",
"678 442 OFFCURVE",
"578 240 OFFCURVE",
"500 240 CURVE SMOOTH"
);
},
{
closed = 1;
nodes = (
"1058 624 OFFCURVE",
"1082 754 OFFCURVE",
"1132 844 CURVE SMOOTH",
"1160 896 OFFCURVE",
"1208 938 OFFCURVE",
"1250 938 CURVE SMOOTH",
"1304 938 OFFCURVE",
"1324 908 OFFCURVE",
"1324 838 CURVE SMOOTH",
"1324 694 OFFCURVE",
"1180 556 OFFCURVE",
"1056 548 CURVE"
);
}
);
userData = {
assembly = "MPPEM[ ]\011/* MeasurePixelPerEm */
PUSHB[ ]\011/* 1 value pushed */
26 
LT[ ]\011/* LessThan */
IF[ ]\011/* If */
NPUSHB[ ]\011/* 20 values pushed */
24 1 6 2 49 1 5 6 33 11 3 3 4 5 4 1 0 4 4 74 
ELSE[ ]\011/* Else */
MPPEM[ ]\011/* MeasurePixelPerEm */
PUSHB[ ]\011/* 1 value pushed */
35 
LT[ ]\011/* LessThan */
IF[ ]\011/* If */
NPUSHB[ ]\011/* 20 values pushed */
24 1 6 2 49 1 5 6 33 11 3 3 8 5 4 1 0 4 4 74 
ELSE[ ]\011/* Else */
NPUSHB[ ]\011/* 20 values pushed */
24 1 6 2 49 1 5 7 33 11 3 3 8 5 4 1 0 4 4 74 
EIF[ ]\011/* EndIf */
EIF[ ]\011/* EndIf */
MPPEM[ ]\011/* MeasurePixelPerEm */
PUSHB[ ]\011/* 1 value pushed */
8 
LT[ ]\011/* LessThan */
IF[ ]\011/* If */
NPUSHB[ ]\011/* 34 values pushed */
0 5 6 4 4 5 104 7 10 2 6 6 2 91 3 1 2 2 28 75 8 9 2 4 4 0 92 1 1 0 0 26 0 76 
ELSE[ ]\011/* Else */
MPPEM[ ]\011/* MeasurePixelPerEm */
PUSHB[ ]\011/* 1 value pushed */
26 
LT[ ]\011/* LessThan */
IF[ ]\011/* If */
NPUSHB[ ]\011/* 35 values pushed */
0 5 6 4 6 5 4 112 7 10 2 6 6 2 91 3 1 2 2 28 75 8 9 2 4 4 0 92 1 1 0 0 26 0 76 
ELSE[ ]\011/* Else */
MPPEM[ ]\011/* MeasurePixelPerEm */
PUSHB[ ]\011/* 1 value pushed */
35 
LT[ ]\011/* LessThan */
IF[ ]\011/* If */
NPUSHB[ ]\011/* 45 values pushed */
0 5 6 8 6 5 8 112 7 10 2 6 6 2 91 3 1 2 2 28 75 0 8 8 0 91 1 1 0 0 26 75 9 1 4 4 0 92 1 1 0 0 26 0 76 
ELSE[ ]\011/* Else */
NPUSHB[ ]\011/* 55 values pushed */
0 5 7 8 7 5 8 112 10 1 6 6 2 91 3 1 2 2 28 75 0 7 7 2 91 3 1 2 2 28 75 0 8 8 0 91 1 1 0 0 26 75 9 1 4 4 0 92 1 1 0 0 26 0 76 
EIF[ ]\011/* EndIf */
EIF[ ]\011/* EndIf */
EIF[ ]\011/* EndIf */
NPUSHB[ ]\011/* 25 values pushed */
37 37 0 0 60 58 52 50 37 47 37 46 41 40 0 36 0 35 35 37 36 39 11 7 24 
CALL[ ]\011/* CallFunction */";
};
width = 1708;
},
{
anchors = (
{
name = bottom;
position = "{720, 0}";
},
{
name = top;
position = "{868, 1114}";
}
);
layerId = "A8DD961D-2AAA-4421-B000-699D061D5CAD";
paths = (
{
closed = 1;
nodes = (
"494 -16 OFFCURVE",
"606 102 OFFCURVE",
"686 260 CURVE",
"732 94 OFFCURVE",
"852 -16 OFFCURVE",
"1046 -16 CURVE SMOOTH",
"1180 -16 OFFCURVE",
"1386 98 OFFCURVE",
"1446 182 CURVE",
"1404 266 LINE",
"1294 156 OFFCURVE",
"1174 100 OFFCURVE",
"1064 100 CURVE SMOOTH",
"892 100 OFFCURVE",
"802 258 OFFCURVE",
"820 432 CURVE",
"1124 448 OFFCURVE",
"1516 598 OFFCURVE",
"1516 884 CURVE SMOOTH",
"1516 998 OFFCURVE",
"1446 1128 OFFCURVE",
"1244 1128 CURVE SMOOTH",
"1146 1128 OFFCURVE",
"1056 1102 OFFCURVE",
"974 1052 CURVE",
"876 1114 OFFCURVE",
"794 1128 OFFCURVE",
"698 1128 CURVE SMOOTH",
"324 1128 OFFCURVE",
"80 792 OFFCURVE",
"80 406 CURVE SMOOTH",
"80 124 OFFCURVE",
"170 -16 OFFCURVE",
"350 -16 CURVE SMOOTH"
);
},
{
closed = 1;
nodes = (
"260 98 OFFCURVE",
"230 248 OFFCURVE",
"230 422 CURVE SMOOTH",
"230 710 OFFCURVE",
"390 1022 OFFCURVE",
"674 1022 CURVE SMOOTH",
"738 1022 OFFCURVE",
"808 1002 OFFCURVE",
"872 968 CURVE",
"742 838 OFFCURVE",
"640 534 OFFCURVE",
"668 374 CURVE",
"580 214 OFFCURVE",
"488 98 OFFCURVE",
"382 98 CURVE SMOOTH"
);
},
{
closed = 1;
nodes = (
"840 690 OFFCURVE",
"910 852 OFFCURVE",
"1024 948 CURVE SMOOTH",
"1080 994 OFFCURVE",
"1142 1018 OFFCURVE",
"1212 1018 CURVE SMOOTH",
"1314 1018 OFFCURVE",
"1370 970 OFFCURVE",
"1370 872 CURVE SMOOTH",
"1370 676 OFFCURVE",
"1060 544 OFFCURVE",
"826 538 CURVE"
);
}
);
userData = {
assembly = "NPUSHB[ ]\011/* 73 values pushed */
22 1 6 2 39 1 9 6 52 10 3 2 4 5 4 3 74 0 9 0 4 5 9 4 99 8 1 6 6 2 91 3 1 2 2 28 75 7 10 2 5 5 0 91 1 1 0 0 26 0 76 0 0 62 61 58 56 50 48 43 41 0 36 0 35 22 35 36 36 38 11 7 25 
CALL[ ]\011/* CallFunction */";
};
width = 1586;
},
{
anchors = (
{
name = bottom;
position = "{735, 0}";
},
{
name = top;
position = "{883, 1114}";
}
);
layerId = "FC25F90A-4039-49BA-9FA9-48428CE1BED8";
paths = (
{
closed = 1;
nodes = (
"509 -16 OFFCURVE",
"619 101 OFFCURVE",
"697 257 CURVE",
"745 93 OFFCURVE",
"868 -16 OFFCURVE",
"1066 -16 CURVE SMOOTH",
"1206 -16 OFFCURVE",
"1420 102 OFFCURVE",
"1481 187 CURVE",
"1421 304 LINE",
"1320 206 OFFCURVE",
"1201 148 OFFCURVE",
"1098 148 CURVE SMOOTH",
"961 148 OFFCURVE",
"890 250 OFFCURVE",
"904 409 CURVE",
"1217 440 OFFCURVE",
"1550 597 OFFCURVE",
"1550 882 CURVE SMOOTH",
"1550 1009 OFFCURVE",
"1458 1128 OFFCURVE",
"1266 1128 CURVE SMOOTH",
"1167 1128 OFFCURVE",
"1076 1104 OFFCURVE",
"994 1055 CURVE",
"891 1117 OFFCURVE",
"819 1128 OFFCURVE",
"718 1128 CURVE SMOOTH",
"332 1128 OFFCURVE",
"78 801 OFFCURVE",
"78 405 CURVE SMOOTH",
"78 130 OFFCURVE",
"179 -16 OFFCURVE",
"366 -16 CURVE SMOOTH"
);
},
{
closed = 1;
nodes = (
"320 150 OFFCURVE",
"301 282 OFFCURVE",
"301 429 CURVE SMOOTH",
"301 689 OFFCURVE",
"433 980 OFFCURVE",
"689 980 CURVE SMOOTH",
"744 980 OFFCURVE",
"799 966 OFFCURVE",
"854 936 CURVE",
"742 809 OFFCURVE",
"682 635 OFFCURVE",
"676 420 CURVE",
"594 250 OFFCURVE",
"507 150 OFFCURVE",
"423 150 CURVE SMOOTH"
);
},
{
closed = 1;
nodes = (
"919 671 OFFCURVE",
"975 818 OFFCURVE",
"1066 909 CURVE SMOOTH",
"1110 954 OFFCURVE",
"1161 976 OFFCURVE",
"1219 976 CURVE SMOOTH",
"1293 976 OFFCURVE",
"1335 944 OFFCURVE",
"1335 863 CURVE SMOOTH",
"1335 696 OFFCURVE",
"1100 563 OFFCURVE",
"907 550 CURVE"
);
}
);
width = 1616;
}
);
leftKerningGroup = a;
note = ae;
rightKerningGroup = e;
unicode = 00E6;
},
{
glyphname = b;
lastChange = "2019-04-06 02:49:35 +0000";
layers = (
{
anchors = (
{
name = bottom;
position = "{556, 0}";
},
{
name = top;
position = "{874, 1114}";
}
);
layerId = "9808B12E-936F-4588-BC0B-2F1DE3B33DAD";
paths = (
{
closed = 1;
nodes = (
"798 -16 OFFCURVE",
"1008 136 OFFCURVE",
"1114 356 CURVE SMOOTH",
"1166 466 OFFCURVE",
"1192 582 OFFCURVE",
"1192 708 CURVE SMOOTH",
"1192 956 OFFCURVE",
"1094 1128 OFFCURVE",
"864 1128 CURVE SMOOTH",
"702 1128 OFFCURVE",
"588 994 OFFCURVE",
"526 834 CURVE",
"546 954 LINE",
"628 1596 LINE",
"294 1596 LINE",
"74 0 LINE",
"254 32 LINE",
"320 6 OFFCURVE",
"426 -16 OFFCURVE",
"504 -16 CURVE SMOOTH"
);
},
{
closed = 1;
nodes = (
"494 190 OFFCURVE",
"468 192 OFFCURVE",
"450 196 CURVE",
"494 504 LINE",
"524 624 OFFCURVE",
"632 890 OFFCURVE",
"740 890 CURVE SMOOTH",
"798 890 OFFCURVE",
"826 822 OFFCURVE",
"826 686 CURVE SMOOTH",
"826 524 OFFCURVE",
"780 358 OFFCURVE",
"692 262 CURVE SMOOTH",
"646 214 OFFCURVE",
"592 190 OFFCURVE",
"528 190 CURVE SMOOTH"
);
}
);
userData = {
assembly = "NPUSHB[ ]\011/* 14 values pushed */
30 29 28 15 4 4 3 11 9 2 0 4 2 74 
MPPEM[ ]\011/* MeasurePixelPerEm */
PUSHB[ ]\011/* 1 value pushed */
33 
LT[ ]\011/* LessThan */
IF[ ]\011/* If */
NPUSHB[ ]\011/* 28 values pushed */
0 1 1 19 75 0 3 3 2 91 5 1 2 2 28 75 6 1 4 4 0 92 0 0 0 26 0 76 
ELSE[ ]\011/* Else */
NPUSHB[ ]\011/* 28 values pushed */
0 1 2 1 114 0 3 3 2 91 5 1 2 2 28 75 6 1 4 4 0 92 0 0 0 26 0 76 
EIF[ ]\011/* EndIf */
NPUSHB[ ]\011/* 19 values pushed */
19 19 0 0 19 32 19 31 25 23 0 18 0 17 21 37 7 7 22 
CALL[ ]\011/* CallFunction */";
};
width = 1260;
},
{
anchors = (
{
name = bottom;
position = "{492, 0}";
},
{
name = top;
position = "{734, 1114}";
}
);
layerId = "A8DD961D-2AAA-4421-B000-699D061D5CAD";
paths = (
{
closed = 1;
nodes = (
"676 -16 OFFCURVE",
"870 152 OFFCURVE",
"966 376 CURVE SMOOTH",
"1012 486 OFFCURVE",
"1036 596 OFFCURVE",
"1036 706 CURVE SMOOTH",
"1036 968 OFFCURVE",
"930 1128 OFFCURVE",
"724 1128 CURVE SMOOTH",
"574 1128 OFFCURVE",
"438 1034 OFFCURVE",
"352 916 CURVE",
"386 1120 LINE",
"444 1598 LINE",
"306 1598 LINE",
"92 2 LINE",
"174 28 LINE",
"240 4 OFFCURVE",
"338 -16 OFFCURVE",
"410 -16 CURVE SMOOTH"
);
},
{
closed = 1;
nodes = (
"370 92 OFFCURVE",
"304 104 OFFCURVE",
"254 126 CURVE",
"340 766 LINE",
"416 888 OFFCURVE",
"550 1016 OFFCURVE",
"700 1016 CURVE SMOOTH",
"820 1016 OFFCURVE",
"884 906 OFFCURVE",
"884 690 CURVE SMOOTH",
"884 512 OFFCURVE",
"816 310 OFFCURVE",
"680 186 CURVE SMOOTH",
"610 124 OFFCURVE",
"528 92 OFFCURVE",
"432 92 CURVE SMOOTH"
);
}
);
userData = {
assembly = "NPUSHB[ ]\011/* 59 values pushed */
29 14 2 4 3 10 9 2 0 4 2 74 0 1 1 19 75 0 3 3 2 91 5 1 2 2 28 75 6 1 4 4 0 91 0 0 0 26 0 76 18 18 0 0 18 32 18 31 25 23 0 17 0 16 20 37 7 7 22 
CALL[ ]\011/* CallFunction */";
};
width = 1132;
},
{
anchors = (
{
name = bottom;
position = "{504, 0}";
},
{
name = top;
position = "{774, 1114}";
}
);
layerId = "FC25F90A-4039-49BA-9FA9-48428CE1BED8";
paths = (
{
closed = 1;
nodes = (
"706 -16 OFFCURVE",
"904 149 OFFCURVE",
"998 373 CURVE SMOOTH",
"1045 483 OFFCURVE",
"1068 595 OFFCURVE",
"1068 708 CURVE SMOOTH",
"1068 967 OFFCURVE",
"967 1128 OFFCURVE",
"762 1128 CURVE SMOOTH",
"618 1128 OFFCURVE",
"493 1036 OFFCURVE",
"409 920 CURVE",
"442 1093 LINE",
"501 1599 LINE",
"294 1599 LINE",
"81 -13 LINE",
"202 20 LINE",
"269 1 OFFCURVE",
"359 -16 OFFCURVE",
"427 -16 CURVE SMOOTH"
);
},
{
closed = 1;
nodes = (
"406 135 OFFCURVE",
"359 142 OFFCURVE",
"318 155 CURVE",
"391 704 LINE",
"459 819 OFFCURVE",
"593 966 OFFCURVE",
"713 966 CURVE SMOOTH",
"813 966 OFFCURVE",
"844 843 OFFCURVE",
"844 685 CURVE SMOOTH",
"844 517 OFFCURVE",
"785 333 OFFCURVE",
"670 220 CURVE SMOOTH",
"611 164 OFFCURVE",
"540 135 OFFCURVE",
"456 135 CURVE SMOOTH"
);
}
);
width = 1156;
}
);
leftKerningGroup = h;
note = b;
rightKerningGroup = o;
unicode = 0062;
},
{
glyphname = c;
lastChange = "2019-04-06 02:49:35 +0000";
layers = (
{
anchors = (
{
name = bottom;
position = "{490, 0}";
},
{
name = top;
position = "{658, 1114}";
}
);
layerId = "9808B12E-936F-4588-BC0B-2F1DE3B33DAD";
paths = (
{
closed = 1;
nodes = (
"678 -16 OFFCURVE",
"820 76 OFFCURVE",
"886 180 CURVE",
"800 348 LINE",
"752 296 OFFCURVE",
"648 236 OFFCURVE",
"570 236 CURVE SMOOTH",
"456 236 OFFCURVE",
"428 328 OFFCURVE",
"428 486 CURVE SMOOTH",
"428 594 OFFCURVE",
"470 708 OFFCURVE",
"528 780 CURVE SMOOTH",
"564 828 OFFCURVE",
"610 858 OFFCURVE",
"652 858 CURVE SMOOTH",
"718 858 OFFCURVE",
"808 792 OFFCURVE",
"846 752 CURVE",
"930 1086 LINE",
"876 1110 OFFCURVE",
"756 1128 OFFCURVE",
"678 1128 CURVE SMOOTH",
"446 1128 OFFCURVE",
"254 1006 OFFCURVE",
"150 794 CURVE SMOOTH",
"98 688 OFFCURVE",
"72 566 OFFCURVE",
"72 432 CURVE SMOOTH",
"72 178 OFFCURVE",
"232 -16 OFFCURVE",
"476 -16 CURVE SMOOTH"
);
}
);
userData = {
assembly = "NPUSHB[ ]\011/* 49 values pushed */
2 1 0 3 18 3 2 1 0 19 1 2 1 3 74 0 0 0 3 91 4 1 3 3 28 75 0 1 1 2 91 0 2 2 26 2 76 0 0 0 30 0 29 38 38 37 5 7 23 
CALL[ ]\011/* CallFunction */";
};
width = 934;
},
{
anchors = (
{
name = bottom;
position = "{450, 0}";
},
{
name = top;
position = "{638, 1114}";
}
);
layerId = "A8DD961D-2AAA-4421-B000-699D061D5CAD";
paths = (
{
closed = 1;
nodes = (
"608 -16 OFFCURVE",
"734 72 OFFCURVE",
"800 160 CURVE",
"750 240 LINE",
"656 144 OFFCURVE",
"576 96 OFFCURVE",
"472 96 CURVE SMOOTH",
"314 96 OFFCURVE",
"236 204 OFFCURVE",
"236 438 CURVE SMOOTH",
"236 640 OFFCURVE",
"316 834 OFFCURVE",
"438 940 CURVE SMOOTH",
"500 994 OFFCURVE",
"564 1020 OFFCURVE",
"634 1020 CURVE SMOOTH",
"708 1020 OFFCURVE",
"778 1002 OFFCURVE",
"824 964 CURVE",
"862 1088 LINE",
"812 1114 OFFCURVE",
"726 1128 OFFCURVE",
"648 1128 CURVE SMOOTH",
"416 1128 OFFCURVE",
"240 970 OFFCURVE",
"152 750 CURVE SMOOTH",
"108 640 OFFCURVE",
"86 530 OFFCURVE",
"86 422 CURVE SMOOTH",
"86 148 OFFCURVE",
"216 -16 OFFCURVE",
"450 -16 CURVE SMOOTH"
);
}
);
userData = {
assembly = "NPUSHB[ ]\011/* 46 values pushed */
2 1 0 3 17 16 3 3 1 0 2 74 0 0 0 3 91 4 1 3 3 28 75 0 1 1 2 91 0 2 2 26 2 76 0 0 0 27 0 26 37 37 37 5 7 23 
CALL[ ]\011/* CallFunction */";
};
width = 890;
},
{
anchors = (
{
name = bottom;
position = "{457, 0}";
},
{
name = top;
position = "{647, 1114}";
}
);
layerId = "FC25F90A-4039-49BA-9FA9-48428CE1BED8";
paths = (
{
closed = 1;
nodes = (
"580 -16 OFFCURVE",
"761 91 OFFCURVE",
"814 165 CURVE",
"748 279 LINE",
"658 190 OFFCURVE",
"579 147 OFFCURVE",
"495 147 CURVE SMOOTH",
"364 147 OFFCURVE",
"302 233 OFFCURVE",
"302 451 CURVE SMOOTH",
"302 645 OFFCURVE",
"375 811 OFFCURVE",
"478 900 CURVE SMOOTH",
"529 943 OFFCURVE",
"582 965 OFFCURVE",
"635 965 CURVE SMOOTH",
"707 965 OFFCURVE",
"772 939 OFFCURVE",
"820 899 CURVE",
"875 1091 LINE",
"824 1117 OFFCURVE",
"734 1128 OFFCURVE",
"655 1128 CURVE SMOOTH",
"419 1128 OFFCURVE",
"239 974 OFFCURVE",
"150 757 CURVE SMOOTH",
"105 648 OFFCURVE",
"82 538 OFFCURVE",
"82 425 CURVE SMOOTH",
"82 151 OFFCURVE",
"212 -16 OFFCURVE",
"456 -16 CURVE SMOOTH"
);
}
);
width = 892;
}
);
leftKerningGroup = o;
note = c;
rightKerningGroup = c;
unicode = 0063;
},
{
glyphname = d;
lastChange = "2019-04-06 02:49:35 +0000";
layers = (
{
anchors = (
{
name = bottom;
position = "{548, 0}";
},
{
name = center;
position = "{622, 558}";
},
{
name = top;
position = "{530, 1114}";
},
{
name = topright;
position = "{1278, 1114}";
}
);
layerId = "9808B12E-936F-4588-BC0B-2F1DE3B33DAD";
paths = (
{
closed = 1;
nodes = (
"556 -16 OFFCURVE",
"668 118 OFFCURVE",
"732 272 CURVE",
"716 0 LINE",
"1028 0 LINE",
"1234 1596 LINE",
"898 1596 LINE",
"834 1124 LINE",
"808 1126 OFFCURVE",
"780 1128 OFFCURVE",
"754 1128 CURVE SMOOTH",
"466 1128 OFFCURVE",
"252 978 OFFCURVE",
"148 756 CURVE SMOOTH",
"94 644 OFFCURVE",
"68 526 OFFCURVE",
"68 402 CURVE SMOOTH",
"68 154 OFFCURVE",
"166 -16 OFFCURVE",
"396 -16 CURVE SMOOTH"
);
},
{
closed = 1;
nodes = (
"460 222 OFFCURVE",
"432 288 OFFCURVE",
"432 422 CURVE SMOOTH",
"432 588 OFFCURVE",
"478 754 OFFCURVE",
"568 852 CURVE SMOOTH",
"612 900 OFFCURVE",
"666 924 OFFCURVE",
"730 924 CURVE SMOOTH",
"758 924 OFFCURVE",
"782 922 OFFCURVE",
"804 916 CURVE",
"762 606 LINE",
"728 484 OFFCURVE",
"620 222 OFFCURVE",
"518 222 CURVE SMOOTH"
);
}
);
userData = {
assembly = "PUSHB[ ]\011/* 7 values pushed */
21 3 2 5 4 1 74 
MPPEM[ ]\011/* MeasurePixelPerEm */
PUSHB[ ]\011/* 1 value pushed */
31 
LT[ ]\011/* LessThan */
IF[ ]\011/* If */
NPUSHB[ ]\011/* 29 values pushed */
6 1 3 3 19 75 0 4 4 2 91 0 2 2 28 75 7 1 5 5 0 91 1 1 0 0 18 0 76 
ELSE[ ]\011/* Else */
MPPEM[ ]\011/* MeasurePixelPerEm */
PUSHB[ ]\011/* 1 value pushed */
33 
LT[ ]\011/* LessThan */
IF[ ]\011/* If */
NPUSHB[ ]\011/* 33 values pushed */
6 1 3 3 19 75 0 4 4 2 91 0 2 2 28 75 0 0 0 18 75 7 1 5 5 1 91 0 1 1 26 1 76 
ELSE[ ]\011/* Else */
NPUSHB[ ]\011/* 33 values pushed */
6 1 3 2 3 114 0 4 4 2 91 0 2 2 28 75 0 0 0 18 75 7 1 5 5 1 91 0 1 1 26 1 76 
EIF[ ]\011/* EndIf */
EIF[ ]\011/* EndIf */
NPUSHB[ ]\011/* 20 values pushed */
17 17 0 0 17 29 17 28 24 22 0 16 0 16 37 35 17 8 7 23 
CALL[ ]\011/* CallFunction */";
};
width = 1244;
},
{
anchors = (
{
name = bottom;
position = "{488, 0}";
},
{
name = center;
position = "{562, 558}";
},
{
name = top;
position = "{530, 1114}";
},
{
name = topright;
position = "{1156, 1114}";
}
);
layerId = "A8DD961D-2AAA-4421-B000-699D061D5CAD";
paths = (
{
closed = 1;
nodes = (
"538 -16 OFFCURVE",
"678 84 OFFCURVE",
"760 204 CURVE",
"740 0 LINE",
"870 0 LINE",
"1088 1598 LINE",
"944 1598 LINE",
"876 1104 LINE",
"810 1120 OFFCURVE",
"752 1128 OFFCURVE",
"702 1128 CURVE SMOOTH",
"432 1128 OFFCURVE",
"242 962 OFFCURVE",
"148 738 CURVE SMOOTH",
"102 626 OFFCURVE",
"78 516 OFFCURVE",
"78 406 CURVE SMOOTH",
"78 144 OFFCURVE",
"182 -16 OFFCURVE",
"388 -16 CURVE SMOOTH"
);
},
{
closed = 1;
nodes = (
"294 98 OFFCURVE",
"228 208 OFFCURVE",
"228 424 CURVE SMOOTH",
"228 602 OFFCURVE",
"298 806 OFFCURVE",
"436 930 CURVE SMOOTH",
"504 992 OFFCURVE",
"586 1022 OFFCURVE",
"680 1022 CURVE SMOOTH",
"742 1022 OFFCURVE",
"806 1010 OFFCURVE",
"860 988 CURVE",
"772 354 LINE",
"696 230 OFFCURVE",
"562 98 OFFCURVE",
"414 98 CURVE SMOOTH"
);
}
);
userData = {
assembly = "NPUSHB[ ]\011/* 11 values pushed */
15 1 4 2 21 3 2 5 4 2 74 
MPPEM[ ]\011/* MeasurePixelPerEm */
PUSHB[ ]\011/* 1 value pushed */
31 
LT[ ]\011/* LessThan */
IF[ ]\011/* If */
NPUSHB[ ]\011/* 29 values pushed */
6 1 3 3 19 75 0 4 4 2 91 0 2 2 28 75 7 1 5 5 0 91 1 1 0 0 18 0 76 
ELSE[ ]\011/* Else */
NPUSHB[ ]\011/* 33 values pushed */
6 1 3 3 19 75 0 4 4 2 91 0 2 2 28 75 0 0 0 18 75 7 1 5 5 1 91 0 1 1 26 1 76 
EIF[ ]\011/* EndIf */
NPUSHB[ ]\011/* 20 values pushed */
17 17 0 0 17 31 17 30 25 23 0 16 0 16 37 35 17 8 7 23 
CALL[ ]\011/* CallFunction */";
};
width = 1122;
},
{
anchors = (
{
name = bottom;
position = "{503, 0}";
},
{
name = center;
position = "{577, 558}";
},
{
name = top;
position = "{530, 1114}";
},
{
name = topright;
position = "{1186, 1114}";
}
);
layerId = "FC25F90A-4039-49BA-9FA9-48428CE1BED8";
paths = (
{
closed = 1;
nodes = (
"527 -16 OFFCURVE",
"653 79 OFFCURVE",
"735 201 CURVE",
"719 0 LINE",
"913 0 LINE",
"1127 1599 LINE",
"913 1599 LINE",
"847 1116 LINE",
"799 1125 OFFCURVE",
"756 1128 OFFCURVE",
"717 1128 CURVE SMOOTH",
"438 1128 OFFCURVE",
"242 965 OFFCURVE",
"148 743 CURVE SMOOTH",
"101 631 OFFCURVE",
"77 518 OFFCURVE",
"77 405 CURVE SMOOTH",
"77 144 OFFCURVE",
"177 -16 OFFCURVE",
"383 -16 CURVE SMOOTH"
);
},
{
closed = 1;
nodes = (
"331 147 OFFCURVE",
"300 275 OFFCURVE",
"300 429 CURVE SMOOTH",
"300 595 OFFCURVE",
"359 779 OFFCURVE",
"476 894 CURVE SMOOTH",
"534 951 OFFCURVE",
"604 980 OFFCURVE",
"688 980 CURVE SMOOTH",
"738 980 OFFCURVE",
"784 972 OFFCURVE",
"826 956 CURVE",
"751 413 LINE",
"682 293 OFFCURVE",
"550 147 OFFCURVE",
"431 147 CURVE SMOOTH"
);
}
);
width = 1152;
}
);
leftKerningGroup = o;
note = d;
rightKerningGroup = l;
unicode = 0064;
},
{
glyphname = eth;
lastChange = "2019-04-06 02:49:35 +0000";
layers = (
{
layerId = "9808B12E-936F-4588-BC0B-2F1DE3B33DAD";
paths = (
{
closed = 1;
nodes = (
"778 -16 OFFCURVE",
"966 132 OFFCURVE",
"1060 374 CURVE SMOOTH",
"1106 494 OFFCURVE",
"1130 630 OFFCURVE",
"1130 784 CURVE SMOOTH",
"1130 1086 OFFCURVE",
"1030 1388 OFFCURVE",
"808 1572 CURVE",
"790 1458 LINE",
"976 1666 LINE",
"860 1778 LINE",
"668 1560 LINE",
"784 1590 LINE",
"672 1680 OFFCURVE",
"554 1742 OFFCURVE",
"428 1772 CURVE",
"370 1596 LINE",
"480 1566 OFFCURVE",
"558 1512 OFFCURVE",
"642 1428 CURVE",
"640 1548 LINE",
"454 1362 LINE",
"578 1252 LINE",
"742 1432 LINE",
"658 1410 LINE",
"738 1306 OFFCURVE",
"786 1220 OFFCURVE",
"794 1084 CURVE",
"760 1114 OFFCURVE",
"700 1130 OFFCURVE",
"616 1130 CURVE SMOOTH",
"258 1130 OFFCURVE",
"72 776 OFFCURVE",
"72 438 CURVE SMOOTH",
"72 162 OFFCURVE",
"274 -16 OFFCURVE",
"514 -16 CURVE SMOOTH"
);
},
{
closed = 1;
nodes = (
"478 178 OFFCURVE",
"430 288 OFFCURVE",
"430 418 CURVE SMOOTH",
"430 540 OFFCURVE",
"458 714 OFFCURVE",
"510 830 CURVE SMOOTH",
"542 902 OFFCURVE",
"586 952 OFFCURVE",
"636 952 CURVE SMOOTH",
"710 952 OFFCURVE",
"750 922 OFFCURVE",
"772 876 CURVE",
"772 588 OFFCURVE",
"702 178 OFFCURVE",
"544 178 CURVE SMOOTH"
);
}
);
userData = {
assembly = "NPUSHB[ ]\011/* 53 values pushed */
16 1 2 1 51 1 3 2 2 74 33 32 31 28 26 25 22 21 20 19 10 1 72 0 2 2 1 91 0 1 1 28 75 0 3 3 0 91 0 0 0 26 0 76 45 43 38 36 38 37 4 7 22 
CALL[ ]\011/* CallFunction */";
};
width = 1194;
},
{
layerId = "A8DD961D-2AAA-4421-B000-699D061D5CAD";
paths = (
{
closed = 1;
nodes = (
"712 -16 OFFCURVE",
"888 150 OFFCURVE",
"976 414 CURVE SMOOTH",
"1018 544 OFFCURVE",
"1040 690 OFFCURVE",
"1040 848 CURVE SMOOTH",
"1040 1140 OFFCURVE",
"932 1366 OFFCURVE",
"702 1568 CURVE",
"708 1504 LINE",
"886 1706 LINE",
"812 1774 LINE",
"634 1568 LINE",
"696 1570 LINE",
"598 1636 OFFCURVE",
"456 1708 OFFCURVE",
"374 1728 CURVE",
"340 1638 LINE",
"416 1620 OFFCURVE",
"530 1558 OFFCURVE",
"628 1482 CURVE",
"632 1558 LINE",
"428 1344 LINE",
"508 1278 LINE",
"708 1500 LINE",
"628 1484 LINE",
"790 1350 OFFCURVE",
"868 1222 OFFCURVE",
"900 1016 CURVE",
"854 1088 OFFCURVE",
"744 1128 OFFCURVE",
"630 1128 CURVE SMOOTH",
"300 1128 OFFCURVE",
"86 798 OFFCURVE",
"86 426 CURVE SMOOTH",
"86 192 OFFCURVE",
"236 -16 OFFCURVE",
"478 -16 CURVE SMOOTH"
);
},
{
closed = 1;
nodes = (
"368 86 OFFCURVE",
"244 286 OFFCURVE",
"244 418 CURVE SMOOTH",
"244 632 OFFCURVE",
"306 826 OFFCURVE",
"422 938 CURVE SMOOTH",
"480 994 OFFCURVE",
"548 1022 OFFCURVE",
"626 1022 CURVE SMOOTH",
"776 1022 OFFCURVE",
"876 912 OFFCURVE",
"892 818 CURVE",
"892 512 OFFCURVE",
"772 86 OFFCURVE",
"498 86 CURVE SMOOTH"
);
}
);
userData = {
assembly = "NPUSHB[ ]\011/* 49 values pushed */
17 1 3 2 1 74 37 34 33 30 27 26 23 22 21 20 10 1 72 0 2 2 1 91 0 1 1 28 75 0 3 3 0 91 0 0 0 26 0 76 56 54 48 46 38 37 4 7 22 
CALL[ ]\011/* CallFunction */";
};
width = 1134;
},
{
layerId = "FC25F90A-4039-49BA-9FA9-48428CE1BED8";
paths = (
{
closed = 1;
nodes = (
"733 -16 OFFCURVE",
"914 147 OFFCURVE",
"1004 408 CURVE SMOOTH",
"1049 536 OFFCURVE",
"1071 680 OFFCURVE",
"1071 838 CURVE SMOOTH",
"1071 1126 OFFCURVE",
"980 1367 OFFCURVE",
"753 1564 CURVE",
"734 1471 LINE",
"924 1683 LINE",
"825 1775 LINE",
"646 1569 LINE",
"731 1584 LINE",
"633 1658 OFFCURVE",
"478 1720 OFFCURVE",
"390 1745 CURVE",
"345 1619 LINE",
"424 1600 OFFCURVE",
"548 1545 OFFCURVE",
"633 1461 CURVE",
"627 1541 LINE",
"431 1338 LINE",
"538 1248 LINE",
"723 1457 LINE",
"644 1451 LINE",
"786 1330 OFFCURVE",
"842 1213 OFFCURVE",
"866 1029 CURVE",
"822 1095 OFFCURVE",
"728 1129 OFFCURVE",
"628 1129 CURVE SMOOTH",
"294 1129 OFFCURVE",
"83 801 OFFCURVE",
"83 424 CURVE SMOOTH",
"83 184 OFFCURVE",
"237 -16 OFFCURVE",
"487 -16 CURVE SMOOTH"
);
},
{
closed = 1;
nodes = (
"388 129 OFFCURVE",
"315 256 OFFCURVE",
"315 421 CURVE SMOOTH",
"315 604 OFFCURVE",
"361 790 OFFCURVE",
"454 902 CURVE SMOOTH",
"501 956 OFFCURVE",
"557 984 OFFCURVE",
"626 984 CURVE SMOOTH",
"760 984 OFFCURVE",
"854 864 OFFCURVE",
"854 775 CURVE SMOOTH",
"854 539 OFFCURVE",
"728 129 OFFCURVE",
"515 129 CURVE SMOOTH"
);
}
);
width = 1159;
}
);
leftKerningGroup = o;
note = eth;
rightKerningGroup = eth;
unicode = 00F0;
},
{
glyphname = dcaron;
lastChange = "2019-04-06 02:49:35 +0000";
layers = (
{
components = (
{
alignment = -1;
name = d;
}
);
layerId = "9808B12E-936F-4588-BC0B-2F1DE3B33DAD";
paths = (
{
closed = 1;
nodes = (
"1594 1108 OFFCURVE",
"1648 1296 OFFCURVE",
"1648 1458 CURVE SMOOTH",
"1648 1540 OFFCURVE",
"1634 1618 OFFCURVE",
"1610 1642 CURVE",
"1386 1596 LINE",
"1368 1554 LINE",
"1384 1532 OFFCURVE",
"1392 1466 OFFCURVE",
"1392 1358 CURVE SMOOTH",
"1392 1248 OFFCURVE",
"1376 1128 OFFCURVE",
"1352 1064 CURVE",
"1358 1040 LINE",
"1504 1012 LINE"
);
}
);
width = 1562;
},
{
components = (
{
alignment = -1;
name = d;
}
);
layerId = "A8DD961D-2AAA-4421-B000-699D061D5CAD";
paths = (
{
closed = 1;
nodes = (
"1346 1090 OFFCURVE",
"1396 1256 OFFCURVE",
"1402 1394 CURVE SMOOTH",
"1402 1474 OFFCURVE",
"1402 1558 OFFCURVE",
"1374 1618 CURVE",
"1244 1584 LINE",
"1238 1560 LINE",
"1254 1534 OFFCURVE",
"1266 1470 OFFCURVE",
"1266 1392 CURVE SMOOTH",
"1266 1286 OFFCURVE",
"1242 1170 OFFCURVE",
"1196 1040 CURVE",
"1200 1020 LINE",
"1276 992 LINE"
);
}
);
width = 1396;
},
{
components = (
{
alignment = -1;
name = d;
}
);
layerId = "FC25F90A-4039-49BA-9FA9-48428CE1BED8";
paths = (
{
closed = 1;
nodes = (
"1404 1088 OFFCURVE",
"1452 1263 OFFCURVE",
"1452 1398 CURVE SMOOTH",
"1452 1502 OFFCURVE",
"1444 1570 OFFCURVE",
"1422 1616 CURVE",
"1241 1571 LINE",
"1231 1538 LINE",
"1249 1509 OFFCURVE",
"1260 1429 OFFCURVE",
"1260 1350 CURVE SMOOTH",
"1260 1256 OFFCURVE",
"1245 1151 OFFCURVE",
"1220 1048 CURVE",
"1226 1023 LINE",
"1332 986 LINE"
);
}
);
width = 1423;
}
);
leftKerningGroup = o;
note = dcaron;
rightKerningGroup = l;
unicode = 010F;
},
{
glyphname = dcroat;
lastChange = "2019-04-06 02:49:35 +0000";
layers = (
{
components = (
{
name = d;
}
);
layerId = "9808B12E-936F-4588-BC0B-2F1DE3B33DAD";
paths = (
{
closed = 1;
nodes = (
"1352 1232 LINE",
"1368 1360 LINE",
"642 1360 LINE",
"626 1232 LINE"
);
}
);
userData = {
assembly = "NPUSHB[ ]\011/* 11 values pushed */
16 1 8 3 29 4 2 9 8 2 74 
MPPEM[ ]\011/* MeasurePixelPerEm */
PUSHB[ ]\011/* 1 value pushed */
31 
LT[ ]\011/* LessThan */
IF[ ]\011/* If */
NPUSHB[ ]\011/* 38 values pushed */
7 1 5 4 1 0 3 5 0 98 0 6 6 19 75 0 8 8 3 91 0 3 3 28 75 10 1 9 9 1 91 2 1 1 1 18 1 76 
ELSE[ ]\011/* Else */
MPPEM[ ]\011/* MeasurePixelPerEm */
PUSHB[ ]\011/* 1 value pushed */
33 
LT[ ]\011/* LessThan */
IF[ ]\011/* If */
NPUSHB[ ]\011/* 42 values pushed */
7 1 5 4 1 0 3 5 0 98 0 6 6 19 75 0 8 8 3 91 0 3 3 28 75 0 1 1 18 75 10 1 9 9 2 91 0 2 2 26 2 76 
ELSE[ ]\011/* Else */
NPUSHB[ ]\011/* 42 values pushed */
0 6 5 6 114 7 1 5 4 1 0 3 5 0 98 0 8 8 3 91 0 3 3 28 75 0 1 1 18 75 10 1 9 9 2 91 0 2 2 26 2 76 
EIF[ ]\011/* EndIf */
EIF[ ]\011/* EndIf */
NPUSHB[ ]\011/* 18 values pushed */
25 25 25 37 25 36 38 17 17 17 18 37 35 17 16 11 7 29 
CALL[ ]\011/* CallFunction */";
};
width = 1244;
},
{
components = (
{
name = d;
}
);
layerId = "A8DD961D-2AAA-4421-B000-699D061D5CAD";
paths = (
{
closed = 1;
nodes = (
"1182 1262 LINE",
"1196 1360 LINE",
"626 1360 LINE",
"614 1262 LINE"
);
}
);
userData = {
assembly = "NPUSHB[ ]\011/* 11 values pushed */
16 1 8 3 29 4 2 9 8 2 74 
MPPEM[ ]\011/* MeasurePixelPerEm */
PUSHB[ ]\011/* 1 value pushed */
31 
LT[ ]\011/* LessThan */
IF[ ]\011/* If */
NPUSHB[ ]\011/* 38 values pushed */
7 1 5 4 1 0 3 5 0 98 0 6 6 19 75 0 8 8 3 91 0 3 3 28 75 10 1 9 9 1 91 2 1 1 1 18 1 76 
ELSE[ ]\011/* Else */
NPUSHB[ ]\011/* 42 values pushed */
7 1 5 4 1 0 3 5 0 98 0 6 6 19 75 0 8 8 3 91 0 3 3 28 75 0 1 1 18 75 10 1 9 9 2 91 0 2 2 26 2 76 
EIF[ ]\011/* EndIf */
NPUSHB[ ]\011/* 18 values pushed */
25 25 25 39 25 38 39 17 17 17 18 37 35 17 16 11 7 29 
CALL[ ]\011/* CallFunction */";
};
width = 1122;
},
{
components = (
{
alignment = -1;
name = d;
}
);
layerId = "FC25F90A-4039-49BA-9FA9-48428CE1BED8";
paths = (
{
closed = 1;
nodes = (
"1209 1232 LINE",
"1225 1360 LINE",
"631 1360 LINE",
"616 1232 LINE"
);
}
);
width = 1152;
}
);
leftKerningGroup = o;
note = dcroat;
rightKerningGroup = l;
unicode = 0111;
},
{
glyphname = e;
lastChange = "2019-04-06 02:49:35 +0000";
layers = (
{
anchors = (
{
name = bottom;
position = "{510, 0}";
},
{
name = ogonek;
position = "{808, 20}";
},
{
name = top;
position = "{698, 1114}";
}
);
layerId = "9808B12E-936F-4588-BC0B-2F1DE3B33DAD";
paths = (
{
closed = 1;
nodes = (
"676 -16 OFFCURVE",
"888 78 OFFCURVE",
"986 212 CURVE",
"896 380 LINE",
"842 308 OFFCURVE",
"690 220 OFFCURVE",
"580 220 CURVE SMOOTH",
"484 220 OFFCURVE",
"446 260 OFFCURVE",
"438 346 CURVE SMOOTH",
"438 354 OFFCURVE",
"438 364 OFFCURVE",
"438 374 CURVE",
"772 460 OFFCURVE",
"1032 604 OFFCURVE",
"1032 872 CURVE SMOOTH",
"1032 1022 OFFCURVE",
"924 1128 OFFCURVE",
"700 1128 CURVE SMOOTH",
"468 1128 OFFCURVE",
"266 1004 OFFCURVE",
"156 790 CURVE SMOOTH",
"100 684 OFFCURVE",
"72 564 OFFCURVE",
"72 432 CURVE SMOOTH",
"72 270 OFFCURVE",
"128 128 OFFCURVE",
"256 46 CURVE SMOOTH",
"318 4 OFFCURVE",
"398 -16 OFFCURVE",
"494 -16 CURVE SMOOTH"
);
},
{
closed = 1;
nodes = (
"436 616 OFFCURVE",
"444 730 OFFCURVE",
"500 820 CURVE SMOOTH",
"542 886 OFFCURVE",
"574 938 OFFCURVE",
"622 938 CURVE SMOOTH",
"676 938 OFFCURVE",
"696 908 OFFCURVE",
"696 838 CURVE SMOOTH",
"696 694 OFFCURVE",
"558 556 OFFCURVE",
"434 548 CURVE"
);
}
);
userData = {
assembly = "NPUSHB[ ]\011/* 11 values pushed */
13 6 2 0 4 14 1 1 0 2 74 
MPPEM[ ]\011/* MeasurePixelPerEm */
PUSHB[ ]\011/* 1 value pushed */
8 
LT[ ]\011/* LessThan */
IF[ ]\011/* If */
NPUSHB[ ]\011/* 29 values pushed */
0 4 3 0 0 4 104 0 3 3 2 91 5 1 2 2 28 75 0 0 0 1 92 0 1 1 26 1 76 
ELSE[ ]\011/* Else */
NPUSHB[ ]\011/* 30 values pushed */
0 4 3 0 3 4 0 112 0 3 3 2 91 5 1 2 2 28 75 0 0 0 1 92 0 1 1 26 1 76 
EIF[ ]\011/* EndIf */
NPUSHB[ ]\011/* 15 values pushed */
0 0 34 33 30 28 0 26 0 25 39 40 6 7 22 
CALL[ ]\011/* CallFunction */";
};
width = 1086;
},
{
anchors = (
{
name = bottom;
position = "{490, 0}";
},
{
name = ogonek;
position = "{636, 20}";
},
{
name = top;
position = "{658, 1114}";
}
);
layerId = "A8DD961D-2AAA-4421-B000-699D061D5CAD";
paths = (
{
closed = 1;
nodes = (
"600 -16 OFFCURVE",
"806 100 OFFCURVE",
"866 182 CURVE",
"824 266 LINE",
"718 156 OFFCURVE",
"594 100 OFFCURVE",
"484 100 CURVE SMOOTH",
"308 100 OFFCURVE",
"240 232 OFFCURVE",
"240 400 CURVE SMOOTH",
"240 414 OFFCURVE",
"240 426 OFFCURVE",
"242 432 CURVE",
"594 468 OFFCURVE",
"936 618 OFFCURVE",
"936 884 CURVE SMOOTH",
"936 1038 OFFCURVE",
"810 1128 OFFCURVE",
"664 1128 CURVE SMOOTH",
"446 1128 OFFCURVE",
"268 998 OFFCURVE",
"168 786 CURVE SMOOTH",
"118 680 OFFCURVE",
"90 560 OFFCURVE",
"88 430 CURVE SMOOTH",
"82 276 OFFCURVE",
"134 134 OFFCURVE",
"248 48 CURVE SMOOTH",
"306 6 OFFCURVE",
"378 -16 OFFCURVE",
"468 -16 CURVE SMOOTH"
);
},
{
closed = 1;
nodes = (
"260 690 OFFCURVE",
"332 852 OFFCURVE",
"446 948 CURVE SMOOTH",
"502 994 OFFCURVE",
"564 1018 OFFCURVE",
"632 1018 CURVE SMOOTH",
"734 1018 OFFCURVE",
"792 970 OFFCURVE",
"792 872 CURVE SMOOTH",
"792 674 OFFCURVE",
"478 544 OFFCURVE",
"246 538 CURVE"
);
}
);
userData = {
assembly = "NPUSHB[ ]\011/* 53 values pushed */
16 15 2 1 0 1 74 0 5 0 0 1 5 0 99 0 4 4 3 91 6 1 3 3 28 75 0 1 1 2 91 0 2 2 26 2 76 0 0 36 35 32 30 0 28 0 27 38 36 22 7 7 23 
CALL[ ]\011/* CallFunction */";
};
width = 1006;
},
{
anchors = (
{
name = bottom;
position = "{491, 0}";
},
{
name = ogonek;
position = "{647, 20}";
},
{
name = top;
position = "{666, 1114}";
}
);
layerId = "FC25F90A-4039-49BA-9FA9-48428CE1BED8";
paths = (
{
closed = 1;
nodes = (
"613 -16 OFFCURVE",
"826 101 OFFCURVE",
"887 187 CURVE",
"828 304 LINE",
"725 206 OFFCURVE",
"608 148 OFFCURVE",
"505 148 CURVE SMOOTH",
"367 148 OFFCURVE",
"312 245 OFFCURVE",
"309 377 CURVE",
"309 388 OFFCURVE",
"309 398 OFFCURVE",
"309 409 CURVE",
"622 440 OFFCURVE",
"953 597 OFFCURVE",
"953 882 CURVE SMOOTH",
"953 1009 OFFCURVE",
"856 1128 OFFCURVE",
"673 1128 CURVE SMOOTH",
"447 1128 OFFCURVE",
"263 996 OFFCURVE",
"162 781 CURVE SMOOTH",
"111 673 OFFCURVE",
"83 553 OFFCURVE",
"82 423 CURVE SMOOTH",
"81 265 OFFCURVE",
"134 127 OFFCURVE",
"252 45 CURVE SMOOTH",
"311 4 OFFCURVE",
"384 -16 OFFCURVE",
"473 -16 CURVE SMOOTH"
);
},
{
closed = 1;
nodes = (
"325 671 OFFCURVE",
"381 818 OFFCURVE",
"472 909 CURVE SMOOTH",
"517 954 OFFCURVE",
"567 976 OFFCURVE",
"625 976 CURVE SMOOTH",
"699 976 OFFCURVE",
"739 944 OFFCURVE",
"739 863 CURVE SMOOTH",
"739 696 OFFCURVE",
"496 556 OFFCURVE",
"313 550 CURVE"
);
}
);
width = 1022;
}
);
leftKerningGroup = o;
note = e;
rightKerningGroup = e;
unicode = 0065;
},
{
glyphname = schwa;
lastChange = "2019-04-06 02:49:35 +0000";
layers = (
{
anchors = (
{
name = bottom;
position = "{388, 0}";
},
{
name = ogonek;
position = "{278, 1094}";
},
{
name = top;
position = "{576, 1114}";
}
);
layerId = "9808B12E-936F-4588-BC0B-2F1DE3B33DAD";
paths = (
{
closed = 1;
nodes = (
"410 1130 OFFCURVE",
"198 1036 OFFCURVE",
"100 902 CURVE",
"190 734 LINE",
"244 806 OFFCURVE",
"396 894 OFFCURVE",
"506 894 CURVE SMOOTH",
"602 894 OFFCURVE",
"640 854 OFFCURVE",
"648 768 CURVE SMOOTH",
"648 760 OFFCURVE",
"648 750 OFFCURVE",
"648 740 CURVE",
"314 654 OFFCURVE",
"54 510 OFFCURVE",
"54 242 CURVE SMOOTH",
"54 92 OFFCURVE",
"162 -14 OFFCURVE",
"386 -14 CURVE SMOOTH",
"618 -14 OFFCURVE",
"820 110 OFFCURVE",
"930 324 CURVE SMOOTH",
"986 430 OFFCURVE",
"1014 550 OFFCURVE",
"1014 682 CURVE SMOOTH",
"1014 844 OFFCURVE",
"958 986 OFFCURVE",
"830 1068 CURVE SMOOTH",
"768 1110 OFFCURVE",
"688 1130 OFFCURVE",
"592 1130 CURVE SMOOTH"
);
},
{
closed = 1;
nodes = (
"650 498 OFFCURVE",
"642 384 OFFCURVE",
"586 294 CURVE SMOOTH",
"544 228 OFFCURVE",
"512 176 OFFCURVE",
"464 176 CURVE SMOOTH",
"410 176 OFFCURVE",
"390 206 OFFCURVE",
"390 276 CURVE SMOOTH",
"390 420 OFFCURVE",
"528 558 OFFCURVE",
"652 566 CURVE"
);
}
);
width = 1076;
},
{
anchors = (
{
name = bottom;
position = "{348, 0}";
},
{
name = ogonek;
position = "{370, 1094}";
},
{
name = top;
position = "{516, 1114}";
}
);
layerId = "A8DD961D-2AAA-4421-B000-699D061D5CAD";
paths = (
{
closed = 1;
nodes = (
"406 1130 OFFCURVE",
"200 1014 OFFCURVE",
"140 932 CURVE",
"182 848 LINE",
"288 958 OFFCURVE",
"412 1014 OFFCURVE",
"522 1014 CURVE SMOOTH",
"698 1014 OFFCURVE",
"766 882 OFFCURVE",
"766 714 CURVE SMOOTH",
"766 700 OFFCURVE",
"766 688 OFFCURVE",
"764 682 CURVE",
"412 646 OFFCURVE",
"70 496 OFFCURVE",
"70 230 CURVE SMOOTH",
"70 76 OFFCURVE",
"196 -14 OFFCURVE",
"342 -14 CURVE SMOOTH",
"560 -14 OFFCURVE",
"738 116 OFFCURVE",
"838 328 CURVE SMOOTH",
"888 434 OFFCURVE",
"916 554 OFFCURVE",
"918 684 CURVE SMOOTH",
"924 838 OFFCURVE",
"872 980 OFFCURVE",
"758 1066 CURVE SMOOTH",
"700 1108 OFFCURVE",
"628 1130 OFFCURVE",
"538 1130 CURVE SMOOTH"
);
},
{
closed = 1;
nodes = (
"746 424 OFFCURVE",
"674 262 OFFCURVE",
"560 166 CURVE SMOOTH",
"504 120 OFFCURVE",
"442 96 OFFCURVE",
"374 96 CURVE SMOOTH",
"272 96 OFFCURVE",
"214 144 OFFCURVE",
"214 242 CURVE SMOOTH",
"214 440 OFFCURVE",
"528 570 OFFCURVE",
"760 576 CURVE"
);
}
);
width = 1006;
},
{
anchors = (
{
name = bottom;
position = "{357, 0}";
},
{
name = ogonek;
position = "{375, 1094}";
},
{
name = top;
position = "{531, 1114}";
}
);
layerId = "FC25F90A-4039-49BA-9FA9-48428CE1BED8";
paths = (
{
closed = 1;
nodes = (
"408 1130 OFFCURVE",
"196 1012 OFFCURVE",
"136 926 CURVE",
"194 810 LINE",
"296 908 OFFCURVE",
"414 966 OFFCURVE",
"518 966 CURVE SMOOTH",
"654 966 OFFCURVE",
"710 868 OFFCURVE",
"712 738 CURVE",
"712 726 OFFCURVE",
"712 716 OFFCURVE",
"712 706 CURVE",
"400 674 OFFCURVE",
"70 516 OFFCURVE",
"70 232 CURVE SMOOTH",
"70 104 OFFCURVE",
"166 -14 OFFCURVE",
"348 -14 CURVE SMOOTH",
"574 -14 OFFCURVE",
"758 118 OFFCURVE",
"860 332 CURVE SMOOTH",
"912 440 OFFCURVE",
"938 560 OFFCURVE",
"940 692 CURVE SMOOTH",
"942 850 OFFCURVE",
"888 988 OFFCURVE",
"770 1068 CURVE SMOOTH",
"712 1110 OFFCURVE",
"638 1130 OFFCURVE",
"550 1130 CURVE SMOOTH"
);
},
{
closed = 1;
nodes = (
"696 442 OFFCURVE",
"642 296 OFFCURVE",
"550 206 CURVE SMOOTH",
"506 160 OFFCURVE",
"454 138 OFFCURVE",
"396 138 CURVE SMOOTH",
"324 138 OFFCURVE",
"284 170 OFFCURVE",
"284 250 CURVE SMOOTH",
"284 418 OFFCURVE",
"526 558 OFFCURVE",
"708 564 CURVE"
);
}
);
width = 1024;
}
);
leftKerningGroup = o;
rightKerningGroup = o;
unicode = 0259;
},
{
glyphname = ezh;
lastChange = "2019-04-06 02:49:35 +0000";
layers = (
{
anchors = (
{
name = bottom;
position = "{386, 0}";
},
{
name = center;
position = "{460, 558}";
},
{
name = top;
position = "{580, 1114}";
}
);
background = {
components = (
{
name = z;
transform = "{1, 0, 0, 1, -10, 0}";
},
{
name = three;
transform = "{1, 0, 0, 1, -62, -142}";
}
);
paths = (
{
closed = 1;
nodes = (
"1008 1076 LINE",
"956 1134 LINE",
"930 1112 OFFCURVE",
"890 1102 OFFCURVE",
"844 1102 CURVE",
"716 1102 OFFCURVE",
"460 1130 OFFCURVE",
"270 1140 CURVE",
"126 1140 OFFCURVE",
"98 1026 OFFCURVE",
"98 854 CURVE SMOOTH",
"98 796 OFFCURVE",
"102 746 OFFCURVE",
"106 716 CURVE",
"188 716 LINE",
"206 794 OFFCURVE",
"256 864 OFFCURVE",
"360 864 CURVE",
"658 864 LINE",
"570 812 LINE",
"268 454 LINE",
"332 360 LINE",
"362 378 OFFCURVE",
"394 392 OFFCURVE",
"424 392 CURVE SMOOTH",
"528 392 OFFCURVE",
"560 316 OFFCURVE",
"560 218 CURVE SMOOTH",
"560 -2 OFFCURVE",
"408 -148 OFFCURVE",
"152 -148 CURVE SMOOTH",
"84 -148 OFFCURVE",
"26 -134 OFFCURVE",
"-40 -108 CURVE",
"-60 -256 LINE",
"0 -274 OFFCURVE",
"66 -302 OFFCURVE",
"188 -302 CURVE SMOOTH",
"608 -302 OFFCURVE",
"884 -108 OFFCURVE",
"884 196 CURVE SMOOTH",
"884 318 OFFCURVE",
"798 502 OFFCURVE",
"612 502 CURVE SMOOTH",
"566 502 OFFCURVE",
"538 494 OFFCURVE",
"522 490 CURVE"
);
}
);
};
layerId = "9808B12E-936F-4588-BC0B-2F1DE3B33DAD";
paths = (
{
closed = 1;
nodes = (
"648 -330 OFFCURVE",
"884 -128 OFFCURVE",
"888 182 CURVE SMOOTH",
"888 318 OFFCURVE",
"830 504 OFFCURVE",
"528 496 CURVE",
"982 1070 LINE",
"948 1114 LINE",
"146 1114 LINE",
"110 852 LINE",
"534 852 LINE",
"424 736 LINE",
"206 436 LINE",
"358 320 LINE",
"478 320 OFFCURVE",
"580 292 OFFCURVE",
"580 178 CURVE SMOOTH",
"580 28 OFFCURVE",
"500 -60 OFFCURVE",
"190 -60 CURVE SMOOTH",
"144 -60 OFFCURVE",
"94 -58 OFFCURVE",
"48 -40 CURVE",
"10 -286 LINE",
"70 -290 OFFCURVE",
"130 -296 OFFCURVE",
"190 -300 CURVE SMOOTH"
);
}
);
width = 972;
},
{
anchors = (
{
name = bottom;
position = "{356, 0}";
},
{
name = center;
position = "{430, 558}";
},
{
name = top;
position = "{516, 1114}";
}
);
background = {
components = (
{
name = z;
transform = "{1, 0, 0, 1, -20, 0}";
},
{
name = three;
transform = "{1, 0, 0, 1, -72, -142}";
}
);
};
layerId = "A8DD961D-2AAA-4421-B000-699D061D5CAD";
paths = (
{
closed = 1;
nodes = (
"546 -294 OFFCURVE",
"796 -94 OFFCURVE",
"796 202 CURVE SMOOTH",
"796 374 OFFCURVE",
"660 502 OFFCURVE",
"450 502 CURVE",
"892 1052 LINE",
"860 1114 LINE",
"158 1114 LINE",
"140 998 LINE",
"710 998 LINE",
"540 806 LINE",
"282 482 LINE",
"368 408 LINE",
"530 420 OFFCURVE",
"642 352 OFFCURVE",
"642 180 CURVE SMOOTH",
"642 -48 OFFCURVE",
"448 -182 OFFCURVE",
"176 -182 CURVE SMOOTH",
"110 -182 OFFCURVE",
"60 -182 OFFCURVE",
"4 -172 CURVE",
"-10 -286 LINE",
"56 -288 OFFCURVE",
"120 -294 OFFCURVE",
"190 -294 CURVE SMOOTH"
);
}
);
width = 900;
},
{
anchors = (
{
name = bottom;
position = "{366, 0}";
},
{
name = center;
position = "{440, 558}";
},
{
name = top;
position = "{528, 1114}";
}
);
layerId = "FC25F90A-4039-49BA-9FA9-48428CE1BED8";
paths = (
{
closed = 1;
nodes = (
"580 -294 OFFCURVE",
"822 -110 OFFCURVE",
"828 192 CURVE SMOOTH",
"830 340 OFFCURVE",
"704 496 OFFCURVE",
"494 496 CURVE",
"916 1050 LINE",
"876 1114 LINE",
"150 1114 LINE",
"122 944 LINE",
"640 944 LINE",
"524 838 LINE",
"234 462 LINE",
"318 360 LINE",
"484 360 OFFCURVE",
"584 308 OFFCURVE",
"582 180 CURVE SMOOTH",
"582 -18 OFFCURVE",
"430 -134 OFFCURVE",
"182 -134 CURVE SMOOTH",
"116 -134 OFFCURVE",
"74 -128 OFFCURVE",
"18 -118 CURVE",
"-4 -286 LINE",
"62 -288 OFFCURVE",
"126 -294 OFFCURVE",
"196 -294 CURVE SMOOTH"
);
}
);
width = 908;
}
);
leftKerningGroup = ezh;
rightKerningGroup = ezh;
unicode = 0292;
},
{
glyphname = f;
lastChange = "2019-04-06 02:49:35 +0000";
layers = (
{
anchors = (
{
name = bottom;
position = "{300, 0}";
},
{
name = top;
position = "{584, 1578}";
}
);
layerId = "9808B12E-936F-4588-BC0B-2F1DE3B33DAD";
paths = (
{
closed = 1;
nodes = (
"448 0 LINE",
"572 902 LINE",
"754 902 LINE",
"780 1114 LINE",
"596 1114 LINE",
"624 1268 LINE SMOOTH",
"642 1380 OFFCURVE",
"682 1420 OFFCURVE",
"752 1420 CURVE SMOOTH",
"800 1420 OFFCURVE",
"856 1390 OFFCURVE",
"872 1374 CURVE",
"932 1606 LINE",
"890 1622 OFFCURVE",
"832 1630 OFFCURVE",
"758 1630 CURVE SMOOTH",
"584 1630 OFFCURVE",
"446 1558 OFFCURVE",
"360 1432 CURVE SMOOTH",
"318 1368 OFFCURVE",
"290 1296 OFFCURVE",
"280 1216 CURVE",
"260 1114 LINE",
"152 1114 LINE",
"112 902 LINE",
"232 902 LINE",
"108 0 LINE"
);
}
);
userData = {
assembly = "NPUSHB[ ]\011/* 10 values pushed */
9 1 2 1 10 1 0 2 2 74 
MPPEM[ ]\011/* MeasurePixelPerEm */
PUSHB[ ]\011/* 1 value pushed */
33 
LT[ ]\011/* LessThan */
IF[ ]\011/* If */
NPUSHB[ ]\011/* 29 values pushed */
0 2 2 1 91 0 1 1 27 75 7 6 2 4 4 0 89 3 1 0 0 20 75 0 5 5 18 5 76 
ELSE[ ]\011/* Else */
NPUSHB[ ]\011/* 27 values pushed */
0 1 0 2 0 1 2 99 7 6 2 4 4 0 89 3 1 0 0 20 75 0 5 5 18 5 76 
EIF[ ]\011/* EndIf */
NPUSHB[ ]\011/* 15 values pushed */
0 0 0 24 0 24 17 17 20 36 36 17 8 7 26 
CALL[ ]\011/* CallFunction */";
};
width = 748;
},
{
anchors = (
{
name = bottom;
position = "{266, 0}";
},
{
name = top;
position = "{620, 1612}";
}
);
layerId = "A8DD961D-2AAA-4421-B000-699D061D5CAD";
paths = (
{
closed = 1;
nodes = (
"308 0 LINE",
"442 998 LINE",
"686 998 LINE",
"696 1114 LINE",
"458 1114 LINE",
"478 1272 LINE SMOOTH",
"498 1408 OFFCURVE",
"580 1526 OFFCURVE",
"702 1526 CURVE SMOOTH",
"758 1526 OFFCURVE",
"802 1516 OFFCURVE",
"832 1496 CURVE",
"868 1614 LINE",
"822 1632 OFFCURVE",
"778 1638 OFFCURVE",
"720 1638 CURVE SMOOTH",
"576 1638 OFFCURVE",
"462 1568 OFFCURVE",
"396 1448 CURVE SMOOTH",
"362 1386 OFFCURVE",
"340 1316 OFFCURVE",
"330 1234 CURVE SMOOTH",
"312 1114 LINE",
"170 1112 LINE",
"148 998 LINE",
"296 998 LINE",
"164 0 LINE"
);
}
);
userData = {
assembly = "NPUSHB[ ]\011/* 10 values pushed */
10 1 2 1 11 1 0 2 2 74 
MPPEM[ ]\011/* MeasurePixelPerEm */
PUSHB[ ]\011/* 1 value pushed */
29 
LT[ ]\011/* LessThan */
IF[ ]\011/* If */
NPUSHB[ ]\011/* 29 values pushed */
0 2 2 1 91 0 1 1 27 75 7 6 2 4 4 0 89 3 1 0 0 20 75 0 5 5 18 5 76 
ELSE[ ]\011/* Else */
NPUSHB[ ]\011/* 27 values pushed */
0 1 0 2 0 1 2 99 7 6 2 4 4 0 89 3 1 0 0 20 75 0 5 5 18 5 76 
EIF[ ]\011/* EndIf */
NPUSHB[ ]\011/* 15 values pushed */
0 0 0 24 0 24 17 17 20 36 36 17 8 7 26 
CALL[ ]\011/* CallFunction */";
};
width = 678;
},
{
anchors = (
{
name = bottom;
position = "{271, 0}";
},
{
name = top;
position = "{602, 1606}";
}
);
layerId = "FC25F90A-4039-49BA-9FA9-48428CE1BED8";
paths = (
{
closed = 1;
nodes = (
"353 0 LINE",
"482 951 LINE",
"692 951 LINE",
"706 1114 LINE",
"504 1114 LINE",
"525 1261 LINE SMOOTH",
"543 1391 OFFCURVE",
"608 1480 OFFCURVE",
"706 1480 CURVE",
"765 1482 OFFCURVE",
"800 1468 OFFCURVE",
"825 1446 CURVE",
"877 1615 LINE",
"836 1632 OFFCURVE",
"786 1640 OFFCURVE",
"727 1640 CURVE SMOOTH",
"573 1640 OFFCURVE",
"457 1570 OFFCURVE",
"384 1449 CURVE SMOOTH",
"344 1382 OFFCURVE",
"317 1301 OFFCURVE",
"303 1207 CURVE SMOOTH",
"289 1114 LINE",
"164 1114 LINE",
"134 951 LINE",
"267 951 LINE",
"138 0 LINE"
);
}
);
width = 689;
}
);
leftKerningGroup = f;
note = f;
rightKerningGroup = f;
unicode = 0066;
},
{
glyphname = g;
lastChange = "2019-04-06 02:49:35 +0000";
layers = (
{
anchors = (
{
name = bottom;
position = "{474, -546}";
},
{
name = top;
position = "{748, 1114}";
}
);
layerId = "9808B12E-936F-4588-BC0B-2F1DE3B33DAD";
paths = (
{
closed = 1;
nodes = (
"600 -504 OFFCURVE",
"788 -450 OFFCURVE",
"904 -312 CURVE SMOOTH",
"962 -240 OFFCURVE",
"1004 -146 OFFCURVE",
"1020 -28 CURVE SMOOTH",
"1180 1128 LINE",
"996 1084 LINE",
"930 1108 OFFCURVE",
"832 1128 OFFCURVE",
"754 1128 CURVE SMOOTH",
"466 1128 OFFCURVE",
"252 978 OFFCURVE",
"148 756 CURVE SMOOTH",
"94 644 OFFCURVE",
"68 526 OFFCURVE",
"68 402 CURVE SMOOTH",
"68 154 OFFCURVE",
"166 -16 OFFCURVE",
"396 -16 CURVE SMOOTH",
"548 -16 OFFCURVE",
"656 104 OFFCURVE",
"722 250 CURVE",
"660 -94 LINE SMOOTH",
"636 -230 OFFCURVE",
"580 -300 OFFCURVE",
"450 -300 CURVE SMOOTH",
"358 -300 OFFCURVE",
"208 -244 OFFCURVE",
"170 -212 CURVE",
"120 -460 LINE",
"162 -482 OFFCURVE",
"294 -504 OFFCURVE",
"384 -504 CURVE SMOOTH"
);
},
{
closed = 1;
nodes = (
"460 222 OFFCURVE",
"432 288 OFFCURVE",
"432 422 CURVE SMOOTH",
"432 588 OFFCURVE",
"478 754 OFFCURVE",
"568 852 CURVE SMOOTH",
"612 900 OFFCURVE",
"666 924 OFFCURVE",
"730 924 CURVE SMOOTH",
"758 924 OFFCURVE",
"782 922 OFFCURVE",
"802 920 CURVE",
"758 594 LINE",
"724 472 OFFCURVE",
"616 222 OFFCURVE",
"518 222 CURVE SMOOTH"
);
}
);
userData = {
assembly = "NPUSHB[ ]\011/* 65 values pushed */
29 1 4 3 34 16 2 5 4 8 1 1 2 7 1 0 1 4 74 0 4 4 3 91 0 3 3 28 75 6 1 5 5 2 91 0 2 2 26 75 0 1 1 0 91 0 0 0 30 0 76 30 30 30 42 30 41 40 37 37 38 35 7 7 25 
CALL[ ]\011/* CallFunction */";
};
width = 1240;
},
{
anchors = (
{
name = bottom;
position = "{416, -546}";
},
{
name = top;
position = "{700, 1114}";
}
);
layerId = "A8DD961D-2AAA-4421-B000-699D061D5CAD";
paths = (
{
closed = 1;
nodes = (
"506 -494 OFFCURVE",
"654 -444 OFFCURVE",
"760 -324 CURVE SMOOTH",
"812 -262 OFFCURVE",
"844 -184 OFFCURVE",
"858 -86 CURVE SMOOTH",
"1030 1128 LINE",
"916 1094 LINE",
"852 1112 OFFCURVE",
"766 1128 OFFCURVE",
"702 1128 CURVE SMOOTH",
"432 1128 OFFCURVE",
"242 962 OFFCURVE",
"148 738 CURVE SMOOTH",
"102 626 OFFCURVE",
"78 516 OFFCURVE",
"78 406 CURVE SMOOTH",
"78 144 OFFCURVE",
"182 -16 OFFCURVE",
"388 -16 CURVE SMOOTH",
"538 -16 OFFCURVE",
"678 84 OFFCURVE",
"760 204 CURVE",
"712 -90 LINE SMOOTH",
"680 -280 OFFCURVE",
"568 -382 OFFCURVE",
"390 -382 CURVE SMOOTH",
"300 -382 OFFCURVE",
"208 -362 OFFCURVE",
"150 -336 CURVE",
"112 -458 LINE",
"152 -476 OFFCURVE",
"276 -494 OFFCURVE",
"362 -494 CURVE SMOOTH"
);
},
{
closed = 1;
nodes = (
"294 98 OFFCURVE",
"228 208 OFFCURVE",
"228 424 CURVE SMOOTH",
"228 602 OFFCURVE",
"298 802 OFFCURVE",
"436 928 CURVE SMOOTH",
"504 990 OFFCURVE",
"586 1022 OFFCURVE",
"680 1022 CURVE SMOOTH",
"742 1022 OFFCURVE",
"810 1008 OFFCURVE",
"864 986 CURVE",
"770 350 LINE",
"694 228 OFFCURVE",
"556 98 OFFCURVE",
"414 98 CURVE SMOOTH"
);
}
);
userData = {
assembly = "NPUSHB[ ]\011/* 58 values pushed */
29 1 4 3 16 1 5 4 9 1 1 2 8 1 0 1 4 74 0 4 4 3 91 0 3 3 28 75 0 5 5 2 91 0 2 2 26 75 0 1 1 0 91 0 0 0 22 0 76 37 37 37 37 37 36 6 7 26 
CALL[ ]\011/* CallFunction */";
};
width = 1122;
},
{
anchors = (
{
name = bottom;
position = "{428, -546}";
},
{
name = top;
position = "{716, 1114}";
}
);
layerId = "FC25F90A-4039-49BA-9FA9-48428CE1BED8";
paths = (
{
closed = 1;
nodes = (
"535 -495 OFFCURVE",
"689 -447 OFFCURVE",
"798 -324 CURVE SMOOTH",
"852 -262 OFFCURVE",
"887 -182 OFFCURVE",
"901 -80 CURVE SMOOTH",
"1066 1128 LINE",
"942 1094 LINE",
"872 1113 OFFCURVE",
"785 1128 OFFCURVE",
"717 1128 CURVE SMOOTH",
"438 1128 OFFCURVE",
"242 965 OFFCURVE",
"148 743 CURVE SMOOTH",
"101 631 OFFCURVE",
"77 518 OFFCURVE",
"77 405 CURVE SMOOTH",
"77 144 OFFCURVE",
"177 -16 OFFCURVE",
"383 -16 CURVE SMOOTH",
"525 -16 OFFCURVE",
"649 78 OFFCURVE",
"732 195 CURVE",
"682 -94 LINE SMOOTH",
"651 -257 OFFCURVE",
"578 -340 OFFCURVE",
"423 -340 CURVE SMOOTH",
"329 -340 OFFCURVE",
"226 -313 OFFCURVE",
"167 -282 CURVE",
"119 -459 LINE",
"159 -475 OFFCURVE",
"294 -495 OFFCURVE",
"381 -495 CURVE SMOOTH"
);
},
{
closed = 1;
nodes = (
"331 147 OFFCURVE",
"300 275 OFFCURVE",
"300 429 CURVE SMOOTH",
"300 595 OFFCURVE",
"359 779 OFFCURVE",
"476 894 CURVE SMOOTH",
"534 951 OFFCURVE",
"604 980 OFFCURVE",
"688 980 CURVE SMOOTH",
"739 980 OFFCURVE",
"784 973 OFFCURVE",
"825 959 CURVE",
"748 407 LINE",
"670 271 OFFCURVE",
"548 147 OFFCURVE",
"431 147 CURVE SMOOTH"
);
}
);
width = 1148;
}
);
leftKerningGroup = a;
note = g;
rightKerningGroup = g;
unicode = 0067;
},
{
glyphname = h;
lastChange = "2019-04-06 02:49:35 +0000";
layers = (
{
anchors = (
{
name = bottom;
position = "{568, 0}";
},
{
name = center;
position = "{698, 984}";
},
{
name = top;
position = "{458, 1516}";
}
);
layerId = "9808B12E-936F-4588-BC0B-2F1DE3B33DAD";
paths = (
{
closed = 1;
nodes = (
"416 0 LINE",
"508 682 LINE",
"564 792 OFFCURVE",
"654 866 OFFCURVE",
"726 866 CURVE SMOOTH",
"782 866 OFFCURVE",
"808 840 OFFCURVE",
"806 770 CURVE SMOOTH",
"804 722 OFFCURVE",
"794 632 OFFCURVE",
"778 498 CURVE SMOOTH",
"762 366 OFFCURVE",
"740 200 OFFCURVE",
"710 0 CURVE",
"1058 0 LINE",
"1076 100 OFFCURVE",
"1168 790 OFFCURVE",
"1168 834 CURVE SMOOTH",
"1168 1044 OFFCURVE",
"1074 1128 OFFCURVE",
"898 1128 CURVE SMOOTH",
"748 1128 OFFCURVE",
"618 1044 OFFCURVE",
"530 900 CURVE",
"558 1046 LINE",
"630 1596 LINE",
"292 1596 LINE",
"76 0 LINE"
);
}
);
userData = {
assembly = "PUSHB[ ]\011/* 6 values pushed */
26 1 1 4 1 74 
MPPEM[ ]\011/* MeasurePixelPerEm */
PUSHB[ ]\011/* 1 value pushed */
33 
LT[ ]\011/* LessThan */
IF[ ]\011/* If */
NPUSHB[ ]\011/* 26 values pushed */
0 1 4 0 4 1 0 112 0 3 3 19 75 5 1 4 4 28 75 2 1 0 0 18 0 76 
ELSE[ ]\011/* Else */
NPUSHB[ ]\011/* 32 values pushed */
0 1 4 0 4 1 0 112 0 3 3 0 89 2 1 0 0 18 75 5 1 4 4 28 75 2 1 0 0 18 0 76 
EIF[ ]\011/* EndIf */
NPUSHB[ ]\011/* 13 values pushed */
0 0 0 29 0 28 17 19 38 25 6 7 24 
CALL[ ]\011/* CallFunction */";
};
width = 1284;
},
{
anchors = (
{
name = bottom;
position = "{512, 0}";
},
{
name = center;
position = "{642, 984}";
},
{
name = top;
position = "{370, 1516}";
}
);
layerId = "A8DD961D-2AAA-4421-B000-699D061D5CAD";
paths = (
{
closed = 1;
nodes = (
"240 0 LINE",
"334 704 LINE",
"426 830 OFFCURVE",
"612 994 OFFCURVE",
"754 994 CURVE SMOOTH",
"856 994 OFFCURVE",
"890 948 OFFCURVE",
"890 842 CURVE SMOOTH",
"890 776 OFFCURVE",
"876 686 OFFCURVE",
"850 500 CURVE SMOOTH",
"846 476 OFFCURVE",
"782 44 OFFCURVE",
"774 0 CURVE",
"920 0 LINE",
"1002 522 OFFCURVE",
"1038 782 OFFCURVE",
"1038 854 CURVE SMOOTH",
"1038 1040 OFFCURVE",
"970 1128 OFFCURVE",
"812 1128 CURVE SMOOTH",
"652 1128 OFFCURVE",
"474 1008 OFFCURVE",
"348 850 CURVE",
"392 1130 LINE",
"446 1598 LINE",
"300 1598 LINE",
"94 0 LINE"
);
}
);
userData = {
assembly = "NPUSHB[ ]\011/* 42 values pushed */
29 1 0 1 1 74 0 3 3 19 75 0 1 1 4 91 5 1 4 4 28 75 2 1 0 0 18 0 76 0 0 0 32 0 31 17 20 41 24 6 7 24 
CALL[ ]\011/* CallFunction */";
};
width = 1170;
},
{
anchors = (
{
name = bottom;
position = "{521, 0}";
},
{
name = center;
position = "{651, 984}";
},
{
name = top;
position = "{392, 1516}";
}
);
layerId = "FC25F90A-4039-49BA-9FA9-48428CE1BED8";
paths = (
{
closed = 1;
nodes = (
"299 0 LINE",
"395 701 LINE",
"470 801 OFFCURVE",
"645 938 OFFCURVE",
"745 938 CURVE SMOOTH",
"814 938 OFFCURVE",
"843 914 OFFCURVE",
"843 826 CURVE SMOOTH",
"843 777 OFFCURVE",
"833 695 OFFCURVE",
"815 565 CURVE SMOOTH",
"786 374 OFFCURVE",
"768 252 OFFCURVE",
"733 0 CURVE",
"951 0 LINE",
"1026 492 OFFCURVE",
"1064 777 OFFCURVE",
"1064 844 CURVE SMOOTH",
"1064 1046 OFFCURVE",
"990 1128 OFFCURVE",
"839 1128 CURVE SMOOTH",
"686 1128 OFFCURVE",
"526 1031 OFFCURVE",
"413 891 CURVE",
"449 1118 LINE",
"505 1599 LINE",
"290 1599 LINE",
"85 0 LINE"
);
}
);
width = 1188;
}
);
leftKerningGroup = h;
note = h;
rightKerningGroup = n;
unicode = 0068;
},
{
glyphname = hbar;
lastChange = "2019-04-06 02:49:35 +0000";
layers = (
{
components = (
{
name = h;
}
);
layerId = "9808B12E-936F-4588-BC0B-2F1DE3B33DAD";
paths = (
{
closed = 1;
nodes = (
"790 1232 LINE",
"804 1360 LINE",
"138 1360 LINE",
"124 1232 LINE"
);
}
);
userData = {
assembly = "PUSHB[ ]\011/* 6 values pushed */
34 1 1 8 1 74 
MPPEM[ ]\011/* MeasurePixelPerEm */
PUSHB[ ]\011/* 1 value pushed */
33 
LT[ ]\011/* LessThan */
IF[ ]\011/* If */
NPUSHB[ ]\011/* 36 values pushed */
0 1 8 0 8 1 0 112 6 1 4 7 1 3 8 4 3 98 0 5 5 19 75 9 1 8 8 28 75 2 1 0 0 18 0 76 
ELSE[ ]\011/* Else */
NPUSHB[ ]\011/* 36 values pushed */
0 5 4 5 114 0 1 8 0 8 1 0 112 6 1 4 7 1 3 8 4 3 98 9 1 8 8 28 75 2 1 0 0 18 0 76 
EIF[ ]\011/* EndIf */
NPUSHB[ ]\011/* 17 values pushed */
0 0 0 37 0 36 17 17 17 17 17 19 38 25 10 7 28 
CALL[ ]\011/* CallFunction */";
};
width = 1284;
},
{
components = (
{
name = h;
}
);
layerId = "A8DD961D-2AAA-4421-B000-699D061D5CAD";
paths = (
{
closed = 1;
nodes = (
"698 1262 LINE",
"710 1360 LINE",
"142 1360 LINE",
"130 1262 LINE"
);
}
);
userData = {
assembly = "NPUSHB[ ]\011/* 56 values pushed */
37 1 0 1 1 74 6 1 4 7 1 3 8 4 3 98 0 5 5 19 75 0 1 1 8 91 9 1 8 8 28 75 2 1 0 0 18 0 76 0 0 0 40 0 39 17 17 17 17 17 20 41 24 10 7 28 
CALL[ ]\011/* CallFunction */";
};
width = 1170;
},
{
components = (
{
alignment = -1;
name = h;
}
);
layerId = "FC25F90A-4039-49BA-9FA9-48428CE1BED8";
paths = (
{
closed = 1;
nodes = (
"713 1232 LINE",
"727 1360 LINE",
"143 1360 LINE",
"127 1232 LINE"
);
}
);
width = 1188;
}
);
leftKerningGroup = h;
note = hbar;
rightKerningGroup = n;
rightMetricsKey = h;
unicode = 0127;
},
{
glyphname = idotless;
lastChange = "2019-04-06 02:49:35 +0000";
layers = (
{
anchors = (
{
name = bottom;
position = "{250, 0}";
},
{
name = ogonek;
position = "{454, 20}";
},
{
name = top;
position = "{398, 1114}";
}
);
layerId = "9808B12E-936F-4588-BC0B-2F1DE3B33DAD";
paths = (
{
closed = 1;
nodes = (
"426 0 LINE",
"582 1114 LINE",
"230 1114 LINE",
"78 0 LINE"
);
}
);
userData = {
assembly = "NPUSHB[ ]\011/* 22 values pushed */
2 1 1 1 20 75 0 0 0 18 0 76 0 0 0 3 0 3 17 3 7 21 
CALL[ ]\011/* CallFunction */";
};
width = 648;
},
{
anchors = (
{
name = bottom;
position = "{202, 0}";
},
{
name = ogonek;
position = "{346, 20}";
},
{
name = top;
position = "{350, 1114}";
}
);
layerId = "A8DD961D-2AAA-4421-B000-699D061D5CAD";
paths = (
{
closed = 1;
nodes = (
"274 0 LINE",
"426 1118 LINE",
"280 1118 LINE",
"130 0 LINE"
);
}
);
userData = {
assembly = "NPUSHB[ ]\011/* 22 values pushed */
2 1 1 1 20 75 0 0 0 18 0 76 0 0 0 3 0 3 17 3 7 21 
CALL[ ]\011/* CallFunction */";
};
width = 550;
},
{
anchors = (
{
name = bottom;
position = "{219, 0}";
},
{
name = ogonek;
position = "{376, 20}";
},
{
name = top;
position = "{367, 1114}";
}
);
layerId = "FC25F90A-4039-49BA-9FA9-48428CE1BED8";
paths = (
{
closed = 1;
nodes = (
"331 0 LINE",
"482 1114 LINE",
"266 1114 LINE",
"115 0 LINE"
);
}
);
width = 583;
}
);
leftKerningGroup = idotless;
note = dotlessi;
rightKerningGroup = idotless;
unicode = 0131;
},
{
glyphname = jdotless;
lastChange = "2019-04-06 02:49:35 +0000";
layers = (
{
anchors = (
{
name = bottom;
position = "{178, -546}";
},
{
name = top;
position = "{414, 1114}";
}
);
layerId = "9808B12E-936F-4588-BC0B-2F1DE3B33DAD";
paths = (
{
closed = 1;
nodes = (
"182 -516 OFFCURVE",
"388 -300 OFFCURVE",
"426 0 CURVE SMOOTH",
"582 1114 LINE",
"230 1114 LINE",
"86 64 LINE SMOOTH",
"64 -92 OFFCURVE",
"-20 -314 OFFCURVE",
"-144 -314 CURVE SMOOTH",
"-160 -314 OFFCURVE",
"-188 -306 OFFCURVE",
"-198 -300 CURVE",
"-268 -482 LINE",
"-238 -506 OFFCURVE",
"-172 -516 OFFCURVE",
"-92 -516 CURVE SMOOTH"
);
}
);
userData = {
assembly = "NPUSHB[ ]\011/* 38 values pushed */
9 1 1 2 8 1 0 1 2 74 3 1 2 2 20 75 0 1 1 0 91 0 0 0 30 0 76 0 0 0 16 0 16 36 36 4 7 22 
CALL[ ]\011/* CallFunction */";
};
width = 648;
},
{
anchors = (
{
name = bottom;
position = "{136, -546}";
},
{
name = top;
position = "{368, 1114}";
}
);
layerId = "A8DD961D-2AAA-4421-B000-699D061D5CAD";
paths = (
{
closed = 1;
nodes = (
"104 -502 OFFCURVE",
"242 -318 OFFCURVE",
"284 4 CURVE SMOOTH",
"434 1118 LINE",
"288 1118 LINE",
"146 58 LINE SMOOTH",
"114 -192 OFFCURVE",
"62 -402 OFFCURVE",
"-126 -402 CURVE SMOOTH",
"-152 -402 OFFCURVE",
"-186 -392 OFFCURVE",
"-200 -382 CURVE",
"-238 -466 LINE",
"-212 -488 OFFCURVE",
"-164 -502 OFFCURVE",
"-106 -502 CURVE SMOOTH"
);
}
);
userData = {
assembly = "NPUSHB[ ]\011/* 38 values pushed */
8 1 1 2 7 1 0 1 2 74 3 1 2 2 20 75 0 1 1 0 91 0 0 0 22 0 76 0 0 0 16 0 16 37 35 4 7 22 
CALL[ ]\011/* CallFunction */";
};
width = 562;
},
{
anchors = (
{
name = bottom;
position = "{145, -546}";
},
{
name = top;
position = "{380, 1114}";
}
);
layerId = "FC25F90A-4039-49BA-9FA9-48428CE1BED8";
paths = (
{
closed = 1;
nodes = (
"146 -504 OFFCURVE",
"292 -278 OFFCURVE",
"330 3 CURVE SMOOTH",
"480 1114 LINE",
"264 1114 LINE",
"122 67 LINE SMOOTH",
"90 -159 OFFCURVE",
"49 -361 OFFCURVE",
"-125 -361 CURVE SMOOTH",
"-139 -361 OFFCURVE",
"-165 -356 OFFCURVE",
"-175 -348 CURVE",
"-231 -467 LINE",
"-197 -492 OFFCURVE",
"-149 -504 OFFCURVE",
"-93 -504 CURVE SMOOTH"
);
}
);
width = 580;
}
);
leftKerningGroup = jdotless;
note = uni0237;
rightKerningGroup = jdotless;
unicode = 0237;
},
{
glyphname = k;
lastChange = "2019-04-06 02:49:35 +0000";
layers = (
{
anchors = (
{
name = bottom;
position = "{526, 0}";
},
{
name = top;
position = "{786, 1966}";
}
);
layerId = "9808B12E-936F-4588-BC0B-2F1DE3B33DAD";
paths = (
{
closed = 1;
nodes = (
"416 0 LINE",
"632 1596 LINE",
"292 1596 LINE",
"76 0 LINE"
);
},
{
closed = 1;
nodes = (
"1170 0 LINE",
"854 608 LINE",
"1024 702 OFFCURVE",
"1184 912 OFFCURVE",
"1192 1114 CURVE",
"848 1114 LINE",
"800 920 OFFCURVE",
"662 690 OFFCURVE",
"530 616 CURVE",
"772 0 LINE"
);
}
);
userData = {
assembly = "PUSHB[ ]\011/* 7 values pushed */
9 6 2 0 3 1 74 
MPPEM[ ]\011/* MeasurePixelPerEm */
PUSHB[ ]\011/* 1 value pushed */
33 
LT[ ]\011/* LessThan */
IF[ ]\011/* If */
NPUSHB[ ]\011/* 18 values pushed */
4 1 1 1 19 75 0 3 3 20 75 2 1 0 0 18 0 76 
ELSE[ ]\011/* Else */
NPUSHB[ ]\011/* 24 values pushed */
4 1 1 1 0 89 2 1 0 0 18 75 0 3 3 20 75 2 1 0 0 18 0 76 
EIF[ ]\011/* EndIf */
NPUSHB[ ]\011/* 14 values pushed */
0 0 18 17 8 7 0 3 0 3 17 5 7 21 
CALL[ ]\011/* CallFunction */";
};
width = 1198;
},
{
anchors = (
{
name = bottom;
position = "{426, 0}";
},
{
name = top;
position = "{686, 1966}";
}
);
layerId = "A8DD961D-2AAA-4421-B000-699D061D5CAD";
paths = (
{
closed = 1;
nodes = (
"240 0 LINE",
"442 1598 LINE",
"298 1598 LINE",
"94 0 LINE"
);
},
{
closed = 1;
nodes = (
"944 2 LINE",
"534 592 LINE",
"752 696 OFFCURVE",
"958 894 OFFCURVE",
"980 1114 CURVE",
"840 1114 LINE",
"764 874 OFFCURVE",
"604 750 OFFCURVE",
"366 614 CURVE",
"776 2 LINE"
);
}
);
userData = {
assembly = "NPUSHB[ ]\011/* 39 values pushed */
9 6 2 0 3 1 74 4 1 1 1 19 75 0 3 3 20 75 2 1 0 0 18 0 76 0 0 17 16 8 7 0 3 0 3 17 5 7 21 
CALL[ ]\011/* CallFunction */";
};
width = 1000;
},
{
anchors = (
{
name = bottom;
position = "{449, 0}";
},
{
name = top;
position = "{709, 1966}";
}
);
layerId = "FC25F90A-4039-49BA-9FA9-48428CE1BED8";
paths = (
{
closed = 1;
nodes = (
"299 0 LINE",
"505 1599 LINE",
"290 1599 LINE",
"85 0 LINE"
);
},
{
closed = 1;
nodes = (
"994 3 LINE",
"646 590 LINE",
"830 685 OFFCURVE",
"1033 912 OFFCURVE",
"1051 1114 CURVE",
"843 1114 LINE",
"777 924 OFFCURVE",
"602 723 OFFCURVE",
"415 619 CURVE",
"745 3 LINE"
);
}
);
width = 1046;
}
);
leftKerningGroup = h;
note = k;
rightKerningGroup = k;
unicode = 006B;
},
{
glyphname = kgreenlandic;
lastChange = "2019-04-06 02:49:35 +0000";
layers = (
{
layerId = "9808B12E-936F-4588-BC0B-2F1DE3B33DAD";
paths = (
{
closed = 1;
nodes = (
"1168 0 LINE",
"854 608 LINE",
"1024 702 OFFCURVE",
"1182 914 OFFCURVE",
"1190 1114 CURVE",
"846 1114 LINE",
"800 930 OFFCURVE",
"664 676 OFFCURVE",
"530 602 CURVE",
"792 0 LINE"
);
},
{
closed = 1;
nodes = (
"422 0 LINE",
"574 1114 LINE",
"226 1114 LINE",
"74 0 LINE"
);
}
);
userData = {
assembly = "NPUSHB[ ]\011/* 35 values pushed */
9 6 2 0 1 1 74 3 4 2 1 1 20 75 2 1 0 0 18 0 76 0 0 18 17 8 7 0 3 0 3 17 5 7 21 
CALL[ ]\011/* CallFunction */";
};
width = 1196;
},
{
layerId = "A8DD961D-2AAA-4421-B000-699D061D5CAD";
paths = (
{
closed = 1;
nodes = (
"944 0 LINE",
"534 588 LINE",
"742 694 OFFCURVE",
"968 900 OFFCURVE",
"984 1124 CURVE",
"844 1124 LINE",
"796 910 OFFCURVE",
"596 742 OFFCURVE",
"366 610 CURVE",
"776 0 LINE"
);
},
{
closed = 1;
nodes = (
"226 0 LINE",
"376 1124 LINE",
"232 1124 LINE",
"82 0 LINE"
);
}
);
userData = {
assembly = "NPUSHB[ ]\011/* 35 values pushed */
10 7 2 0 1 1 74 3 4 2 1 1 20 75 2 1 0 0 18 0 76 0 0 17 16 9 8 0 3 0 3 17 5 7 21 
CALL[ ]\011/* CallFunction */";
};
width = 1000;
},
{
layerId = "FC25F90A-4039-49BA-9FA9-48428CE1BED8";
paths = (
{
closed = 1;
nodes = (
"994 0 LINE",
"646 587 LINE",
"833 682 OFFCURVE",
"1037 911 OFFCURVE",
"1056 1126 CURVE",
"847 1126 LINE",
"777 915 OFFCURVE",
"614 727 OFFCURVE",
"417 616 CURVE",
"748 0 LINE"
);
},
{
closed = 1;
nodes = (
"297 0 LINE",
"449 1126 LINE",
"233 1126 LINE",
"81 0 LINE"
);
}
);
width = 1045;
}
);
leftKerningGroup = h;
note = kgreenlandic;
rightKerningGroup = k;
unicode = 0138;
},
{
glyphname = l;
lastChange = "2019-04-06 02:49:35 +0000";
layers = (
{
anchors = (
{
name = bottom;
position = "{260, 0}";
},
{
name = center;
position = "{382, 984}";
},
{
name = top;
position = "{464, 1568}";
},
{
name = topright;
position = "{714, 1422}";
}
);
layerId = "9808B12E-936F-4588-BC0B-2F1DE3B33DAD";
paths = (
{
closed = 1;
nodes = (
"430 0 LINE",
"646 1596 LINE",
"296 1596 LINE",
"82 0 LINE"
);
}
);
userData = {
assembly = "MPPEM[ ]\011/* MeasurePixelPerEm */
PUSHB[ ]\011/* 1 value pushed */
33 
LT[ ]\011/* LessThan */
IF[ ]\011/* If */
NPUSHB[ ]\011/* 12 values pushed */
2 1 1 1 19 75 0 0 0 18 0 76 
ELSE[ ]\011/* Else */
NPUSHB[ ]\011/* 12 values pushed */
2 1 1 1 0 89 0 0 0 18 0 76 
EIF[ ]\011/* EndIf */
NPUSHB[ ]\011/* 10 values pushed */
0 0 0 3 0 3 17 3 7 21 
CALL[ ]\011/* CallFunction */";
};
width = 650;
},
{
anchors = (
{
name = bottom;
position = "{208, 0}";
},
{
name = center;
position = "{332, 984}";
},
{
name = top;
position = "{414, 1556}";
},
{
name = topright;
position = "{634, 1422}";
}
);
layerId = "A8DD961D-2AAA-4421-B000-699D061D5CAD";
paths = (
{
closed = 1;
nodes = (
"276 2 LINE",
"492 1598 LINE",
"348 1598 LINE",
"130 2 LINE"
);
}
);
userData = {
assembly = "NPUSHB[ ]\011/* 22 values pushed */
2 1 1 1 19 75 0 0 0 18 0 76 0 0 0 3 0 3 17 3 7 21 
CALL[ ]\011/* CallFunction */";
};
width = 550;
},
{
anchors = (
{
name = bottom;
position = "{230, 0}";
},
{
name = center;
position = "{349, 984}";
},
{
name = top;
position = "{431, 1556}";
},
{
name = topright;
position = "{674, 1422}";
}
);
layerId = "FC25F90A-4039-49BA-9FA9-48428CE1BED8";
paths = (
{
closed = 1;
nodes = (
"332 3 LINE",
"549 1599 LINE",
"333 1599 LINE",
"116 3 LINE"
);
}
);
width = 583;
}
);
leftKerningGroup = h;
note = l;
rightKerningGroup = l;
unicode = 006C;
},
{
glyphname = lcaron;
lastChange = "2019-04-06 02:49:35 +0000";
layers = (
{
components = (
{
alignment = -1;
name = l;
}
);
layerId = "9808B12E-936F-4588-BC0B-2F1DE3B33DAD";
paths = (
{
closed = 1;
nodes = (
"982 1078 OFFCURVE",
"1036 1266 OFFCURVE",
"1036 1428 CURVE SMOOTH",
"1036 1510 OFFCURVE",
"1022 1588 OFFCURVE",
"998 1612 CURVE",
"774 1566 LINE",
"756 1524 LINE",
"772 1502 OFFCURVE",
"780 1436 OFFCURVE",
"780 1328 CURVE SMOOTH",
"780 1218 OFFCURVE",
"764 1098 OFFCURVE",
"740 1034 CURVE",
"746 1010 LINE",
"892 982 LINE"
);
}
);
width = 822;
},
{
components = (
{
alignment = -1;
name = l;
}
);
layerId = "A8DD961D-2AAA-4421-B000-699D061D5CAD";
paths = (
{
closed = 1;
nodes = (
"794 1090 OFFCURVE",
"844 1256 OFFCURVE",
"850 1394 CURVE",
"850 1474 OFFCURVE",
"850 1558 OFFCURVE",
"822 1618 CURVE",
"692 1584 LINE",
"686 1560 LINE",
"702 1534 OFFCURVE",
"714 1470 OFFCURVE",
"714 1392 CURVE SMOOTH",
"714 1286 OFFCURVE",
"690 1170 OFFCURVE",
"644 1040 CURVE",
"648 1020 LINE",
"724 992 LINE"
);
}
);
width = 774;
},
{
components = (
{
alignment = -1;
name = l;
}
);
layerId = "FC25F90A-4039-49BA-9FA9-48428CE1BED8";
paths = (
{
closed = 1;
nodes = (
"861 1083 OFFCURVE",
"909 1258 OFFCURVE",
"909 1393 CURVE SMOOTH",
"909 1497 OFFCURVE",
"901 1565 OFFCURVE",
"879 1611 CURVE",
"697 1566 LINE",
"687 1533 LINE",
"705 1504 OFFCURVE",
"716 1424 OFFCURVE",
"716 1345 CURVE SMOOTH",
"716 1251 OFFCURVE",
"701 1146 OFFCURVE",
"676 1043 CURVE",
"682 1018 LINE",
"788 981 LINE"
);
}
);
width = 775;
}
);
leftKerningGroup = h;
note = lcaron;
rightKerningGroup = l;
unicode = 013E;
},
{
glyphname = lslash;
lastChange = "2019-04-06 02:49:35 +0000";
layers = (
{
layerId = "9808B12E-936F-4588-BC0B-2F1DE3B33DAD";
paths = (
{
closed = 1;
nodes = (
"430 0 LINE",
"544 838 LINE",
"744 916 LINE",
"744 1120 LINE",
"572 1048 LINE",
"646 1596 LINE",
"296 1596 LINE",
"202 898 LINE",
"10 820 LINE",
"10 626 LINE",
"174 692 LINE",
"82 0 LINE"
);
}
);
userData = {
assembly = "NPUSHB[ ]\011/* 11 values pushed */
11 10 6 5 4 0 6 0 1 1 74 
MPPEM[ ]\011/* MeasurePixelPerEm */
PUSHB[ ]\011/* 1 value pushed */
33 
LT[ ]\011/* LessThan */
IF[ ]\011/* If */
NPUSHB[ ]\011/* 11 values pushed */
0 1 1 19 75 0 0 0 18 0 76 
ELSE[ ]\011/* Else */
NPUSHB[ ]\011/* 11 values pushed */
0 1 1 0 89 0 0 0 18 0 76 
EIF[ ]\011/* EndIf */
PUSHB[ ]\011/* 5 values pushed */
21 18 2 7 22 
CALL[ ]\011/* CallFunction */";
};
width = 650;
},
{
layerId = "A8DD961D-2AAA-4421-B000-699D061D5CAD";
paths = (
{
closed = 1;
nodes = (
"252 2 LINE",
"380 944 LINE",
"558 1014 LINE",
"558 1124 LINE",
"396 1058 LINE",
"468 1598 LINE",
"324 1598 LINE",
"242 994 LINE",
"76 926 LINE",
"76 824 LINE",
"226 884 LINE",
"106 2 LINE"
);
}
);
userData = {
assembly = "NPUSHB[ ]\011/* 27 values pushed */
11 10 6 5 4 0 6 0 1 1 74 0 1 1 19 75 0 0 0 18 0 76 21 18 2 7 22 
CALL[ ]\011/* CallFunction */";
};
width = 526;
},
{
layerId = "FC25F90A-4039-49BA-9FA9-48428CE1BED8";
paths = (
{
closed = 1;
nodes = (
"340 4 LINE",
"462 902 LINE",
"634 968 LINE",
"634 1122 LINE",
"484 1060 LINE",
"556 1600 LINE",
"340 1600 LINE",
"254 966 LINE",
"80 894 LINE",
"80 750 LINE",
"234 812 LINE",
"124 4 LINE"
);
}
);
width = 600;
}
);
leftKerningGroup = lslash;
note = lslash;
rightKerningGroup = lslash;
unicode = 0142;
},
{
glyphname = m;
lastChange = "2019-04-06 02:49:35 +0000";
layers = (
{
anchors = (
{
name = bottom;
position = "{886, 0}";
},
{
name = top;
position = "{1034, 1114}";
}
);
layerId = "9808B12E-936F-4588-BC0B-2F1DE3B33DAD";
paths = (
{
closed = 1;
nodes = (
"422 0 LINE",
"518 690 LINE",
"576 794 OFFCURVE",
"666 866 OFFCURVE",
"736 866 CURVE SMOOTH",
"792 866 OFFCURVE",
"818 840 OFFCURVE",
"816 770 CURVE SMOOTH",
"814 722 OFFCURVE",
"804 632 OFFCURVE",
"788 498 CURVE SMOOTH",
"772 366 OFFCURVE",
"750 200 OFFCURVE",
"720 0 CURVE",
"1068 0 LINE",
"1072 18 OFFCURVE",
"1128 418 OFFCURVE",
"1154 606 CURVE SMOOTH",
"1160 656 OFFCURVE",
"1164 690 OFFCURVE",
"1166 700 CURVE",
"1222 802 OFFCURVE",
"1302 866 OFFCURVE",
"1368 866 CURVE SMOOTH",
"1424 866 OFFCURVE",
"1450 840 OFFCURVE",
"1448 770 CURVE SMOOTH",
"1446 714 OFFCURVE",
"1432 608 OFFCURVE",
"1418 498 CURVE SMOOTH",
"1402 372 OFFCURVE",
"1380 206 OFFCURVE",
"1352 0 CURVE",
"1700 0 LINE",
"1724 166 OFFCURVE",
"1746 332 OFFCURVE",
"1770 498 CURVE SMOOTH",
"1796 688 OFFCURVE",
"1808 800 OFFCURVE",
"1808 834 CURVE SMOOTH",
"1808 1044 OFFCURVE",
"1716 1128 OFFCURVE",
"1546 1128 CURVE SMOOTH",
"1394 1128 OFFCURVE",
"1264 1044 OFFCURVE",
"1174 906 CURVE",
"1156 1064 OFFCURVE",
"1066 1128 OFFCURVE",
"916 1128 CURVE SMOOTH",
"766 1128 OFFCURVE",
"642 1050 OFFCURVE",
"548 916 CURVE",
"562 1114 LINE",
"226 1114 LINE",
"74 0 LINE"
);
}
);
userData = {
assembly = "PUSHB[ ]\011/* 7 values pushed */
48 42 2 1 5 1 74 
MPPEM[ ]\011/* MeasurePixelPerEm */
PUSHB[ ]\011/* 1 value pushed */
31 
LT[ ]\011/* LessThan */
IF[ ]\011/* If */
NPUSHB[ ]\011/* 25 values pushed */
3 1 1 5 0 5 1 0 112 8 7 6 3 5 5 20 75 4 2 2 0 0 18 0 76 
ELSE[ ]\011/* Else */
NPUSHB[ ]\011/* 29 values pushed */
3 1 1 5 0 5 1 0 112 8 7 2 6 6 28 75 0 5 5 20 75 4 2 2 0 0 18 0 76 
EIF[ ]\011/* EndIf */
NPUSHB[ ]\011/* 16 values pushed */
0 0 0 51 0 50 35 17 19 38 26 39 22 9 7 27 
CALL[ ]\011/* CallFunction */";
};
width = 1918;
},
{
anchors = (
{
name = bottom;
position = "{796, 0}";
},
{
name = top;
position = "{944, 1114}";
}
);
layerId = "A8DD961D-2AAA-4421-B000-699D061D5CAD";
paths = (
{
closed = 1;
nodes = (
"236 2 LINE",
"332 708 LINE",
"404 820 OFFCURVE",
"606 996 OFFCURVE",
"714 996 CURVE SMOOTH",
"810 996 OFFCURVE",
"846 952 OFFCURVE",
"846 842 CURVE SMOOTH",
"846 776 OFFCURVE",
"832 684 OFFCURVE",
"806 500 CURVE SMOOTH",
"760 194 OFFCURVE",
"742 76 OFFCURVE",
"732 2 CURVE",
"876 2 LINE",
"928 342 OFFCURVE",
"950 474 OFFCURVE",
"956 528 CURVE SMOOTH",
"974 642 OFFCURVE",
"984 724 OFFCURVE",
"988 772 CURVE",
"1092 898 OFFCURVE",
"1232 994 OFFCURVE",
"1330 994 CURVE SMOOTH",
"1426 994 OFFCURVE",
"1462 948 OFFCURVE",
"1462 842 CURVE SMOOTH",
"1462 780 OFFCURVE",
"1448 666 OFFCURVE",
"1422 500 CURVE SMOOTH",
"1422 498 OFFCURVE",
"1360 88 OFFCURVE",
"1348 2 CURVE",
"1494 2 LINE",
"1540 296 OFFCURVE",
"1562 436 OFFCURVE",
"1570 500 CURVE SMOOTH",
"1596 674 OFFCURVE",
"1610 792 OFFCURVE",
"1610 852 CURVE SMOOTH",
"1610 1050 OFFCURVE",
"1538 1128 OFFCURVE",
"1388 1128 CURVE SMOOTH",
"1252 1128 OFFCURVE",
"1104 1034 OFFCURVE",
"992 904 CURVE",
"982 1056 OFFCURVE",
"912 1128 OFFCURVE",
"774 1128 CURVE SMOOTH",
"628 1128 OFFCURVE",
"466 1018 OFFCURVE",
"352 866 CURVE",
"380 1114 LINE",
"242 1114 LINE",
"90 2 LINE"
);
}
);
userData = {
assembly = "PUSHB[ ]\011/* 7 values pushed */
51 45 2 0 1 1 74 
MPPEM[ ]\011/* MeasurePixelPerEm */
PUSHB[ ]\011/* 1 value pushed */
31 
LT[ ]\011/* LessThan */
IF[ ]\011/* If */
NPUSHB[ ]\011/* 22 values pushed */
3 1 1 1 5 91 8 7 6 3 5 5 20 75 4 2 2 0 0 18 0 76 
ELSE[ ]\011/* Else */
NPUSHB[ ]\011/* 26 values pushed */
0 5 5 20 75 3 1 1 1 6 91 8 7 2 6 6 28 75 4 2 2 0 0 18 0 76 
EIF[ ]\011/* EndIf */
NPUSHB[ ]\011/* 16 values pushed */
0 0 0 54 0 53 35 17 20 40 24 40 23 9 7 27 
CALL[ ]\011/* CallFunction */";
};
width = 1740;
},
{
anchors = (
{
name = bottom;
position = "{806, 0}";
},
{
name = top;
position = "{954, 1114}";
}
);
layerId = "FC25F90A-4039-49BA-9FA9-48428CE1BED8";
paths = (
{
closed = 1;
nodes = (
"297 3 LINE",
"393 704 LINE",
"464 809 OFFCURVE",
"624 938 OFFCURVE",
"715 938 CURVE SMOOTH",
"785 938 OFFCURVE",
"814 913 OFFCURVE",
"814 826 CURVE SMOOTH",
"814 791 OFFCURVE",
"802 688 OFFCURVE",
"787 567 CURVE SMOOTH",
"757 347 OFFCURVE",
"715 63 OFFCURVE",
"707 3 CURVE",
"923 3 LINE",
"955 219 OFFCURVE",
"976 352 OFFCURVE",
"1002 547 CURVE SMOOTH",
"1015 631 OFFCURVE",
"1024 700 OFFCURVE",
"1029 751 CURVE",
"1119 860 OFFCURVE",
"1237 938 OFFCURVE",
"1316 938 CURVE SMOOTH",
"1388 938 OFFCURVE",
"1416 914 OFFCURVE",
"1416 826 CURVE SMOOTH",
"1416 777 OFFCURVE",
"1406 695 OFFCURVE",
"1388 565 CURVE SMOOTH",
"1348 284 OFFCURVE",
"1327 155 OFFCURVE",
"1307 3 CURVE",
"1524 3 LINE",
"1558 224 OFFCURVE",
"1578 360 OFFCURVE",
"1597 501 CURVE SMOOTH",
"1623 683 OFFCURVE",
"1637 797 OFFCURVE",
"1637 844 CURVE SMOOTH",
"1637 1046 OFFCURVE",
"1565 1128 OFFCURVE",
"1412 1128 CURVE SMOOTH",
"1279 1128 OFFCURVE",
"1139 1046 OFFCURVE",
"1031 921 CURVE",
"1015 1067 OFFCURVE",
"940 1128 OFFCURVE",
"810 1128 CURVE SMOOTH",
"671 1128 OFFCURVE",
"525 1039 OFFCURVE",
"419 907 CURVE",
"438 1114 LINE",
"231 1114 LINE",
"81 3 LINE"
);
}
);
width = 1759;
}
);
leftKerningGroup = n;
note = m;
rightKerningGroup = n;
unicode = 006D;
},
{
glyphname = n;
lastChange = "2019-04-06 02:49:35 +0000";
layers = (
{
anchors = (
{
name = bottom;
position = "{570, 0}";
},
{
name = top;
position = "{718, 1114}";
}
);
layerId = "9808B12E-936F-4588-BC0B-2F1DE3B33DAD";
paths = (
{
closed = 1;
nodes = (
"422 0 LINE",
"518 682 LINE",
"574 792 OFFCURVE",
"664 866 OFFCURVE",
"736 866 CURVE SMOOTH",
"792 866 OFFCURVE",
"818 840 OFFCURVE",
"816 770 CURVE SMOOTH",
"814 722 OFFCURVE",
"804 632 OFFCURVE",
"788 498 CURVE SMOOTH",
"772 366 OFFCURVE",
"750 200 OFFCURVE",
"720 0 CURVE",
"1068 0 LINE",
"1072 22 OFFCURVE",
"1128 434 OFFCURVE",
"1138 500 CURVE SMOOTH",
"1154 616 OFFCURVE",
"1178 790 OFFCURVE",
"1178 834 CURVE SMOOTH",
"1178 1044 OFFCURVE",
"1084 1128 OFFCURVE",
"908 1128 CURVE SMOOTH",
"762 1128 OFFCURVE",
"636 1048 OFFCURVE",
"546 912 CURVE",
"560 1114 LINE",
"226 1114 LINE",
"74 0 LINE"
);
}
);
userData = {
assembly = "PUSHB[ ]\011/* 6 values pushed */
25 1 1 3 1 74 
MPPEM[ ]\011/* MeasurePixelPerEm */
PUSHB[ ]\011/* 1 value pushed */
31 
LT[ ]\011/* LessThan */
IF[ ]\011/* If */
NPUSHB[ ]\011/* 22 values pushed */
0 1 3 0 3 1 0 112 5 4 2 3 3 20 75 2 1 0 0 18 0 76 
ELSE[ ]\011/* Else */
NPUSHB[ ]\011/* 26 values pushed */
0 1 3 0 3 1 0 112 5 1 4 4 28 75 0 3 3 20 75 2 1 0 0 18 0 76 
EIF[ ]\011/* EndIf */
NPUSHB[ ]\011/* 13 values pushed */
0 0 0 28 0 27 17 19 38 25 6 7 24 
CALL[ ]\011/* CallFunction */";
};
width = 1288;
},
{
anchors = (
{
name = bottom;
position = "{510, 0}";
},
{
name = top;
position = "{658, 1114}";
}
);
layerId = "A8DD961D-2AAA-4421-B000-699D061D5CAD";
paths = (
{
closed = 1;
nodes = (
"236 0 LINE",
"330 700 LINE",
"418 826 OFFCURVE",
"608 994 OFFCURVE",
"750 994 CURVE SMOOTH",
"852 994 OFFCURVE",
"888 952 OFFCURVE",
"888 842 CURVE SMOOTH",
"888 776 OFFCURVE",
"874 684 OFFCURVE",
"848 500 CURVE SMOOTH",
"800 190 OFFCURVE",
"784 70 OFFCURVE",
"774 0 CURVE",
"918 0 LINE",
"970 338 OFFCURVE",
"984 438 OFFCURVE",
"994 500 CURVE SMOOTH",
"1020 682 OFFCURVE",
"1036 792 OFFCURVE",
"1036 856 CURVE SMOOTH",
"1036 1042 OFFCURVE",
"968 1128 OFFCURVE",
"810 1128 CURVE SMOOTH",
"652 1128 OFFCURVE",
"476 1012 OFFCURVE",
"350 854 CURVE",
"378 1114 LINE",
"242 1114 LINE",
"90 0 LINE"
);
}
);
userData = {
assembly = "PUSHB[ ]\011/* 6 values pushed */
27 1 0 1 1 74 
MPPEM[ ]\011/* MeasurePixelPerEm */
PUSHB[ ]\011/* 1 value pushed */
31 
LT[ ]\011/* LessThan */
IF[ ]\011/* If */
NPUSHB[ ]\011/* 19 values pushed */
0 1 1 3 91 5 4 2 3 3 20 75 2 1 0 0 18 0 76 
ELSE[ ]\011/* Else */
NPUSHB[ ]\011/* 23 values pushed */
0 3 3 20 75 0 1 1 4 91 5 1 4 4 28 75 2 1 0 0 18 0 76 
EIF[ ]\011/* EndIf */
NPUSHB[ ]\011/* 13 values pushed */
0 0 0 30 0 29 17 20 40 24 6 7 24 
CALL[ ]\011/* CallFunction */";
};
width = 1166;
},
{
anchors = (
{
name = bottom;
position = "{520, 0}";
},
{
name = top;
position = "{668, 1114}";
}
);
layerId = "FC25F90A-4039-49BA-9FA9-48428CE1BED8";
paths = (
{
closed = 1;
nodes = (
"295 0 LINE",
"391 697 LINE",
"468 801 OFFCURVE",
"642 938 OFFCURVE",
"743 938 CURVE SMOOTH",
"814 938 OFFCURVE",
"841 914 OFFCURVE",
"841 826 CURVE SMOOTH",
"841 770 OFFCURVE",
"829 667 OFFCURVE",
"805 501 CURVE SMOOTH",
"764 230 OFFCURVE",
"740 60 OFFCURVE",
"732 0 CURVE",
"949 0 LINE",
"996 292 OFFCURVE",
"1014 418 OFFCURVE",
"1024 501 CURVE",
"1050 683 OFFCURVE",
"1064 797 OFFCURVE",
"1064 844 CURVE SMOOTH",
"1064 1046 OFFCURVE",
"989 1128 OFFCURVE",
"838 1128 CURVE SMOOTH",
"686 1128 OFFCURVE",
"532 1035 OFFCURVE",
"417 898 CURVE",
"437 1114 LINE",
"231 1114 LINE",
"79 0 LINE"
);
}
);
width = 1186;
}
);
leftKerningGroup = n;
note = n;
rightKerningGroup = n;
unicode = 006E;
},
{
glyphname = eng;
lastChange = "2019-04-06 02:56:54 +0000";
layers = (
{
layerId = "9808B12E-936F-4588-BC0B-2F1DE3B33DAD";
paths = (
{
closed = 1;
nodes = (
"896 -516 OFFCURVE",
"1014 -306 OFFCURVE",
"1068 0 CURVE SMOOTH",
"1096 160 OFFCURVE",
"1132 422 OFFCURVE",
"1156 612 CURVE SMOOTH",
"1170 718 OFFCURVE",
"1178 802 OFFCURVE",
"1178 834 CURVE SMOOTH",
"1178 1044 OFFCURVE",
"1084 1128 OFFCURVE",
"908 1128 CURVE SMOOTH",
"762 1128 OFFCURVE",
"636 1048 OFFCURVE",
"546 912 CURVE",
"560 1114 LINE",
"226 1114 LINE",
"74 0 LINE",
"422 0 LINE",
"518 682 LINE",
"574 792 OFFCURVE",
"664 866 OFFCURVE",
"736 866 CURVE SMOOTH",
"792 866 OFFCURVE",
"818 840 OFFCURVE",
"816 770 CURVE SMOOTH",
"810 652 OFFCURVE",
"786 462 OFFCURVE",
"720 0 CURVE SMOOTH",
"696 -182 OFFCURVE",
"600 -358 OFFCURVE",
"484 -358 CURVE SMOOTH",
"468 -358 OFFCURVE",
"428 -352 OFFCURVE",
"412 -346 CURVE",
"372 -480 LINE",
"390 -502 OFFCURVE",
"482 -516 OFFCURVE",
"562 -516 CURVE SMOOTH"
);
}
);
userData = {
assembly = "NPUSHB[ ]\011/* 14 values pushed */
35 1 2 4 13 1 1 3 12 1 0 1 3 74 
MPPEM[ ]\011/* MeasurePixelPerEm */
PUSHB[ ]\011/* 1 value pushed */
31 
LT[ ]\011/* LessThan */
IF[ ]\011/* If */
NPUSHB[ ]\011/* 31 values pushed */
0 2 4 3 4 2 3 112 6 5 2 4 4 20 75 0 3 3 18 75 0 1 1 0 91 0 0 0 30 0 76 
ELSE[ ]\011/* Else */
NPUSHB[ ]\011/* 35 values pushed */
0 2 4 3 4 2 3 112 6 1 5 5 28 75 0 4 4 20 75 0 3 3 18 75 0 1 1 0 91 0 0 0 30 0 76 
EIF[ ]\011/* EndIf */
NPUSHB[ ]\011/* 14 values pushed */
0 0 0 38 0 37 17 19 41 37 40 7 7 25 
CALL[ ]\011/* CallFunction */";
};
width = 1292;
},
{
background = {
components = (
{
name = n;
}
);
};
layerId = "A8DD961D-2AAA-4421-B000-699D061D5CAD";
paths = (
{
closed = 1;
nodes = (
"716 -506 OFFCURVE",
"864 -336 OFFCURVE",
"918 0 CURVE SMOOTH",
"950 194 OFFCURVE",
"972 358 OFFCURVE",
"1006 576 CURVE SMOOTH",
"1022 694 OFFCURVE",
"1034 782 OFFCURVE",
"1036 842 CURVE SMOOTH",
"1036 1042 OFFCURVE",
"966 1128 OFFCURVE",
"816 1128 CURVE SMOOTH",
"658 1128 OFFCURVE",
"476 1010 OFFCURVE",
"350 852 CURVE",
"380 1114 LINE",
"242 1114 LINE",
"90 0 LINE",
"236 0 LINE",
"330 696 LINE",
"418 822 OFFCURVE",
"614 996 OFFCURVE",
"756 996 CURVE SMOOTH",
"852 996 OFFCURVE",
"888 944 OFFCURVE",
"888 834 CURVE SMOOTH",
"888 728 OFFCURVE",
"838 392 OFFCURVE",
"774 0 CURVE SMOOTH",
"728 -280 OFFCURVE",
"650 -416 OFFCURVE",
"468 -416 CURVE SMOOTH",
"444 -416 OFFCURVE",
"398 -410 OFFCURVE",
"376 -396 CURVE",
"350 -466 LINE",
"372 -490 OFFCURVE",
"430 -506 OFFCURVE",
"494 -506 CURVE SMOOTH"
);
}
);
userData = {
assembly = "NPUSHB[ ]\011/* 14 values pushed */
35 1 3 2 13 1 1 3 12 1 0 1 3 74 
MPPEM[ ]\011/* MeasurePixelPerEm */
PUSHB[ ]\011/* 1 value pushed */
31 
LT[ ]\011/* LessThan */
IF[ ]\011/* If */
NPUSHB[ ]\011/* 28 values pushed */
0 2 2 4 91 6 5 2 4 4 20 75 0 3 3 18 75 0 1 1 0 91 0 0 0 22 0 76 
ELSE[ ]\011/* Else */
NPUSHB[ ]\011/* 32 values pushed */
0 4 4 20 75 0 2 2 5 91 6 1 5 5 28 75 0 3 3 18 75 0 1 1 0 91 0 0 0 22 0 76 
EIF[ ]\011/* EndIf */
NPUSHB[ ]\011/* 14 values pushed */
0 0 0 38 0 37 17 20 40 37 40 7 7 25 
CALL[ ]\011/* CallFunction */";
};
width = 1166;
},
{
background = {
components = (
{
name = n;
transform = "{1, 0, 0, 1, -2, 0}";
}
);
};
layerId = "FC25F90A-4039-49BA-9FA9-48428CE1BED8";
paths = (
{
closed = 1;
nodes = (
"747 -507 OFFCURVE",
"898 -333 OFFCURVE",
"949 0 CURVE SMOOTH",
"990 269 OFFCURVE",
"1021 475 OFFCURVE",
"1039 607 CURVE SMOOTH",
"1055 719 OFFCURVE",
"1062 801 OFFCURVE",
"1062 844 CURVE SMOOTH",
"1062 1046 OFFCURVE",
"987 1128 OFFCURVE",
"836 1128 CURVE SMOOTH",
"686 1128 OFFCURVE",
"530 1033 OFFCURVE",
"415 896 CURVE",
"435 1114 LINE",
"229 1114 LINE",
"79 0 LINE",
"295 0 LINE",
"389 693 LINE",
"465 797 OFFCURVE",
"642 938 OFFCURVE",
"741 938 CURVE SMOOTH",
"813 938 OFFCURVE",
"840 914 OFFCURVE",
"839 824 CURVE SMOOTH",
"838 696 OFFCURVE",
"774 310 OFFCURVE",
"732 0 CURVE SMOOTH",
"696 -264 OFFCURVE",
"630 -380 OFFCURVE",
"456 -380 CURVE SMOOTH",
"440 -380 OFFCURVE",
"402 -374 OFFCURVE",
"386 -368 CURVE",
"350 -471 LINE",
"372 -495 OFFCURVE",
"430 -507 OFFCURVE",
"495 -507 CURVE SMOOTH"
);
}
);
width = 1184;
}
);
leftKerningGroup = n;
leftMetricsKey = n;
note = eng;
rightKerningGroup = j;
unicode = 014B;
},
{
glyphname = o;
lastChange = "2019-04-06 02:49:35 +0000";
layers = (
{
anchors = (
{
name = bottom;
position = "{504, 0}";
},
{
name = center;
position = "{578, 558}";
},
{
name = ogonek;
position = "{770, 20}";
},
{
name = top;
position = "{654, 1114}";
},
{
name = topright;
position = "{1188, 1114}";
}
);
layerId = "9808B12E-936F-4588-BC0B-2F1DE3B33DAD";
paths = (
{
closed = 1;
nodes = (
"734 -16 OFFCURVE",
"924 116 OFFCURVE",
"1020 320 CURVE SMOOTH",
"1066 422 OFFCURVE",
"1090 534 OFFCURVE",
"1090 656 CURVE SMOOTH",
"1090 932 OFFCURVE",
"960 1128 OFFCURVE",
"684 1128 CURVE SMOOTH",
"420 1128 OFFCURVE",
"230 998 OFFCURVE",
"136 794 CURVE SMOOTH",
"88 692 OFFCURVE",
"64 580 OFFCURVE",
"64 458 CURVE SMOOTH",
"64 184 OFFCURVE",
"194 -16 OFFCURVE",
"470 -16 CURVE SMOOTH"
);
},
{
closed = 1;
nodes = (
"446 194 OFFCURVE",
"410 268 OFFCURVE",
"410 418 CURVE SMOOTH",
"410 618 OFFCURVE",
"468 920 OFFCURVE",
"632 920 CURVE SMOOTH",
"722 920 OFFCURVE",
"740 808 OFFCURVE",
"740 688 CURVE SMOOTH",
"740 472 OFFCURVE",
"684 194 OFFCURVE",
"516 194 CURVE SMOOTH"
);
}
);
userData = {
assembly = "NPUSHB[ ]\011/* 41 values pushed */
0 2 2 1 91 4 1 1 1 28 75 5 1 3 3 0 91 0 0 0 26 0 76 16 16 0 0 16 28 16 27 23 21 0 15 0 14 38 6 7 21 
CALL[ ]\011/* CallFunction */";
};
width = 1154;
},
{
anchors = (
{
name = bottom;
position = "{480, 0}";
},
{
name = center;
position = "{554, 558}";
},
{
name = ogonek;
position = "{670, 20}";
},
{
name = top;
position = "{652, 1114}";
},
{
name = topright;
position = "{1142, 1114}";
}
);
layerId = "A8DD961D-2AAA-4421-B000-699D061D5CAD";
paths = (
{
closed = 1;
nodes = (
"678 -16 OFFCURVE",
"850 124 OFFCURVE",
"942 334 CURVE SMOOTH",
"988 440 OFFCURVE",
"1010 550 OFFCURVE",
"1010 666 CURVE SMOOTH",
"1010 962 OFFCURVE",
"886 1128 OFFCURVE",
"644 1128 CURVE SMOOTH",
"436 1128 OFFCURVE",
"262 988 OFFCURVE",
"168 780 CURVE SMOOTH",
"120 674 OFFCURVE",
"96 564 OFFCURVE",
"96 448 CURVE SMOOTH",
"96 152 OFFCURVE",
"224 -16 OFFCURVE",
"470 -16 CURVE SMOOTH"
);
},
{
closed = 1;
nodes = (
"328 94 OFFCURVE",
"246 220 OFFCURVE",
"246 450 CURVE SMOOTH",
"246 708 OFFCURVE",
"374 1020 OFFCURVE",
"620 1020 CURVE SMOOTH",
"786 1020 OFFCURVE",
"858 892 OFFCURVE",
"858 666 CURVE SMOOTH",
"858 402 OFFCURVE",
"730 94 OFFCURVE",
"494 94 CURVE SMOOTH"
);
}
);
userData = {
assembly = "NPUSHB[ ]\011/* 41 values pushed */
0 2 2 1 91 4 1 1 1 28 75 5 1 3 3 0 91 0 0 0 26 0 76 14 14 0 0 14 27 14 26 21 19 0 13 0 12 37 6 7 21 
CALL[ ]\011/* CallFunction */";
};
width = 1108;
},
{
anchors = (
{
name = bottom;
position = "{484, 0}";
},
{
name = center;
position = "{558, 558}";
},
{
name = ogonek;
position = "{666, 20}";
},
{
name = top;
position = "{652, 1114}";
},
{
name = topright;
position = "{1149, 1114}";
}
);
layerId = "FC25F90A-4039-49BA-9FA9-48428CE1BED8";
paths = (
{
closed = 1;
nodes = (
"687 -16 OFFCURVE",
"864 123 OFFCURVE",
"958 332 CURVE SMOOTH",
"1004 435 OFFCURVE",
"1028 546 OFFCURVE",
"1028 665 CURVE SMOOTH",
"1028 957 OFFCURVE",
"904 1128 OFFCURVE",
"653 1128 CURVE SMOOTH",
"433 1128 OFFCURVE",
"251 990 OFFCURVE",
"156 783 CURVE SMOOTH",
"107 677 OFFCURVE",
"83 567 OFFCURVE",
"83 450 CURVE SMOOTH",
"83 162 OFFCURVE",
"212 -16 OFFCURVE",
"468 -16 CURVE SMOOTH"
);
},
{
closed = 1;
nodes = (
"369 139 OFFCURVE",
"306 247 OFFCURVE",
"306 447 CURVE SMOOTH",
"306 680 OFFCURVE",
"406 976 OFFCURVE",
"619 976 CURVE SMOOTH",
"749 976 OFFCURVE",
"804 871 OFFCURVE",
"804 665 CURVE SMOOTH",
"804 426 OFFCURVE",
"709 139 OFFCURVE",
"501 139 CURVE SMOOTH"
);
}
);
width = 1115;
}
);
leftKerningGroup = o;
note = o;
rightKerningGroup = o;
unicode = 006F;
},
{
glyphname = oslash;
lastChange = "2019-04-06 02:49:35 +0000";
layers = (
{
components = (
{
name = o;
}
);
layerId = "9808B12E-936F-4588-BC0B-2F1DE3B33DAD";
paths = (
{
closed = 1;
nodes = (
"358 86 LINE",
"394 132 LINE",
"820 946 LINE",
"880 998 LINE",
"1010 1220 LINE",
"926 1258 LINE",
"796 1034 LINE",
"758 992 LINE",
"350 200 LINE",
"290 152 LINE",
"144 -98 LINE",
"232 -136 LINE"
);
}
);
userData = {
assembly = "NPUSHB[ ]\011/* 67 values pushed */
23 20 2 2 1 38 29 2 3 2 11 8 2 0 3 3 74 22 21 2 1 72 10 9 2 0 71 4 1 2 2 1 91 0 1 1 28 75 5 1 3 3 0 91 0 0 0 26 0 76 33 33 24 24 33 41 33 40 24 32 24 31 42 37 6 7 22 
CALL[ ]\011/* CallFunction */";
};
width = 1154;
},
{
components = (
{
name = o;
}
);
layerId = "A8DD961D-2AAA-4421-B000-699D061D5CAD";
paths = (
{
closed = 1;
nodes = (
"270 90 LINE",
"314 132 LINE",
"830 946 LINE",
"874 998 LINE",
"1026 1230 LINE",
"958 1268 LINE",
"806 1034 LINE",
"768 992 LINE",
"270 200 LINE",
"222 156 LINE",
"56 -86 LINE",
"124 -124 LINE"
);
}
);
userData = {
assembly = "NPUSHB[ ]\011/* 69 values pushed */
22 19 2 2 1 38 37 29 28 11 5 3 2 8 1 0 3 3 74 21 20 2 1 72 10 9 2 0 71 4 1 2 2 1 91 0 1 1 28 75 5 1 3 3 0 91 0 0 0 26 0 76 32 32 23 23 32 40 32 39 23 31 23 30 41 37 6 7 22 
CALL[ ]\011/* CallFunction */";
};
width = 1108;
},
{
components = (
{
name = o;
}
);
layerId = "FC25F90A-4039-49BA-9FA9-48428CE1BED8";
paths = (
{
closed = 1;
nodes = (
"322 90 LINE",
"366 132 LINE",
"820 946 LINE",
"864 998 LINE",
"1006 1220 LINE",
"938 1258 LINE",
"796 1034 LINE",
"758 992 LINE",
"322 200 LINE",
"274 156 LINE",
"128 -86 LINE",
"196 -124 LINE"
);
}
);
width = 1115;
}
);
leftKerningGroup = o;
note = oslash;
rightKerningGroup = o;
unicode = 00F8;
},
